<?xml version="1.0" encoding="utf-8"?>
<!-- Generator: Adobe Illustrator 19.0.0, SVG Export Plug-In . SVG Version: 6.00 Build 0)  -->
<svg version="1.1" id="Layer_1" xmlns="http://www.w3.org/2000/svg" xmlns:xlink="http://www.w3.org/1999/xlink" x="0px" y="0px"
	 viewBox="-275 257 240 100" style="enable-background:new -275 257 240 100;" xml:space="preserve">
<style type="text/css">
	.st0{fill:#D7BF4A;}
	.st1{fill:#E30613;}
	.st2{fill:#C7A500;}
	.st3{fill:#1D1D1B;}
</style>
<g>
	<path class="st0" d="M-131,307.2c0,13-10.7,23.6-24,23.6c-13.3,0-24-10.6-24-23.6c0-13,10.7-23.6,24-23.6
		C-141.7,283.6-131,294.1-131,307.2"/>
	<path class="st1" d="M-155,267.3c-22.3,0-40.3,17.8-40.3,39.7c0,21.9,18.1,39.7,40.3,39.7c22.3,0,40.3-17.8,40.3-39.7
		C-114.7,285.1-132.7,267.3-155,267.3 M-155,330.6c-13.3,0-24-10.6-24-23.6c0-13,10.7-23.6,24-23.6c13.3,0,24,10.6,24,23.6
		C-131,320-141.7,330.6-155,330.6"/>
	<path class="st2" d="M-155,347.5c-22.7,0-41.2-18.2-41.2-40.5c0-22.4,18.5-40.5,41.2-40.5c22.7,0,41.2,18.2,41.2,40.5
		C-113.8,329.4-132.3,347.5-155,347.5 M-155,268.2c-21.8,0-39.4,17.4-39.4,38.8c0,21.4,17.7,38.8,39.4,38.8
		c21.8,0,39.4-17.4,39.4-38.8C-115.6,285.6-133.2,268.2-155,268.2 M-155,331.5c-13.7,0-24.9-11-24.9-24.5
		c0-13.5,11.2-24.5,24.9-24.5c13.7,0,24.9,11,24.9,24.5C-130.1,320.5-141.3,331.5-155,331.5 M-155,284.3
		c-12.7,0-23.1,10.2-23.1,22.7c0,12.5,10.4,22.7,23.1,22.7c12.7,0,23.1-10.2,23.1-22.7C-131.9,294.5-142.3,284.3-155,284.3"/>
	<path class="st2" d="M-164.3,279.1l0.2-0.1l0.1,3.1c-0.1,0-0.2,0.1-0.3,0.1c-0.1,0-0.2,0.1-0.4,0.2c-0.2,0.1-0.5,0.3-0.9,0.5
		c-0.4,0.2-0.7,0.4-0.9,0.5c-1.7,0.9-3.3,1.2-4.7,0.9c-1.4-0.3-2.5-1.1-3.2-2.5c-0.6-1.1-0.7-2.2-0.2-3.3c0.5-1,1.4-1.9,2.9-2.7
		c0.3-0.2,0.7-0.3,1.2-0.5c0.5-0.2,0.8-0.3,1-0.4c0.2-0.1,0.3-0.2,0.4-0.3c0.1-0.1,0.2-0.2,0.3-0.4l1.9,2l-0.2,0.1
		c-0.6-0.4-1.2-0.5-1.9-0.5c-0.7,0-1.3,0.2-2,0.5c-1,0.5-1.6,1.2-1.9,2c-0.3,0.8-0.3,1.7,0.2,2.5c0.6,1.1,1.5,1.8,2.7,2.1
		c1.2,0.3,2.4,0.2,3.7-0.5c0.7-0.3,1.2-0.8,1.5-1.4C-164.5,280.6-164.3,279.9-164.3,279.1"/>
	<path class="st2" d="M-160.9,281.1l0,0.2l-3.2,0.4l0-0.2c0.6-0.2,1.1-0.8,1.4-1.8l0-0.1l1.9-6.2c0-0.1,0-0.1,0-0.2
		c0-0.1,0-0.1,0-0.2c0-0.1-0.1-0.2-0.1-0.2c-0.1-0.1-0.2-0.1-0.4-0.1l0-0.2l3.4-0.4l0,0.2c-0.1,0.1-0.2,0.1-0.3,0.2
		c-0.1,0.1-0.1,0.2-0.1,0.3c0,0.1,0,0.1,0,0.2c0,0.1,0.1,0.1,0.1,0.2l3.4,5.8c0.3,0.5,0.5,0.8,0.7,1c0.2,0.1,0.4,0.2,0.7,0.2l0,0.2
		l-3.7,0.5l0-0.2c0.2-0.1,0.4-0.2,0.5-0.4c0.1-0.1,0.1-0.3,0.1-0.5c-0.1-0.7-0.6-1.3-1.4-1.7c-0.9-0.4-1.9-0.6-3.3-0.6l-0.7,2.3
		c-0.1,0.2-0.1,0.4-0.1,0.5c0,0.1,0,0.3,0,0.4c0,0.2,0.1,0.4,0.3,0.4C-161.4,281.1-161.2,281.1-160.9,281.1 M-160.8,276.7
		c0.7,0,1.3,0,1.8,0c0.5,0.1,0.9,0.2,1.3,0.4l-2.2-3.7L-160.8,276.7z"/>
	<path class="st2" d="M-153.6,280.5l0-0.2c0.4,0,0.7,0,0.8-0.2c0.2-0.2,0.3-0.5,0.4-1.1l1-5.2c0.1-0.6,0.1-1,0-1.2
		c-0.1-0.2-0.4-0.4-0.7-0.5l0-0.2l6.7,1.3c0.2,0,0.4,0.1,0.6,0.1c0.2,0,0.3-0.1,0.4-0.1l0.3,2.9l-0.2,0c-0.2-0.7-0.7-1.3-1.3-1.7
		c-0.6-0.5-1.5-0.8-2.5-1c-0.5-0.1-0.9-0.1-1.1,0c-0.2,0.1-0.3,0.3-0.4,0.8l-0.2,0.8l1.2,0.2c0.6,0.1,1.1,0.1,1.3,0.1
		c0.3-0.1,0.4-0.3,0.6-0.6l0.2,0l0,3.1l-0.2,0c-0.1-0.6-0.4-1-0.7-1.3c-0.3-0.3-0.9-0.5-1.6-0.6l-1-0.2l-0.7,3.8
		c-0.1,0.6-0.1,1,0,1.2c0.1,0.2,0.4,0.3,0.7,0.4l0,0.2L-153.6,280.5z"/>
	<path class="st2" d="M-146.4,281.8l0.1-0.2c0.4,0.2,0.6,0.2,0.9,0.1c0.2-0.1,0.5-0.4,0.8-1l2.5-4.7c0.3-0.6,0.4-0.9,0.4-1.2
		c0-0.2-0.2-0.4-0.6-0.6l0.1-0.2l5.9,3c0.2,0.1,0.4,0.2,0.6,0.2c0.2,0,0.3,0,0.4,0l-0.6,2.9l-0.2-0.1c0-0.7-0.3-1.3-0.7-2
		c-0.5-0.6-1.1-1.2-1.9-1.6c-0.5-0.2-0.8-0.3-1-0.3c-0.2,0-0.4,0.2-0.6,0.6l-0.4,0.7l1.1,0.5c0.6,0.3,1,0.4,1.2,0.4
		c0.3,0,0.5-0.1,0.7-0.4l0.2,0.1l-0.9,3l-0.2-0.1c0-0.6,0-1.1-0.3-1.5c-0.2-0.4-0.7-0.7-1.3-1l-0.8-0.4l-1.7,3.3
		c-0.3,0.5-0.3,0.9-0.2,1.1c0.1,0.2,0.5,0.5,1.1,0.8c0.9,0.4,1.8,0.6,2.7,0.6c0.9,0,1.8-0.3,2.7-0.9l0.2,0.1l-2.8,2.4
		c-0.1-0.1-0.2-0.2-0.3-0.3c-0.1-0.1-0.3-0.2-0.5-0.3L-146.4,281.8z M-139.1,274.7l2.9-0.7c0.2,0,0.4-0.1,0.5-0.1
		c0.2,0,0.3,0,0.4,0.1c0.1,0.1,0.3,0.2,0.3,0.3c0.1,0.1,0.1,0.3,0,0.4c-0.1,0.1-0.1,0.2-0.3,0.2c-0.1,0-0.3,0.1-0.6,0l-2.7-0.1
		L-139.1,274.7z"/>
	<path class="st2" d="M-187.5,325.6l0.1-0.1c0.3,0.3,0.5,0.4,0.7,0.4c0.2,0,0.6-0.2,1.1-0.5l4.3-3.4c0.5-0.4,0.7-0.7,0.8-0.9
		c0-0.2,0-0.5-0.3-0.8l0.1-0.1l2.6,3.2c0.5,0.6,0.9,1.3,1.2,1.9c0.3,0.6,0.5,1.2,0.6,1.8c0.1,0.9,0.1,1.8-0.2,2.5
		c-0.3,0.8-0.7,1.4-1.4,1.9c-0.5,0.4-1,0.6-1.5,0.7c-0.6,0.1-1.1,0.1-1.7-0.1c-0.6-0.2-1.1-0.4-1.6-0.8c-0.5-0.4-1-0.9-1.6-1.7
		L-187.5,325.6z M-184.2,326.7c-0.5,0.4-0.7,0.7-0.7,0.9c0,0.2,0.3,0.6,0.7,1.2c0.8,1,1.7,1.6,2.6,1.8c0.9,0.2,1.8,0,2.6-0.7
		c0.9-0.7,1.4-1.6,1.5-2.8c0.1-1.2-0.2-2.3-1-3.2c-0.3-0.4-0.6-0.6-0.9-0.7c-0.3-0.1-0.6,0.1-1,0.4L-184.2,326.7z"/>
	<path class="st2" d="M-178.2,336l0.1-0.2c0.3,0.2,0.6,0.2,0.9,0.1c0.2-0.1,0.5-0.4,0.8-0.9l2.8-4.5c0.3-0.5,0.5-0.9,0.4-1.1
		c0-0.2-0.2-0.5-0.5-0.7l0.1-0.2l5.6,3.4c0.2,0.1,0.4,0.2,0.6,0.3c0.2,0,0.3,0.1,0.4,0l-0.8,2.9l-0.2-0.1c0-0.7-0.2-1.4-0.6-2
		c-0.4-0.7-1-1.2-1.8-1.7c-0.5-0.3-0.8-0.4-1-0.4c-0.2,0-0.4,0.2-0.6,0.6l-0.4,0.7l1,0.6c0.5,0.3,0.9,0.5,1.2,0.5
		c0.3,0,0.5-0.1,0.7-0.3l0.2,0.1l-1.1,2.9l-0.2-0.1c0.1-0.6,0-1.1-0.2-1.5c-0.2-0.4-0.6-0.7-1.2-1.1l-0.8-0.5l-1.9,3.1
		c-0.3,0.5-0.4,0.9-0.3,1.1c0.1,0.3,0.5,0.6,1,0.9c0.8,0.5,1.7,0.8,2.6,0.8c0.9,0,1.8-0.2,2.7-0.7l0.2,0.1l-3,2.2
		c-0.1-0.1-0.2-0.2-0.3-0.3c-0.1-0.1-0.3-0.2-0.5-0.3L-178.2,336z"/>
	<path class="st2" d="M-164.4,340.7c-0.1,0.6-0.2,1,0,1.2c0.1,0.2,0.3,0.4,0.7,0.5l0,0.2l-3.8-0.8l0-0.2c0.4,0.1,0.7,0,0.9-0.1
		c0.2-0.1,0.3-0.5,0.5-1.1l1.2-5.2c0.1-0.6,0.2-1,0-1.2c-0.1-0.2-0.3-0.4-0.7-0.5l0-0.2l6.2,1.3c0.7,0.2,1.3,0.4,1.6,0.7
		c0.3,0.3,0.4,0.7,0.3,1.1c-0.1,0.4-0.3,0.7-0.7,1c-0.4,0.2-1.1,0.5-2,0.7c0.4,0.6,0.8,1.3,1.1,2c0.3,0.7,0.5,1.4,0.7,2.1
		c0,0.1,0,0.2,0.1,0.3c0.1,0.7,0.4,1.1,0.9,1.3l0,0.2l-3.4-0.7l0-0.2c0.2,0,0.4-0.1,0.5-0.1c0.1-0.1,0.1-0.1,0.2-0.3
		c0.1-0.4,0-1-0.3-1.7c-0.3-0.7-0.8-1.6-1.4-2.6c-0.2,0-0.5,0-0.7,0.1c-0.3,0-0.6,0-1.1,0L-164.4,340.7z M-163.7,337.7
		c1.4,0,2.4-0.1,3-0.4c0.7-0.2,1-0.5,1.1-1c0.1-0.4,0-0.7-0.3-0.9c-0.3-0.2-0.8-0.4-1.5-0.6c-0.7-0.1-1.1-0.2-1.4-0.1
		c-0.2,0.1-0.4,0.3-0.5,0.7L-163.7,337.7z"/>
	<path class="st2" d="M-155.8,343.8l0-0.2c0.4-0.1,0.6-0.2,0.8-0.4c0.1-0.2,0.2-0.6,0.1-1.2l-0.6-5.3c-0.1-0.6-0.2-1-0.4-1.2
		c-0.2-0.2-0.4-0.2-0.8-0.2l0-0.2l6.6-0.7c0.2,0,0.4-0.1,0.6-0.1c0.2-0.1,0.3-0.1,0.4-0.2l1.2,2.7l-0.2,0c-0.4-0.6-1-1-1.7-1.2
		c-0.7-0.3-1.6-0.4-2.5-0.3c-0.5,0.1-0.9,0.2-1,0.3c-0.2,0.1-0.2,0.4-0.2,0.8l0.1,0.8l1.2-0.1c0.6-0.1,1.1-0.2,1.3-0.3
		c0.2-0.1,0.3-0.4,0.4-0.7l0.2,0l0.9,2.9l-0.2,0c-0.3-0.6-0.7-0.9-1.1-1.1c-0.4-0.2-0.9-0.2-1.7-0.1l-0.9,0.1l0.4,3.7
		c0.1,0.6,0.2,0.9,0.5,1.1c0.3,0.1,0.7,0.2,1.4,0.1c1-0.1,1.8-0.4,2.5-0.9c0.7-0.5,1.3-1.2,1.7-2.2l0.2,0l-1,3.5
		c-0.1,0-0.2-0.1-0.4-0.1c-0.1,0-0.3,0-0.6,0L-155.8,343.8z"/>
	<path class="st2" d="M-143.6,342.1l-0.1-0.2c0.3-0.2,0.5-0.4,0.6-0.6c0.1-0.2-0.1-0.6-0.3-1.1l-2.5-4.8c-0.3-0.5-0.5-0.8-0.7-0.9
		c-0.2-0.1-0.5-0.1-0.9,0.1l-0.1-0.2l3.8-1.9c0.7-0.4,1.4-0.6,2.1-0.8c0.7-0.2,1.3-0.2,1.9-0.2c0.9,0,1.8,0.3,2.5,0.7
		c0.7,0.4,1.3,1,1.6,1.7c0.3,0.5,0.4,1,0.4,1.6c0,0.6-0.2,1.1-0.5,1.6c-0.3,0.5-0.7,1-1.1,1.4c-0.5,0.4-1.1,0.8-2,1.2L-143.6,342.1z
		 M-141.8,339.2c0.3,0.5,0.5,0.8,0.8,0.8c0.2,0,0.7-0.1,1.3-0.5c1.2-0.6,1.9-1.3,2.3-2.2c0.4-0.9,0.3-1.8-0.1-2.7
		c-0.5-1-1.4-1.7-2.5-2c-1.2-0.3-2.3-0.2-3.4,0.3c-0.5,0.2-0.7,0.5-0.8,0.7c-0.1,0.2,0,0.6,0.2,1L-141.8,339.2z"/>
	<path class="st2" d="M-134.9,326.4l0.1,0.1c-0.3,0.3-0.4,0.5-0.4,0.8c0,0.2,0.2,0.6,0.6,1l3.7,4c0.4,0.4,0.7,0.7,0.9,0.7
		c0.2,0,0.5-0.1,0.8-0.3l0.1,0.1l-2.9,2.6l-0.1-0.1c0.3-0.3,0.4-0.5,0.4-0.8c0-0.2-0.2-0.6-0.6-1l-3.7-4c-0.4-0.4-0.7-0.7-1-0.7
		c-0.2,0-0.5,0.1-0.8,0.3l-0.1-0.1L-134.9,326.4z"/>
	<path class="st2" d="M-126.1,329.3l0.2,0.1l-1.8,2.6l-0.2-0.1c0.3-0.6,0.1-1.3-0.4-2.2l0,0l-3.5-5.5c0-0.1-0.1-0.1-0.1-0.2
		c0,0-0.1-0.1-0.1-0.1c-0.1-0.1-0.2-0.1-0.3-0.1c-0.1,0-0.2,0.1-0.3,0.2l-0.2-0.1l1.9-2.8l0.2,0.1c0,0.2-0.1,0.3,0,0.4
		c0,0.1,0.1,0.2,0.2,0.2c0,0,0.1,0.1,0.2,0.1c0.1,0,0.1,0,0.2,0l6.7,1.3c0.6,0.1,1,0.1,1.2,0.1c0.2-0.1,0.4-0.2,0.6-0.4l0.2,0.1
		l-2.1,3l-0.2-0.1c0.1-0.2,0.1-0.4,0-0.6c0-0.2-0.2-0.3-0.3-0.4c-0.6-0.4-1.4-0.4-2.3-0.1c-0.9,0.4-1.7,1-2.6,2l1.3,2
		c0.1,0.2,0.2,0.3,0.3,0.4c0.1,0.1,0.2,0.2,0.3,0.3c0.2,0.1,0.3,0.1,0.5,0.1C-126.5,329.7-126.3,329.5-126.1,329.3 M-129.4,326.4
		c0.4-0.6,0.8-1,1.2-1.3c0.4-0.3,0.8-0.5,1.2-0.7l-4.2-0.8L-129.4,326.4z"/>
	<path class="st1" d="M-165.7,285.7l5.1-3.5l8.3-0.3c0,0,6.9,2,7.6,1.8l0.1,6.5c0,0,2.9,1.1,0.2,3.7l0.2,10.8l2.2,0.8
		c0,0-0.4,4.2,2.2,5.8l2.1,1.5l-2,1.8l0.3,12.2l-0.1,1.8l-11.5,3.6c0,0-3.6,1.3-4.2-0.1c0,0-1,1.8-4,0.1c0,0-1.4-0.1-3.1-1.9
		c0,0-1.6,1.5-2.8,0.5l-1.8-0.8c0,0-2.1-1.2-2.9-0.9l0.4-15.1c0,0-1.7-0.1-1.4-2.7c0,0,2.6-1.3,2.7-2.7l-0.1-2.7l2.6-0.2l0.4-11.5
		c0,0-2.7-1.4-0.5-4L-165.7,285.7z"/>
	<path class="st3" d="M-156.9,333.4c-0.7,0-1.6-0.2-2.4-0.7c-0.4-0.1-1.6-0.4-3-1.8c-0.4,0.3-1.1,0.7-1.8,0.7
		c-0.4,0-0.9-0.1-1.2-0.4l-1.8-0.7c-0.5-0.3-1.7-0.9-2.4-0.9c-0.1,0-0.2,0-0.2,0l-0.7,0.3l0.4-15.5c-0.2-0.1-0.6-0.3-0.9-0.6
		c-0.5-0.6-0.7-1.4-0.6-2.5l0-0.2l0.2-0.1c0.6-0.3,2.4-1.4,2.5-2.3l-0.1-3.1l2.6-0.2l0.4-10.8c-0.4-0.3-1.1-0.9-1.3-1.8
		c-0.2-0.8,0.1-1.7,0.8-2.5l0.1-4.7l5.4-3.7l8.5-0.3l0.1,0c1.7,0.5,6.3,1.8,7.2,1.8l0.6-0.2l0,0.6l0.1,6.3c0.4,0.2,1.1,0.7,1.3,1.6
		c0.2,0.8-0.2,1.7-1.1,2.6l0.2,10.3l2.2,0.8l0,0.3c0,0-0.3,4,2,5.4l2.5,1.9l-2.2,2l0.3,12l-0.2,2.1l-11.7,3.7
		c-0.1,0-1.6,0.6-2.9,0.6c-0.7,0-1.2-0.2-1.5-0.4C-155.5,333.1-156.1,333.4-156.9,333.4 M-162.3,329.7l0.3,0.3
		c1.5,1.6,2.8,1.8,2.8,1.8l0.1,0l0.1,0c0.8,0.4,1.5,0.7,2.1,0.7c1,0,1.4-0.6,1.4-0.6l0.5-0.8l0.3,0.8c0.1,0.3,0.6,0.4,1,0.4
		c1.1,0,2.6-0.5,2.6-0.5l11.2-3.5l0.1-1.5l-0.3-12.3l1.7-1.6l-1.7-1.2c-2.4-1.4-2.4-4.7-2.4-5.8l-2.2-0.8l-0.2-11.3l0.1-0.1
		c0.8-0.7,1.1-1.4,1-1.9c-0.1-0.7-1-1.1-1-1.1l-0.3-0.1l-0.1-6.4c-1.6-0.2-6.3-1.6-7.2-1.8l-8.1,0.3l-4.8,3.3l-0.1,4.5l-0.1,0.1
		c-0.6,0.7-0.8,1.3-0.7,1.9c0.2,0.9,1.1,1.4,1.1,1.4l0.2,0.1l0,0.3l-0.4,11.9l-2.6,0.2l0.1,2.3l0,0c-0.1,1.4-2.1,2.5-2.8,2.9
		c0,0.7,0.1,1.3,0.4,1.6c0.3,0.3,0.7,0.4,0.7,0.4l0.4,0l-0.4,15c1,0,2.5,0.9,2.7,1l1.9,0.8c0.2,0.2,0.4,0.3,0.7,0.3
		c0.8,0,1.5-0.7,1.5-0.7L-162.3,329.7z"/>
	<path class="st3" d="M-148.5,331.6l0.1-12.8l0-0.1c0-0.1,0.8-1.3,1.9-1.3c0.6,0,1.2,0.4,1.8,1.3l0,0.1l0.7,11.4L-148.5,331.6z
		 M-147.8,319l-0.1,11.8l3.3-1l-0.6-10.8c-0.4-0.6-0.8-0.9-1.2-0.9C-147.1,318.1-147.6,318.7-147.8,319"/>
	<path class="st3" d="M-154.4,287.8h-2.6l-1.3-1l-0.3-2.1l1.8-1.3h2.4l1.6,1.3l-0.2,1.9L-154.4,287.8z M-156.7,287.2h2.1l1-0.9
		l0.1-1.4l-1.2-1h-1.9l-1.3,1l0.2,1.5L-156.7,287.2z"/>
	<path class="st3" d="M-155.7,286.7c-0.7,0-1.3-0.5-1.3-1.1c0-0.6,0.6-1.1,1.3-1.1c0.7,0,1.3,0.5,1.3,1.1
		C-154.4,286.2-155,286.7-155.7,286.7 M-155.7,285c-0.4,0-0.7,0.2-0.7,0.5c0,0.3,0.3,0.5,0.7,0.5c0.4,0,0.7-0.2,0.7-0.5
		C-155,285.2-155.3,285-155.7,285"/>
	<path class="st3" d="M-147.9,287.9c-0.6,0-1-0.4-1-0.9c0-0.5,0.5-0.9,1-0.9c0.6,0,1,0.4,1,0.9
		C-146.9,287.4-147.4,287.9-147.9,287.9 M-147.9,286.6c-0.2,0-0.4,0.1-0.4,0.3c0,0.2,0.2,0.3,0.4,0.3c0.2,0,0.4-0.1,0.4-0.3
		C-147.5,286.8-147.7,286.6-147.9,286.6"/>
	<path class="st3" d="M-162.6,288.2c-0.6,0-1-0.4-1-0.9s0.5-0.9,1-0.9c0.6,0,1,0.4,1,0.9S-162,288.2-162.6,288.2 M-162.6,287
		c-0.2,0-0.4,0.1-0.4,0.3c0,0.2,0.2,0.3,0.4,0.3c0.2,0,0.4-0.1,0.4-0.3C-162.2,287.2-162.4,287-162.6,287"/>
	<path class="st3" d="M-147,289l-1.8-0.1l-1.2-1.4l0.1-2.1l1-0.7l2.1,0.2l0.9,1.3l-0.1,1.9L-147,289z M-148.4,288.4l1.3,0l0.6-0.5
		l0.1-1.4l-0.6-1l-1.6-0.2l-0.6,0.4l0,1.6L-148.4,288.4z"/>
	<path class="st3" d="M-163.1,289.3l-1.3-0.8l-0.2-1.8l1-1.1l1.4-0.3l1.4,0.6l0.2,2l-0.8,1.1L-163.1,289.3z M-163.8,288.2l0.9,0.5
		l1.2-0.2l0.5-0.8l-0.1-1.4l-0.9-0.4l-1,0.3l-0.7,0.7L-163.8,288.2z"/>
	<path class="st3" d="M-149.9,325.9c-0.9,0-1.6-0.9-1.6-2c0-1.1,0.7-2,1.6-2c0.9,0,1.6,0.9,1.6,2C-148.3,325-149,325.9-149.9,325.9
		 M-149.9,322.2c-0.7,0-1.3,0.8-1.3,1.7c0,0.9,0.6,1.7,1.3,1.7c0.7,0,1.3-0.8,1.3-1.7C-148.6,323-149.2,322.2-149.9,322.2"/>
	<path class="st3" d="M-143.4,325.1c-0.8,0-1.5-0.9-1.5-2.1c0-1.2,0.7-2.1,1.5-2.1c0.8,0,1.5,0.9,1.5,2.1
		C-141.9,324.2-142.6,325.1-143.4,325.1 M-143.4,321.2c-0.7,0-1.2,0.8-1.2,1.8c0,1,0.6,1.8,1.2,1.8c0.7,0,1.2-0.8,1.2-1.8
		C-142.2,322.1-142.7,321.2-143.4,321.2"/>
	<path class="st3" d="M-150.4,325.5c-0.5,0-1-0.6-1-1.3c0-0.7,0.4-1.3,1-1.3c0.5,0,1,0.6,1,1.3
		C-149.4,324.9-149.9,325.5-150.4,325.5 M-150.4,323.1c-0.4,0-0.7,0.5-0.7,1c0,0.6,0.3,1,0.7,1c0.4,0,0.7-0.5,0.7-1
		C-149.7,323.6-150.1,323.1-150.4,323.1"/>
	<path class="st3" d="M-143.8,324.3c-0.5,0-0.9-0.6-0.9-1.3c0-0.7,0.4-1.3,0.9-1.3c0.5,0,0.9,0.6,0.9,1.3
		C-142.8,323.8-143.3,324.3-143.8,324.3 M-143.8,322.1c-0.3,0-0.6,0.4-0.6,1c0,0.5,0.3,1,0.6,1c0.3,0,0.6-0.4,0.6-1
		C-143.1,322.5-143.4,322.1-143.8,322.1"/>
	<path class="st3" d="M-151.3,313.8c-0.6,0-1.1-0.7-1.1-1.7s0.5-1.7,1.1-1.7c0.6,0,1.1,0.7,1.1,1.7S-150.7,313.8-151.3,313.8
		 M-151.3,310.8c-0.4,0-0.8,0.6-0.8,1.4c0,0.7,0.3,1.4,0.8,1.4c0.4,0,0.8-0.6,0.8-1.4C-150.5,311.4-150.9,310.8-151.3,310.8"/>
	<path class="st3" d="M-148.6,313.7c-0.6,0-1-0.7-1-1.5c0-0.8,0.4-1.5,1-1.5c0.6,0,1,0.7,1,1.5C-147.6,313-148,313.7-148.6,313.7
		 M-148.6,311c-0.4,0-0.7,0.6-0.7,1.2c0,0.7,0.3,1.2,0.7,1.2c0.4,0,0.7-0.6,0.7-1.2C-147.9,311.5-148.2,311-148.6,311"/>
	<path class="st3" d="M-145.9,313.8c-0.5,0-0.9-0.6-0.9-1.4c0-0.8,0.4-1.4,0.9-1.4c0.5,0,0.9,0.6,0.9,1.4
		C-145,313.1-145.4,313.8-145.9,313.8 M-145.9,311.2c-0.3,0-0.6,0.5-0.6,1.2c0,0.6,0.3,1.2,0.6,1.2c0.3,0,0.6-0.5,0.6-1.2
		C-145.3,311.7-145.6,311.2-145.9,311.2"/>
	<path class="st3" d="M-143.5,313.6c-0.5,0-0.9-0.5-0.9-1.2c0-0.7,0.4-1.2,0.9-1.2s0.9,0.5,0.9,1.2
		C-142.6,313-143,313.6-143.5,313.6 M-143.5,311.4c-0.3,0-0.6,0.4-0.6,0.9c0,0.5,0.3,0.9,0.6,0.9c0.3,0,0.6-0.4,0.6-0.9
		C-142.9,311.8-143.2,311.4-143.5,311.4"/>
	<path class="st3" d="M-144.3,316.4c-0.5,0-0.9-0.5-0.9-1.2s0.4-1.2,0.9-1.2c0.5,0,0.9,0.5,0.9,1.2S-143.8,316.4-144.3,316.4
		 M-144.3,314.3c-0.3,0-0.6,0.4-0.6,0.9c0,0.5,0.3,0.9,0.6,0.9c0.3,0,0.6-0.4,0.6-0.9C-143.8,314.7-144,314.3-144.3,314.3"/>
	<path class="st3" d="M-147.3,316.4c-0.5,0-0.9-0.5-0.9-1.2s0.4-1.2,0.9-1.2c0.5,0,0.9,0.5,0.9,1.2S-146.8,316.4-147.3,316.4
		 M-147.3,314.3c-0.3,0-0.6,0.4-0.6,0.9c0,0.5,0.3,0.9,0.6,0.9c0.3,0,0.6-0.4,0.6-0.9C-146.8,314.7-147,314.3-147.3,314.3"/>
	<path class="st3" d="M-150,316.7c-0.5,0-0.9-0.5-0.9-1.2s0.4-1.2,0.9-1.2c0.5,0,0.9,0.5,0.9,1.2S-149.5,316.7-150,316.7
		 M-150,314.5c-0.3,0-0.6,0.4-0.6,0.9c0,0.5,0.3,0.9,0.6,0.9c0.3,0,0.6-0.4,0.6-0.9C-149.5,314.9-149.7,314.5-150,314.5"/>
	<path class="st3" d="M-165.4,291.8c0.7-0.6,1.5-1,2.3-1.4c0.8-0.3,1.7-0.6,2.6-0.8c1.8-0.4,3.6-0.6,5.4-0.6c1.8,0,3.6,0.2,5.4,0.5
		c0.9,0.2,1.8,0.4,2.6,0.6c0.8,0.3,1.7,0.6,2.5,1c-0.9-0.2-1.7-0.4-2.6-0.5c-0.9-0.2-1.7-0.4-2.6-0.6c-1.7-0.3-3.5-0.5-5.3-0.5
		c-1.8,0-3.5,0.2-5.2,0.6c-0.9,0.2-1.7,0.4-2.5,0.8C-163.7,291.1-164.6,291.4-165.4,291.8"/>
	<path class="st3" d="M-165.4,293c0.7-0.6,1.5-1,2.3-1.4c0.8-0.3,1.7-0.6,2.6-0.8c1.8-0.4,3.6-0.6,5.4-0.6c1.8,0,3.6,0.2,5.4,0.5
		c0.9,0.2,1.8,0.4,2.6,0.6c0.8,0.3,1.7,0.6,2.5,1c-0.9-0.2-1.7-0.4-2.6-0.5c-0.9-0.2-1.7-0.4-2.6-0.6c-1.7-0.3-3.5-0.5-5.3-0.5
		c-1.8,0-3.5,0.2-5.2,0.6c-0.9,0.2-1.7,0.4-2.5,0.8C-163.7,292.4-164.6,292.7-165.4,293"/>
	<path class="st3" d="M-145.6,306.8l2.4,0c0,0-1.2,3.1,3.4,6.4c0,0-4.7-2.5-4.3-5.9L-145.6,306.8z"/>
	<path class="st3" d="M-163.7,306.3l2.8-0.4c0,0,1.5,4.2,4.2,3.6c0,0,2.5-0.6,3.6-3.6l3.4,0c0,0-2.9,0.4-3,0.4c0,0-0.5,1-0.5,1.1
		c-1.2,2-4.3,4.7-6.6,2.7c-0.6-0.5-1.3-1.4-1.4-2.1l-0.4-1.5L-163.7,306.3z"/>
	<path class="st3" d="M-151.1,312.3c0,0.6-0.2,1.2-0.5,1.2c-0.3,0-0.5-0.5-0.5-1.2c0-0.6,0.2-1.2,0.5-1.2
		C-151.3,311.1-151.1,311.7-151.1,312.3"/>
	<path class="st3" d="M-148.4,312.3c0,0.6-0.2,1-0.5,1c-0.3,0-0.5-0.5-0.5-1c0-0.6,0.2-1,0.5-1
		C-148.6,311.3-148.4,311.7-148.4,312.3"/>
	<path class="st3" d="M-150.6,308.6c0,0.2-0.2,0.4-0.5,0.4c-0.3,0-0.5-0.2-0.5-0.4c0-0.2,0.2-0.4,0.5-0.4
		C-150.8,308.2-150.6,308.4-150.6,308.6"/>
	<path class="st3" d="M-151.8,309.7c0,0.2-0.2,0.4-0.3,0.4c-0.2,0-0.3-0.2-0.3-0.4c0-0.2,0.2-0.4,0.3-0.4
		C-152,309.2-151.8,309.4-151.8,309.7"/>
	<path class="st3" d="M-153.2,310.3c0,0.3-0.2,0.6-0.3,0.6c-0.2,0-0.3-0.2-0.3-0.6c0-0.3,0.2-0.6,0.3-0.6
		C-153.4,309.7-153.2,309.9-153.2,310.3"/>
	<path class="st3" d="M-153.9,311.1c0,0.3-0.2,0.6-0.4,0.6c-0.2,0-0.4-0.3-0.4-0.6c0-0.3,0.2-0.6,0.4-0.6
		C-154.1,310.5-153.9,310.7-153.9,311.1"/>
	<path class="st3" d="M-153.1,313.9c0,0.3-0.3,0.6-0.6,0.6c-0.3,0-0.6-0.3-0.6-0.6c0-0.3,0.3-0.6,0.6-0.6
		C-153.4,313.3-153.1,313.6-153.1,313.9"/>
	<path class="st3" d="M-155,315.4c0,0.3-0.3,0.6-0.6,0.6c-0.3,0-0.6-0.3-0.6-0.6s0.3-0.6,0.6-0.6C-155.2,314.8-155,315.1-155,315.4"
		/>
	<path class="st3" d="M-151.6,315.6c0,0.3-0.2,0.5-0.5,0.5c-0.3,0-0.5-0.2-0.5-0.5c0-0.3,0.2-0.5,0.5-0.5
		C-151.8,315.1-151.6,315.3-151.6,315.6"/>
	<path class="st3" d="M-151.2,316.9c0,0.3-0.2,0.5-0.5,0.5c-0.3,0-0.5-0.2-0.5-0.5c0-0.3,0.2-0.5,0.5-0.5
		C-151.4,316.4-151.2,316.6-151.2,316.9"/>
	<path class="st3" d="M-153.7,318.1c0,0.3-0.2,0.5-0.5,0.5c-0.3,0-0.5-0.2-0.5-0.5c0-0.3,0.2-0.5,0.5-0.5
		C-153.9,317.6-153.7,317.8-153.7,318.1"/>
	<path class="st3" d="M-140.8,321.8c0,0.3-0.2,0.5-0.5,0.5c-0.3,0-0.5-0.2-0.5-0.5c0-0.3,0.2-0.5,0.5-0.5
		C-141,321.3-140.8,321.5-140.8,321.8"/>
	<path class="st3" d="M-140.8,318.7c0,0.3-0.2,0.5-0.5,0.5c-0.3,0-0.5-0.2-0.5-0.5c0-0.3,0.2-0.5,0.5-0.5
		C-141,318.1-140.8,318.4-140.8,318.7"/>
	<path class="st3" d="M-142,316c0,0.3-0.2,0.5-0.5,0.5c-0.3,0-0.5-0.2-0.5-0.5c0-0.3,0.2-0.5,0.5-0.5
		C-142.2,315.5-142,315.7-142,316"/>
	<path class="st3" d="M-141,313c0,0.3-0.2,0.5-0.5,0.5c-0.3,0-0.5-0.2-0.5-0.5c0-0.3,0.2-0.5,0.5-0.5
		C-141.2,312.5-141,312.8-141,313"/>
	<path class="st3" d="M-142.4,319.2c0,0.2-0.2,0.4-0.4,0.4c-0.2,0-0.4-0.2-0.4-0.4c0-0.2,0.2-0.4,0.4-0.4
		C-142.6,318.7-142.4,318.9-142.4,319.2"/>
	<path class="st3" d="M-143.6,317.5c0,0.2-0.2,0.4-0.4,0.4c-0.2,0-0.4-0.2-0.4-0.4c0-0.2,0.2-0.4,0.4-0.4
		C-143.8,317.1-143.6,317.3-143.6,317.5"/>
	<path class="st3" d="M-142.6,317.5c0,0.2-0.2,0.4-0.4,0.4c-0.2,0-0.4-0.2-0.4-0.4c0-0.2,0.2-0.4,0.4-0.4
		C-142.8,317.1-142.6,317.3-142.6,317.5"/>
	<path class="st3" d="M-141.4,320.4c0,0.3-0.2,0.5-0.5,0.5c-0.3,0-0.5-0.2-0.5-0.5c0-0.3,0.2-0.5,0.5-0.5
		C-141.6,319.9-141.4,320.1-141.4,320.4"/>
	<path class="st3" d="M-155.4,311.9c0,0.2-0.2,0.3-0.4,0.3c-0.2,0-0.4-0.2-0.4-0.3c0-0.2,0.2-0.3,0.4-0.3
		C-155.6,311.6-155.4,311.7-155.4,311.9"/>
	<path class="st3" d="M-155.3,313c0,0.2-0.2,0.3-0.4,0.3c-0.2,0-0.4-0.2-0.4-0.3s0.2-0.3,0.4-0.3
		C-155.5,312.6-155.3,312.8-155.3,313"/>
	<path class="st3" d="M-155.1,314.2c0,0.3-0.3,0.5-0.6,0.5c-0.3,0-0.6-0.2-0.6-0.5c0-0.3,0.3-0.5,0.6-0.5
		C-155.4,313.7-155.1,313.9-155.1,314.2"/>
	<path class="st3" d="M-155,317.1c0,0.2-0.3,0.4-0.6,0.4c-0.3,0-0.6-0.2-0.6-0.4c0-0.2,0.3-0.4,0.6-0.4
		C-155.3,316.7-155,316.9-155,317.1"/>
	<path class="st3" d="M-155,318c0,0.2-0.3,0.4-0.6,0.4c-0.3,0-0.6-0.2-0.6-0.4c0-0.2,0.3-0.4,0.6-0.4
		C-155.2,317.6-155,317.8-155,318"/>
	<path class="st3" d="M-155,319.1c0,0.2-0.3,0.4-0.6,0.4c-0.3,0-0.6-0.2-0.6-0.4c0-0.2,0.3-0.4,0.6-0.4
		C-155.2,318.7-155,318.8-155,319.1"/>
	<path class="st3" d="M-154.8,322.3c0,0.2-0.3,0.4-0.7,0.4c-0.4,0-0.7-0.2-0.7-0.4c0-0.2,0.3-0.4,0.7-0.4
		C-155,321.9-154.8,322.1-154.8,322.3"/>
	<path class="st3" d="M-154.5,321.1c0,0.2-0.4,0.4-0.9,0.4c-0.5,0-0.9-0.2-0.9-0.4c0-0.2,0.4-0.4,0.9-0.4
		C-154.9,320.7-154.5,320.9-154.5,321.1"/>
	<path class="st3" d="M-154.2,323.5c0,0.3-0.4,0.6-0.9,0.6c-0.5,0-0.9-0.3-0.9-0.6c0-0.3,0.4-0.6,0.9-0.6
		C-154.7,323-154.2,323.2-154.2,323.5"/>
	<path class="st3" d="M-155.2,319.9c0,0.1-0.2,0.2-0.5,0.2c-0.3,0-0.5-0.1-0.5-0.2c0-0.1,0.2-0.2,0.5-0.2
		C-155.4,319.6-155.2,319.8-155.2,319.9"/>
	<path class="st3" d="M-155,325.4c0,0.5-0.2,0.9-0.4,0.9c-0.2,0-0.4-0.4-0.4-0.9c0-0.5,0.2-0.9,0.4-0.9
		C-155.2,324.5-155,324.9-155,325.4"/>
	<path class="st3" d="M-153.4,322.2c0,0.2-0.2,0.4-0.5,0.4c-0.3,0-0.5-0.2-0.5-0.4c0-0.2,0.2-0.4,0.5-0.4
		C-153.6,321.8-153.4,322-153.4,322.2"/>
	<path class="st3" d="M-145.8,312.4c0,0.6-0.1,1-0.3,1c-0.2,0-0.4-0.4-0.5-1c0-0.6,0.1-1,0.3-1C-146,311.5-145.8,311.9-145.8,312.4"
		/>
	<path class="st3" d="M-143.4,312.4c0,0.5-0.2,0.8-0.4,0.8c-0.2,0-0.4-0.4-0.4-0.8c0-0.5,0.2-0.8,0.4-0.8
		C-143.5,311.6-143.4,312-143.4,312.4"/>
	<path class="st3" d="M-144.2,315.3c0,0.5-0.2,0.8-0.4,0.8c-0.2,0-0.4-0.4-0.4-0.8c0-0.5,0.2-0.8,0.4-0.8
		C-144.4,314.5-144.2,314.9-144.2,315.3"/>
	<path class="st3" d="M-147.2,315.3c0,0.5-0.2,0.8-0.4,0.8s-0.4-0.4-0.4-0.8c0-0.5,0.2-0.8,0.4-0.8S-147.2,314.9-147.2,315.3"/>
	<path class="st3" d="M-149.9,315.5c0,0.5-0.2,0.8-0.4,0.8c-0.2,0-0.4-0.4-0.4-0.8c0-0.5,0.2-0.8,0.4-0.8
		C-150,314.7-149.9,315.1-149.9,315.5"/>
	<path class="st3" d="M-154.7,295.5c0,0.4-0.3,0.7-0.7,0.7c-0.4,0-0.7-0.3-0.7-0.7V295c0-0.4,0.3-0.7,0.7-0.7c0.4,0,0.7,0.3,0.7,0.7
		V295.5z"/>
	<path class="st3" d="M-156.8,292.7c0,0.4-0.3,0.7-0.7,0.7c-0.4,0-0.7-0.3-0.7-0.7v-0.6c0-0.4,0.3-0.7,0.7-0.7
		c0.4,0,0.7,0.3,0.7,0.7V292.7z"/>
	<path class="st3" d="M-152.6,292.7c0,0.4-0.3,0.7-0.7,0.7c-0.4,0-0.7-0.3-0.7-0.7v-0.6c0-0.4,0.3-0.7,0.7-0.7
		c0.4,0,0.7,0.3,0.7,0.7V292.7z"/>
	<path class="st3" d="M-150.5,303.5c0,0.4-0.3,0.7-0.7,0.7c-0.4,0-0.7-0.3-0.7-0.7v-0.6c0-0.4,0.3-0.7,0.7-0.7
		c0.4,0,0.7,0.3,0.7,0.7V303.5z"/>
	<path class="st3" d="M-148.9,301c0,0.4-0.3,0.7-0.7,0.7c-0.4,0-0.7-0.3-0.7-0.7v-0.6c0-0.4,0.3-0.7,0.7-0.7c0.4,0,0.7,0.3,0.7,0.7
		V301z"/>
	<path class="st3" d="M-147.4,303.7c0,0.4-0.3,0.7-0.7,0.7c-0.4,0-0.7-0.3-0.7-0.7v-0.6c0-0.4,0.3-0.7,0.7-0.7
		c0.4,0,0.7,0.3,0.7,0.7V303.7z"/>
	<path class="st3" d="M-145.6,301.3c0,0.4-0.3,0.7-0.7,0.7c-0.4,0-0.7-0.3-0.7-0.7v-0.6c0-0.4,0.3-0.7,0.7-0.7
		c0.4,0,0.7,0.3,0.7,0.7V301.3z"/>
	<path class="st3" d="M-145.1,304.1c0,0.4-0.2,0.7-0.5,0.7c-0.3,0-0.5-0.3-0.5-0.7v-0.6c0-0.4,0.2-0.7,0.5-0.7
		c0.3,0,0.5,0.3,0.5,0.7V304.1z"/>
	<path class="st3" d="M-154.1,303.2c0,0.9-0.7,1.7-1.5,1.7c-0.8,0-1.5-0.8-1.5-1.7v-1.4c0-0.9,0.7-1.7,1.5-1.7
		c0.8,0,1.5,0.8,1.5,1.7V303.2z"/>
	<path class="st3" d="M-147.2,295.9c0,0.4-0.3,0.7-0.7,0.7c-0.4,0-0.7-0.3-0.7-0.7v-0.6c0-0.4,0.3-0.7,0.7-0.7
		c0.4,0,0.7,0.3,0.7,0.7V295.9z"/>
	<path class="st3" d="M-145.8,293.9c0,0.4-0.3,0.7-0.6,0.7c-0.3,0-0.6-0.3-0.6-0.7v-0.6c0-0.4,0.3-0.7,0.6-0.7
		c0.3,0,0.6,0.3,0.6,0.7V293.9z"/>
	<path class="st3" d="M-148.5,293c0,0.4-0.3,0.7-0.7,0.7c-0.4,0-0.7-0.3-0.7-0.7v-0.6c0-0.4,0.3-0.7,0.7-0.7c0.4,0,0.7,0.3,0.7,0.7
		V293z"/>
	<path class="st3" d="M-145.4,296.8c0,0.4-0.2,0.7-0.5,0.7c-0.3,0-0.5-0.3-0.5-0.7v-0.6c0-0.4,0.2-0.7,0.5-0.7
		c0.3,0,0.5,0.3,0.5,0.7V296.8z"/>
	<path class="st3" d="M-150.8,295.6c0,0.4-0.3,0.7-0.7,0.7c-0.4,0-0.7-0.3-0.7-0.7v-0.6c0-0.4,0.3-0.7,0.7-0.7
		c0.4,0,0.7,0.3,0.7,0.7V295.6z"/>
	<path class="st1" d="M-157,292.8c0,0.3-0.2,0.5-0.4,0.5c-0.2,0-0.4-0.2-0.4-0.5v-0.4c0-0.3,0.2-0.5,0.4-0.5c0.2,0,0.4,0.2,0.4,0.5
		V292.8z"/>
	<path class="st1" d="M-155,295.5c0,0.2-0.1,0.4-0.3,0.4c-0.2,0-0.3-0.2-0.3-0.4v-0.3c0-0.2,0.1-0.4,0.3-0.4c0.2,0,0.3,0.2,0.3,0.4
		V295.5z"/>
	<path class="st1" d="M-153,292.7c0,0.2-0.1,0.4-0.3,0.4c-0.2,0-0.3-0.2-0.3-0.4v-0.3c0-0.2,0.1-0.4,0.3-0.4c0.2,0,0.3,0.2,0.3,0.4
		V292.7z"/>
	<path class="st1" d="M-150.9,303.5c0,0.2-0.1,0.4-0.3,0.4c-0.2,0-0.3-0.2-0.3-0.4v-0.3c0-0.2,0.1-0.4,0.3-0.4
		c0.2,0,0.3,0.2,0.3,0.4V303.5z"/>
	<path class="st1" d="M-149.2,301c0,0.2-0.1,0.4-0.3,0.4c-0.2,0-0.3-0.2-0.3-0.4v-0.3c0-0.2,0.1-0.4,0.3-0.4c0.2,0,0.3,0.2,0.3,0.4
		V301z"/>
	<path class="st1" d="M-147.7,303.7c0,0.2-0.1,0.4-0.3,0.4c-0.2,0-0.3-0.2-0.3-0.4v-0.3c0-0.2,0.1-0.4,0.3-0.4
		c0.2,0,0.3,0.2,0.3,0.4V303.7z"/>
	<path class="st1" d="M-146,301.3c0,0.2-0.1,0.4-0.3,0.4c-0.2,0-0.3-0.2-0.3-0.4V301c0-0.2,0.1-0.4,0.3-0.4c0.2,0,0.3,0.2,0.3,0.4
		V301.3z"/>
	<path class="st1" d="M-145.3,304.2c0,0.2-0.1,0.4-0.2,0.4c-0.1,0-0.2-0.2-0.2-0.4v-0.3c0-0.2,0.1-0.4,0.2-0.4
		c0.1,0,0.2,0.2,0.2,0.4V304.2z"/>
	<path class="st1" d="M-154.5,303.1c0,0.6-0.4,1.1-0.8,1.1c-0.5,0-0.8-0.5-0.8-1.1v-0.9c0-0.6,0.4-1.1,0.8-1.1
		c0.5,0,0.8,0.5,0.8,1.1V303.1z"/>
	<path class="st1" d="M-147.5,295.9c0,0.2-0.1,0.4-0.3,0.4c-0.2,0-0.3-0.2-0.3-0.4v-0.3c0-0.2,0.1-0.4,0.3-0.4
		c0.2,0,0.3,0.2,0.3,0.4V295.9z"/>
	<path class="st1" d="M-146.1,293.9c0,0.2-0.1,0.4-0.2,0.4c-0.1,0-0.2-0.2-0.2-0.4v-0.3c0-0.2,0.1-0.4,0.2-0.4
		c0.1,0,0.2,0.2,0.2,0.4V293.9z"/>
	<path class="st1" d="M-148.8,293c0,0.2-0.1,0.4-0.3,0.4s-0.3-0.2-0.3-0.4v-0.3c0-0.2,0.1-0.4,0.3-0.4s0.3,0.2,0.3,0.4V293z"/>
	<path class="st1" d="M-145.7,296.8c0,0.2-0.1,0.4-0.2,0.4c-0.1,0-0.2-0.2-0.2-0.4v-0.3c0-0.2,0.1-0.4,0.2-0.4
		c0.1,0,0.2,0.2,0.2,0.4V296.8z"/>
	<path class="st1" d="M-151.2,294.9c-0.2,0-0.3,0.2-0.3,0.4v0.2v0.2v0.2c0,0.2,0.1,0.4,0.3,0.4c0.2,0,0.3-0.2,0.3-0.4v-0.2v-0.2
		v-0.2C-151,295.1-151.1,294.9-151.2,294.9"/>
</g>
</svg>
