<?xml version="1.0" encoding="utf-8"?>
<!-- Generator: Adobe Illustrator 19.0.0, SVG Export Plug-In . SVG Version: 6.00 Build 0)  -->
<svg version="1.1" id="Layer_1" xmlns="http://www.w3.org/2000/svg" xmlns:xlink="http://www.w3.org/1999/xlink" x="0px" y="0px"
	 viewBox="-275 257 240 100" style="enable-background:new -275 257 240 100;" xml:space="preserve">
<style type="text/css">
	.st0{fill:#17632D;}
	.st1{font-family:'Arial-BoldMT';}
	.st2{font-size:6.6194px;}
	.st3{font-family:'CopperplateGothic-Bold';}
	.st4{font-size:17.3539px;}
	.st5{letter-spacing:-1;}
</style>
<g>
	<text transform="matrix(1.0166 0 0 1 -226.746 339.0343)"><tspan x="0" y="0" class="st0 st1 st2">COOPER</tspan><tspan x="28.7" y="0" class="st0 st1 st2">A</tspan><tspan x="33" y="0" class="st0 st1 st2">TI</tspan><tspan x="38.9" y="0" class="st0 st1 st2">V</tspan><tspan x="42.8" y="0" class="st0 st1 st2">A</tspan><tspan x="47.3" y="0" class="st0 st1 st2"> CAFICU</tspan><tspan x="74.2" y="0" class="st0 st1 st2">L</tspan><tspan x="77.7" y="0" class="st0 st1 st2">T</tspan><tspan x="81.7" y="0" class="st0 st1 st2">ORES DE HEREDIA</tspan></text>
	<text transform="matrix(1 0 0 1.0409 -239.3881 325.9347)"><tspan x="0" y="0" class="st0 st3 st4">C</tspan><tspan x="14.2" y="0" class="st0 st3 st4">OOPELIBE</tspan><tspan x="115.5" y="0" class="st0 st3 st4">R</tspan><tspan x="129.7" y="0" class="st0 st3 st4 st5">T</tspan><tspan x="140.1" y="0" class="st0 st3 st4">AD</tspan></text>
	<path class="st0" d="M-155.7,273.6c0,0,9.6-3,15.3,4.2c0,0,4.3,5.6,3.5,12.9c0,0-0.5,8.7-10.2,14.1c0,0-7.9,4.4-16.8-3.2
		c0,0,6.8,11,21.7,3.4c0,0,5.7-2.8,7.8-9.6c0,0,2.3-5.5-0.2-13.1c0,0-2-7.1-8.7-9.2C-143.4,273.2-149.4,271.3-155.7,273.6"/>
	<path class="st0" d="M-158,305.3c-0.4-3.3,0.2-7.3,1.5-10.4c1.1-2.4,3-3.8,4.8-5.7c2-2.1,4.1-4.6,4.8-7.5c0.7-2.9,0.6-5.8-0.4-8.6
		c-0.3,3.9-0.7,7.3-3.4,10.4c-1.3,1.5-2.8,2.7-4.2,4.2c-1.3,1.5-2.4,3.2-3.2,5.1c-0.6,1.5-0.9,3.1-0.9,4.6c0,1.4,0.1,2.7,0.4,4.1
		C-158.3,302.8-158.1,304.1-158,305.3"/>
</g>
</svg>
