<?xml version="1.0" encoding="utf-8"?>
<!-- Generator: Adobe Illustrator 19.0.0, SVG Export Plug-In . SVG Version: 6.00 Build 0)  -->
<svg version="1.1" id="Layer_1" xmlns="http://www.w3.org/2000/svg" xmlns:xlink="http://www.w3.org/1999/xlink" x="0px" y="0px"
	 viewBox="0 0 240 100" style="enable-background:new 0 0 240 100;" xml:space="preserve">
<style type="text/css">
	.st0{fill:#FFFFFF;}
	.st1{fill:#BD1F2D;}
	.st2{fill:#1B4D92;}
</style>
<g id="XMLID_471_">
	<g id="XMLID_585_">
		<g id="XMLID_586_">
			<g id="XMLID_587_">
				<g id="XMLID_719_">
					<g id="XMLID_784_">
						<g id="XMLID_789_">
							<path id="XMLID_469_" d="M114,63.9h-1.2c-0.1,0-0.2,0-0.3,0c-0.1,0-0.1,0-0.2,0h-1.6c-0.1,0-0.3,0-0.4,0.1
								c-0.3-0.1-0.6-0.1-0.7-0.1h-2.3c-0.5,0-0.8,0.1-1.1,0.3c-0.2-0.2-0.5-0.3-1-0.3h-1.3c-0.1,0-0.2,0-0.3,0c-0.1,0-0.1,0-0.2,0
								h-1c0-0.3-0.1-0.5-0.3-0.7c-0.3-0.3-0.7-0.5-1.2-0.5h-2.4c-0.7,0-1.7,0.3-2.1,1.9l-0.4,1.9c-0.2,0.8-0.1,1.3,0.2,1.7
								c0.3,0.3,0.7,0.5,1.2,0.5h2.4c0.2,0,0.4,0,0.6-0.1l-0.1,0.5c0,0.2,0,0.4,0.1,0.6c0.1,0.2,0.3,0.3,0.6,0.3h1.7
								c0.2,0,0.4-0.1,0.6-0.3c0.1-0.2,0.2-0.4,0.1-0.6c0,0,0-0.1,0-0.3l0-0.1h1c0.4,0,0.8-0.1,1.1-0.3c0.4,0.3,0.9,0.3,1,0.3h3.1
								c0.1,0,0.1,0,0.2,0c0.1,0,0.1,0,0.2,0h1.9c0.1,0,0.3,0,0.4-0.1c0.1,0.1,0.2,0.1,0.4,0.1h1.9c0.2,0,0.4-0.1,0.6-0.3
								c0.1-0.2,0.2-0.4,0.1-0.6c0-0.1,0-0.1,0-0.4l0.3-1.4c0.2-0.7,0.1-1.2-0.2-1.6C115,64.1,114.6,63.9,114,63.9z"/>
						</g>
						<g id="XMLID_787_">
							<path id="XMLID_468_" d="M141.5,63.9h-2.3c-0.3,0-0.6,0.1-0.8,0.2c-0.1-0.1-0.3-0.2-0.4-0.2h-2.4c-0.3,0-0.5,0-0.7,0.1
								c-0.1-0.1-0.2-0.1-0.4-0.1h-0.8c-0.2,0-0.4,0-0.5,0.1c-0.1,0-0.2-0.1-0.3-0.1h-1.5c-0.1,0-0.1,0-0.2,0c-0.1,0-0.1,0-0.2,0
								h-1.7c-0.2,0-0.3,0.1-0.5,0.2c-0.1-0.1-0.3-0.2-0.5-0.2h-1.7c-0.1,0-0.3,0-0.4,0.1c-0.3-0.1-0.6-0.1-0.7-0.1h-2.4
								c-0.2,0-0.3,0-0.5,0l0-0.5c0-0.2-0.1-0.4-0.2-0.5c-0.1-0.1-0.3-0.2-0.5-0.2h-3c-0.9,0-1.6,0.6-1.8,1.7l-0.2,1
								c-0.1,0.3-0.1,0.7,0,1.1c-0.2,0.1-0.3,0.3-0.3,0.6l-0.1,0.9c0,0.2,0.1,0.4,0.2,0.5c0.1,0.1,0.3,0.2,0.5,0.2h2.9
								c0.5,0,0.9-0.1,1.2-0.4c0.4,0.4,0.9,0.4,1.1,0.4h2.4c0.5,0,0.9-0.2,1.2-0.4c0.2,0.2,0.6,0.4,1.1,0.4h1.2c0.1,0,0.2,0,0.3,0
								c0.1,0,0.1,0,0.2,0h1.6c0,0,0.1,0,0.1,0c0,0,0,0,0.1,0h1.9c0.2,0,0.4-0.1,0.6-0.3c0.1-0.2,0.2-0.4,0.1-0.6c0-0.1,0-0.1,0-0.4
								l0.2-1.1c0,0,0,0,0,0c0,0,0.1,0,0.1,0l-0.1,0.5c-0.1,0.6-0.1,1.1,0.2,1.4c0.2,0.2,0.5,0.5,1.2,0.5h2.4c0.2,0,0.3-0.1,0.5-0.2
								c0.3,0.2,0.7,0.2,0.8,0.2h3.1c0.3,0,0.6-0.2,0.7-0.5l0.3-0.8c0-0.1,0.1-0.2,0-0.3c0.1-0.1,0.1-0.2,0.1-0.3l0.2-1
								c0.1-0.4,0.2-1-0.2-1.4C142.3,63.9,141.7,63.9,141.5,63.9z"/>
						</g>
						<g id="XMLID_785_">
							<path id="XMLID_467_" d="M180.3,64.3c-0.4-0.5-1-0.5-1.2-0.5h-2.3c-0.3,0-0.5,0-0.7,0.1c-0.1-0.1-0.2-0.1-0.4-0.1H175
								c-0.2,0-0.4,0-0.5,0.1c-0.1,0-0.2-0.1-0.3-0.1h-1.5c-0.2,0-0.4,0.1-0.5,0.2c-0.4-0.2-0.7-0.2-0.9-0.2h-2.8c0,0-0.1,0-0.1,0
								c0,0-0.1,0-0.1,0h-0.8c-0.2,0-0.3,0.1-0.5,0.2c-0.1-0.1-0.3-0.2-0.5-0.2h-1.8c-0.2,0-0.3,0.1-0.5,0.2
								c-0.1-0.1-0.3-0.2-0.5-0.2h-0.9l0.1-0.3c0-0.2,0-0.4-0.1-0.6c-0.1-0.2-0.3-0.3-0.6-0.3h-1.7c-0.2,0-0.4,0.1-0.6,0.3
								c-0.1,0.2-0.2,0.4-0.1,0.6c0,0,0,0.1,0,0.3l0,0h-1c-0.3,0-0.5,0-0.7,0.1c-0.1-0.1-0.2-0.1-0.4-0.1h-0.8c-0.2,0-0.4,0-0.5,0.1
								c-0.1,0-0.2-0.1-0.3-0.1h-1.5c-0.2,0-0.4,0.1-0.5,0.2c-0.4-0.2-0.7-0.2-0.9-0.2h-2.5c0,0,0-0.1,0.1-0.1
								c0.1-0.2,0.2-0.5,0-0.7c-0.1-0.2-0.4-0.4-0.6-0.4h-1.9c-0.2,0-0.3,0.1-0.5,0.2c-0.1-0.1-0.3-0.2-0.5-0.2h-1.9
								c-0.2,0-0.4,0.1-0.6,0.3c-0.1,0.2-0.2,0.4-0.1,0.6c0,0.1,0,0.1,0,0.5l-0.7,3c-0.1,0.4-0.1,0.5-0.2,0.6
								c-0.1,0.2-0.2,0.5,0,0.7c0.1,0.2,0.4,0.4,0.6,0.4h1.9c0.2,0,0.3-0.1,0.5-0.2c0.1,0.1,0.3,0.2,0.5,0.2h1.9
								c0.2,0,0.3-0.1,0.4-0.1c0.3,0.1,0.6,0.1,0.8,0.1h1.1c0.2,0,0.3,0,0.5,0c0.1,0,0.2,0,0.2,0h1.5c0,0,0.1,0,0.1,0
								c0,0,0.1,0,0.1,0h1.9c0.2,0,0.4-0.1,0.6-0.3c0.1-0.2,0.2-0.4,0.1-0.6c0-0.1,0-0.1,0-0.4l0.2-1.1c0,0,0,0,0,0c0,0,0.1,0,0.1,0
								l-0.1,0.5c-0.1,0.6-0.1,1.1,0.2,1.4c0.2,0.2,0.5,0.5,1.2,0.5h1.3c0.1,0,0.2,0,0.2,0c0.1,0,0.1,0,0.2,0h1.5
								c0.2,0,0.3-0.1,0.4-0.1c0.1,0.1,0.3,0.1,0.4,0.1h1.6c0.2,0,0.5-0.1,0.6-0.3c0.1,0.2,0.4,0.3,0.6,0.3h1.6
								c0.3,0,0.5-0.2,0.6-0.4c0.4,0.4,0.9,0.4,1.1,0.4h1.1c0.2,0,0.3,0,0.5,0c0.1,0,0.2,0,0.2,0h1.5c0,0,0.1,0,0.1,0
								c0,0,0.1,0,0.1,0h1.9c0.2,0,0.4-0.1,0.6-0.3c0.1-0.2,0.2-0.4,0.1-0.6c0-0.1,0-0.1,0-0.4l0.2-1.1c0,0,0,0,0,0c0,0,0.1,0,0.1,0
								l-0.1,0.5c-0.1,0.4-0.2,1,0.2,1.4c0.4,0.5,1,0.5,1.2,0.5h3.1c0.3,0,0.6-0.2,0.7-0.5l0.3-0.8c0-0.1,0.1-0.2,0-0.3
								c0.1-0.1,0.1-0.2,0.1-0.3l0.2-1C180.6,65.3,180.6,64.8,180.3,64.3z"/>
						</g>
					</g>
					<g id="XMLID_720_">
						<g id="XMLID_780_">
							<path id="XMLID_781_" class="st0" d="M96.9,64.8c0.2-1,0.7-1.4,1.4-1.4h2.4c0.7,0,1,0.4,0.8,1.4l-0.4,1.9
								c-0.2,1-0.7,1.4-1.4,1.4h-2.4c-0.7,0-1-0.4-0.8-1.4L96.9,64.8z M98,67c0,0.2,0,0.3,0.2,0.3h0.7c0.2,0,0.3-0.1,0.4-0.3
								l0.6-2.5c0.1-0.2,0-0.3-0.2-0.3h-0.7c-0.2,0-0.3,0.1-0.4,0.3L98,67z"/>
						</g>
						<g id="XMLID_776_">
							<path id="XMLID_777_" class="st0" d="M103.2,64.7l0,0.4c0.2-0.2,0.3-0.4,0.5-0.4h1.3c0.7,0,0.9,0.4,0.7,1.1l-0.3,1.3
								c-0.1,0.6-0.5,1.1-1.2,1.1H103c-0.3,0-0.3-0.2-0.3-0.3h0l-0.2,1c-0.1,0.3-0.1,0.5,0,0.6h-1.7l0.9-4c0.1-0.3,0.1-0.5,0-0.6
								H103.2z M102.8,67.1c0,0.2,0,0.3,0.2,0.3h0.6c0.2,0,0.2-0.1,0.3-0.3l0.3-1.5c0-0.2,0-0.3-0.2-0.3h-0.6
								c-0.2,0-0.2,0.1-0.3,0.3L102.8,67.1z"/>
						</g>
						<g id="XMLID_772_">
							<path id="XMLID_773_" class="st0" d="M107.3,66.7l-0.1,0.3c0,0.2,0,0.3,0.3,0.3h1.5c0.3,0,0.5,0,0.7-0.1l-0.3,0.8h-3.1
								c-0.7,0-0.8-0.3-0.7-1l0.3-1.3c0.2-0.7,0.4-1,1.1-1h2.3c0.7,0,0.8,0.3,0.7,1l-0.2,1H107.3z M108.5,66.1l0.1-0.5
								c0-0.2,0-0.3-0.2-0.3h-0.6c-0.2,0-0.2,0.1-0.3,0.3l-0.1,0.5H108.5z"/>
						</g>
						<g id="XMLID_769_">
							<path id="XMLID_770_" class="st0" d="M112.2,64.7l0,0.4h0c0.1-0.2,0.2-0.4,0.5-0.4h1.2c0.7,0,0.9,0.5,0.7,1.2l-0.3,1.4
								c-0.1,0.5-0.1,0.6,0,0.8h-1.9c0.1-0.2,0.2-0.3,0.3-0.8l0.4-1.7c0-0.2,0-0.3-0.2-0.3h-0.6c-0.2,0-0.3,0.1-0.3,0.3l-0.4,1.7
								c-0.1,0.5-0.1,0.6,0,0.8h-1.9c0.1-0.2,0.2-0.3,0.3-0.8l0.4-1.8c0.1-0.5,0.1-0.6,0-0.8H112.2z"/>
						</g>
						<g id="XMLID_766_">
							<path id="XMLID_767_" class="st0" d="M121.8,64.4c-0.2-0.1-0.3-0.2-0.6-0.2h-1.5c-0.2,0-0.3,0-0.4,0.2l-0.1,0.3
								c0,0.2,0,0.2,0.3,0.2h1.1c0.7,0,1,0.3,0.8,0.9l-0.3,1.1c-0.2,0.7-0.5,1.1-1.3,1.1h-2.9l0.1-0.9c0.1,0.1,0.3,0.2,0.6,0.2h1.5
								c0.2,0,0.3,0,0.3-0.2l0.1-0.3c0-0.2,0-0.2-0.3-0.2h-1.3c-0.6,0-0.8-0.2-0.7-1l0.2-1c0.2-0.7,0.6-1.1,1.1-1.1h3L121.8,64.4z"
								/>
						</g>
						<g id="XMLID_762_">
							<path id="XMLID_763_" class="st0" d="M125.8,67c-0.2,0.7-0.4,1-1.1,1h-2.4c-0.7,0-0.8-0.3-0.7-1l0.3-1.3c0.2-0.7,0.4-1,1.1-1
								h2.4c0.7,0,0.8,0.3,0.7,1L125.8,67z M123.1,67.1c0,0.2,0,0.3,0.2,0.3h0.6c0.2,0,0.3-0.1,0.3-0.3l0.3-1.5c0-0.2,0-0.3-0.2-0.3
								h-0.6c-0.2,0-0.2,0.1-0.3,0.3L123.1,67.1z"/>
						</g>
						<g id="XMLID_759_">
							<path id="XMLID_760_" class="st0" d="M128.6,68.1l0-0.4h0c-0.1,0.2-0.2,0.4-0.5,0.4h-1.2c-0.7,0-0.9-0.5-0.7-1.2l0.3-1.4
								c0.1-0.5,0.1-0.6,0-0.8h1.7l-0.6,2.4c0,0.2,0,0.3,0.2,0.3h0.6c0.2,0,0.3-0.1,0.3-0.3l0.4-1.7c0.1-0.5,0.1-0.6,0-0.8h1.7
								l-0.6,2.6c-0.1,0.5-0.1,0.6,0,0.8H128.6z"/>
						</g>
						<g id="XMLID_756_">
							<path id="XMLID_757_" class="st0" d="M132.7,64.7l-0.1,0.5h0c0.2-0.4,0.4-0.5,0.9-0.5h0.8l-0.2,1.1c-0.2-0.1-0.2-0.2-0.7-0.2
								c-0.6,0-0.8,0.1-0.9,0.6l-0.2,1.1c-0.1,0.5-0.1,0.6,0,0.8h-1.9c0.1-0.2,0.2-0.3,0.3-0.8l0.4-1.8c0.1-0.5,0.1-0.6,0-0.8H132.7
								z"/>
						</g>
						<g id="XMLID_753_">
							<path id="XMLID_754_" class="st0" d="M135.4,67c0,0.2,0,0.3,0.3,0.3h0.8c0.5,0,0.7-0.1,0.9-0.2l-0.3,0.8h-2.4
								c-0.7,0-0.9-0.4-0.7-1.1l0.3-1.3c0.1-0.6,0.5-1.1,1.2-1.1h2.4l-0.1,0.8c-0.1-0.1-0.3-0.2-0.7-0.2h-0.9
								c-0.2,0-0.4,0.1-0.4,0.3L135.4,67z"/>
						</g>
						<g id="XMLID_749_">
							<path id="XMLID_750_" class="st0" d="M139.2,66.7l-0.1,0.3c0,0.2,0,0.3,0.3,0.3h1.5c0.3,0,0.5,0,0.7-0.1l-0.3,0.8h-3.1
								c-0.7,0-0.8-0.3-0.7-1l0.3-1.3c0.2-0.7,0.4-1,1.1-1h2.3c0.7,0,0.8,0.3,0.7,1l-0.2,1H139.2z M140.4,66.1l0.1-0.5
								c0-0.2,0-0.3-0.2-0.3h-0.6c-0.2,0-0.2,0.1-0.3,0.3l-0.1,0.5H140.4z"/>
						</g>
						<g id="XMLID_746_">
							<path id="XMLID_747_" class="st0" d="M147.8,65.3l0.2-1.1c0.1-0.4,0.1-0.6,0-0.8h1.9c-0.1,0.2-0.2,0.4-0.3,0.8l-0.7,3
								c-0.1,0.4-0.1,0.6,0,0.8H147c0.1-0.2,0.2-0.4,0.3-0.8l0.3-1.2h-1.2l-0.3,1.2c-0.1,0.4-0.1,0.6,0,0.8h-1.9
								c0.1-0.2,0.2-0.4,0.3-0.8l0.7-3c0.1-0.4,0.1-0.6,0-0.8h1.9c-0.1,0.2-0.2,0.4-0.3,0.8l-0.2,1.1H147.8z"/>
						</g>
						<g id="XMLID_742_">
							<path id="XMLID_743_" class="st0" d="M153,64.7c0.7,0,1,0.3,0.7,1.3l-0.3,1.5c-0.1,0.3-0.1,0.5,0,0.6h-1.5l0-0.4h0
								c-0.1,0.3-0.3,0.4-0.7,0.4h-1.1c-0.7,0-0.8-0.3-0.7-1l0.1-0.2c0.2-0.7,0.4-1,1.1-1h1.4c0.2,0,0.3-0.1,0.3-0.2
								c0-0.2,0-0.2-0.2-0.2h-1.5c-0.3,0-0.4,0-0.6,0.1l0.3-0.8H153z M151.4,66.4c-0.2,0-0.3,0-0.4,0.3l-0.1,0.4
								c-0.1,0.2,0,0.3,0.3,0.3h0.4c0.3,0,0.3,0,0.4-0.5l0.1-0.5H151.4z"/>
						</g>
						<g id="XMLID_739_">
							<path id="XMLID_740_" class="st0" d="M155.9,64.7l-0.1,0.5h0c0.2-0.4,0.4-0.5,0.9-0.5h0.8l-0.2,1.1c-0.2-0.1-0.2-0.2-0.7-0.2
								c-0.6,0-0.8,0.1-0.9,0.6l-0.2,1.1c-0.1,0.5-0.1,0.6,0,0.8h-1.9c0.1-0.2,0.2-0.3,0.3-0.8l0.4-1.8c0.1-0.5,0.1-0.6,0-0.8H155.9
								z"/>
						</g>
						<g id="XMLID_735_">
							<path id="XMLID_736_" class="st0" d="M159.6,68.1l0-0.4c-0.2,0.2-0.3,0.4-0.4,0.4h-1.3c-0.7,0-0.9-0.4-0.7-1.1l0.3-1.3
								c0.1-0.6,0.5-1.1,1.2-1.1h1.2c0.3,0,0.3,0.2,0.3,0.3h0l0.2-0.9c0.1-0.3,0.1-0.5,0-0.6h1.7l-0.9,4c-0.1,0.3-0.1,0.5,0,0.6
								H159.6z M160,65.6c0-0.2,0-0.3-0.2-0.3h-0.6c-0.2,0-0.2,0.1-0.3,0.3l-0.3,1.5c0,0.2,0,0.3,0.2,0.3h0.6c0.2,0,0.2-0.1,0.3-0.3
								L160,65.6z"/>
						</g>
						<g id="XMLID_732_">
							<path id="XMLID_733_" class="st0" d="M167,65.4c0.1-0.1,0.1-0.3,0.2-0.4c0-0.1,0-0.2,0-0.3h0.8c-0.2,0.2-0.4,0.6-0.5,0.8
								l-1.2,2.6h-1.6l0-2.6h0l-1.2,2.6H162l0-2.5c0-0.5,0-0.6-0.1-0.9h1.8c0,0.1-0.1,0.2-0.1,0.3c0,0.2,0,0.3,0,0.4l0,1.5h0l1-2.2
								h1.8l0,2.2h0L167,65.4z"/>
						</g>
						<g id="XMLID_728_">
							<path id="XMLID_729_" class="st0" d="M171.1,64.7c0.7,0,1,0.3,0.7,1.3l-0.3,1.5c-0.1,0.3-0.1,0.5,0,0.6H170l0-0.4h0
								c-0.1,0.3-0.3,0.4-0.7,0.4h-1.1c-0.7,0-0.8-0.3-0.7-1l0.1-0.2c0.2-0.7,0.4-1,1.1-1h1.4c0.2,0,0.3-0.1,0.3-0.2
								c0-0.2,0-0.2-0.2-0.2h-1.5c-0.3,0-0.4,0-0.6,0.1l0.3-0.8H171.1z M169.5,66.4c-0.2,0-0.3,0-0.4,0.3l-0.1,0.4
								c-0.1,0.2,0,0.3,0.3,0.3h0.4c0.3,0,0.3,0,0.4-0.5l0.1-0.5H169.5z"/>
						</g>
						<g id="XMLID_725_">
							<path id="XMLID_726_" class="st0" d="M174,64.7l-0.1,0.5h0c0.2-0.4,0.4-0.5,0.9-0.5h0.8l-0.3,1.1c-0.2-0.1-0.2-0.2-0.7-0.2
								c-0.6,0-0.8,0.1-0.9,0.6l-0.2,1.1c-0.1,0.5-0.1,0.6,0,0.8h-1.9c0.1-0.2,0.2-0.3,0.3-0.8l0.4-1.8c0.1-0.5,0.1-0.6,0-0.8H174z"
								/>
						</g>
						<g id="XMLID_721_">
							<path id="XMLID_722_" class="st0" d="M176.8,66.7l-0.1,0.3c0,0.2,0,0.3,0.3,0.3h1.5c0.3,0,0.5,0,0.7-0.1l-0.3,0.8h-3.1
								c-0.7,0-0.8-0.3-0.7-1l0.3-1.3c0.2-0.7,0.4-1,1.1-1h2.3c0.7,0,0.8,0.3,0.7,1l-0.2,1H176.8z M178.1,66.1l0.1-0.5
								c0-0.2,0-0.3-0.2-0.3h-0.6c-0.2,0-0.2,0.1-0.3,0.3l-0.1,0.5H178.1z"/>
						</g>
					</g>
				</g>
				<g id="XMLID_588_">
					<g id="XMLID_589_">
						<g id="XMLID_713_">
							<path id="XMLID_374_" class="st0" d="M65.3,48.7c-0.5-0.2-1-0.4-2.1-0.4h-3.9c-0.7,0-1.1,0.2-1.3,1l-1.9,8.1
								c-0.2,0.7,0.1,1,0.8,1h3c2.2,0,2.6-0.2,3.4-0.6l-1.2,3.1h-8.7c-2.3,0-3.3-1.2-2.5-4.4l1.5-6.2c0.8-3.2,2.3-4.4,4.6-4.4h8.5
								L65.3,48.7z"/>
							<path id="XMLID_376_" d="M62.3,61.2h-8.7c-1.2,0-2.1-0.3-2.6-1c-0.6-0.8-0.7-2.1-0.3-3.9l1.5-6.2c0.7-3.2,2.3-4.7,5-4.7h8.5
								c0.1,0,0.2,0,0.3,0.1c0.1,0.1,0.1,0.2,0.1,0.3l-0.3,2.9c0,0.1-0.1,0.2-0.2,0.3c-0.1,0.1-0.2,0.1-0.3,0
								c-0.5-0.2-0.9-0.4-1.9-0.4h-3.9c-0.6,0-0.8,0.2-0.9,0.7l-1.9,8.1c-0.1,0.3,0,0.4,0,0.4c0,0,0.1,0.1,0.5,0.1h3
								c2.1,0,2.5-0.2,3.2-0.5c0.1-0.1,0.3,0,0.4,0.1c0.1,0.1,0.1,0.3,0.1,0.4l-1.2,3.1C62.6,61.1,62.4,61.2,62.3,61.2z M57.1,46.1
								c-2.3,0-3.6,1.3-4.3,4.1l-1.5,6.2c-0.4,1.6-0.3,2.7,0.2,3.3c0.4,0.5,1,0.7,2,0.7H62l0.8-2c-0.6,0.2-1.2,0.3-2.7,0.3h-3
								c-0.3,0-0.8,0-1.1-0.4c-0.2-0.2-0.2-0.6-0.1-1l1.9-8.1c0.3-1.1,1.1-1.2,1.6-1.2h3.9c0.8,0,1.3,0.1,1.8,0.2l0.2-2H57.1z"/>
						</g>
						<g id="XMLID_704_">
							<path id="XMLID_366_" class="st0" d="M71.1,54.3l-0.9,3.9c-0.3,1.4-0.3,2-0.2,2.6h-6.3c0.4-0.6,0.7-1.2,1-2.6l2.3-9.9
								c0.3-1.4,0.3-2,0-2.6h11.6c2.5,0,3.5,0.8,2.9,3.3l-0.6,2.8c-0.5,2.2-1.6,2.3-2.7,2.4l0.9,4.2c0.2,1,0.3,1.7,0.6,2.3h-6
								l-1-6.5H71.1z M71.6,51.8h3c0.7,0,0.9-0.1,1.1-0.8l0.4-1.8c0.2-0.7,0-0.8-0.7-0.8h-3L71.6,51.8z"/>
							<path id="XMLID_369_" d="M79.8,61.2h-6c-0.2,0-0.3-0.1-0.4-0.3l-1-6.2h-1.1l-0.9,3.7c-0.3,1.4-0.3,1.9-0.2,2.4
								c0,0.1,0,0.2-0.1,0.3c-0.1,0.1-0.2,0.1-0.3,0.1h-6.3c-0.1,0-0.3-0.1-0.3-0.2c-0.1-0.1-0.1-0.3,0-0.4c0.4-0.5,0.7-1,1-2.5
								l2.3-9.9c0.3-1.4,0.3-1.9,0.1-2.4c0-0.1,0-0.2,0-0.3c0.1-0.1,0.2-0.2,0.3-0.2h11.6c1.5,0,2.4,0.3,3,0.9
								c0.5,0.6,0.6,1.5,0.3,2.8l-0.6,2.8c-0.5,2.2-1.6,2.5-2.6,2.7l0.8,3.8c0.1,0.2,0.1,0.5,0.1,0.7c0.1,0.6,0.2,1.1,0.4,1.5
								c0.1,0.1,0.1,0.2,0,0.4C80,61.1,79.9,61.2,79.8,61.2z M74.1,60.4h5.2c-0.1-0.4-0.2-0.8-0.3-1.2c0-0.2-0.1-0.4-0.1-0.7
								l-0.9-4.2c0-0.1,0-0.2,0.1-0.3c0.1-0.1,0.2-0.1,0.3-0.1c1.1-0.1,1.9-0.2,2.4-2.1l0.6-2.8c0.2-1,0.2-1.8-0.1-2.2
								c-0.4-0.5-1.1-0.7-2.4-0.7H67.6c0.1,0.6,0.1,1.2-0.2,2.3l-2.3,9.9c-0.2,1-0.5,1.6-0.7,2.1h5.2c-0.1-0.6,0-1.2,0.2-2.3
								l0.9-3.9c0-0.2,0.2-0.3,0.3-0.3h1.7c0.2,0,0.3,0.1,0.4,0.3L74.1,60.4z M74.7,52.1h-3c-0.1,0-0.2-0.1-0.3-0.1
								c-0.1-0.1-0.1-0.2-0.1-0.3l0.8-3.5c0-0.2,0.2-0.3,0.3-0.3h3c0.4,0,0.7,0,1,0.3c0.2,0.3,0.2,0.6,0.1,1L76.1,51
								C75.9,52,75.5,52.1,74.7,52.1z M72.1,51.4h2.6c0.5,0,0.6,0,0.7-0.6l0.4-1.8c0.1-0.3,0-0.4,0-0.4c0,0-0.1,0-0.4,0h-2.8
								L72.1,51.4z"/>
						</g>
						<g id="XMLID_698_">
							<path id="XMLID_361_" class="st0" d="M96.4,48.7c-0.5-0.2-1-0.4-2.1-0.4h-3.9c-0.7,0-1.1,0.2-1.3,1l-1.9,8.1
								c-0.2,0.7,0.1,1,0.8,1h3c2.2,0,2.6-0.2,3.4-0.6l-1.2,3.1h-8.7c-2.3,0-3.3-1.2-2.5-4.4l1.5-6.2c0.8-3.2,2.3-4.4,4.6-4.4h8.5
								L96.4,48.7z"/>
							<path id="XMLID_363_" d="M93.4,61.2h-8.7c-1.2,0-2.1-0.3-2.6-1c-0.6-0.8-0.7-2.1-0.3-3.9l1.5-6.2c0.7-3.2,2.3-4.7,5-4.7h8.5
								c0.1,0,0.2,0,0.3,0.1c0.1,0.1,0.1,0.2,0.1,0.3l-0.3,2.9c0,0.1-0.1,0.2-0.2,0.3c-0.1,0.1-0.2,0.1-0.3,0
								c-0.5-0.2-0.9-0.4-1.9-0.4h-3.9c-0.6,0-0.8,0.2-0.9,0.7l-1.9,8.1c-0.1,0.3,0,0.4,0,0.4c0,0,0.1,0.1,0.5,0.1h3
								c2.1,0,2.5-0.2,3.2-0.5c0.1-0.1,0.3,0,0.4,0.1c0.1,0.1,0.1,0.3,0.1,0.4l-1.2,3.1C93.6,61.1,93.5,61.2,93.4,61.2z M88.2,46.1
								c-2.3,0-3.6,1.3-4.3,4.1l-1.5,6.2c-0.4,1.6-0.3,2.7,0.2,3.3c0.4,0.5,1,0.7,2,0.7h8.4l0.8-2c-0.6,0.2-1.2,0.3-2.7,0.3h-3
								c-0.3,0-0.8,0-1.1-0.4c-0.2-0.2-0.2-0.6-0.1-1l1.9-8.1c0.3-1.1,1.1-1.2,1.6-1.2h3.9c0.8,0,1.3,0.1,1.8,0.2l0.2-2H88.2z"/>
						</g>
						<g id="XMLID_689_">
							<path id="XMLID_353_" class="st0" d="M97.3,52.3c0.4-1.5,0.2-2,0-2.5h5.8l-2,8.5c-0.4,1.5-0.2,2,0,2.5h-6.4
								c0.4-0.6,0.8-1,1.2-2.5L97.3,52.3z M104,45.8l-0.7,2.9h-5.1l0.7-2.9H104z"/>
							<path id="XMLID_356_" d="M101.1,61.2h-6.4c-0.1,0-0.3-0.1-0.3-0.2c-0.1-0.1,0-0.3,0-0.4c0.4-0.6,0.8-1,1.1-2.4l1.4-6l0,0
								c0.3-1.4,0.2-1.8,0-2.3c0-0.1,0-0.2,0-0.3c0.1-0.1,0.2-0.2,0.3-0.2h5.8c0.1,0,0.2,0.1,0.3,0.1c0.1,0.1,0.1,0.2,0.1,0.3
								l-2,8.5c-0.3,1.4-0.2,1.8,0,2.3c0,0.1,0,0.2,0,0.3C101.3,61.1,101.2,61.2,101.1,61.2z M95.4,60.4h5.2
								c-0.1-0.5-0.1-1.1,0.1-2.3l1.9-8.1h-4.9c0.1,0.5,0.1,1.1-0.1,2.3l-1.4,6C96,59.4,95.7,60,95.4,60.4z M103.3,49h-5.1
								c-0.1,0-0.2-0.1-0.3-0.1c-0.1-0.1-0.1-0.2-0.1-0.3l0.7-2.9c0-0.2,0.2-0.3,0.3-0.3h5.1c0.1,0,0.2,0,0.3,0.1
								c0.1,0.1,0.1,0.2,0.1,0.3l-0.7,2.9C103.6,48.9,103.5,49,103.3,49z M98.6,48.3h4.4l0.5-2.2h-4.4L98.6,48.3z"/>
						</g>
						<g id="XMLID_680_">
							<path id="XMLID_345_" class="st0" d="M102.2,60.8c0.3-0.4,0.7-0.9,0.9-2.1l2.6-10.9c0.3-1.1,0.2-1.6,0-2.1h5.6l-1.2,5.1h0
								c0.2-0.4,0.7-1.1,1.6-1.1h4.1c2.4,0,2.9,1.4,2.5,3.4l-1,4.2c-0.5,2-1.7,3.4-4.1,3.4H109c-0.6,0-0.7-0.4-0.9-1.2l-0.6,1.2
								H102.2z M108.6,57.8c-0.1,0.6,0,0.8,0.5,0.8h2.1c0.5,0,0.8-0.2,0.9-0.8l1.2-5c0.1-0.6,0-0.8-0.5-0.8h-2.1
								c-0.5,0-0.8,0.2-0.9,0.8L108.6,57.8z"/>
							<path id="XMLID_348_" d="M113.4,61.2H109c-0.5,0-0.8-0.3-1-0.6l-0.2,0.4c-0.1,0.1-0.2,0.2-0.3,0.2h-5.2
								c-0.1,0-0.3-0.1-0.3-0.2s0-0.3,0-0.4c0.3-0.4,0.6-0.8,0.9-1.9l2.6-10.9c0.2-1.1,0.2-1.5,0-1.9c0-0.1,0-0.2,0.1-0.3
								c0.1-0.1,0.2-0.1,0.3-0.1h5.6c0.1,0,0.2,0,0.3,0.1c0.1,0.1,0.1,0.2,0.1,0.3l-0.9,3.8c0.3-0.1,0.6-0.2,1-0.2h4.1
								c1.1,0,2,0.3,2.5,0.9c0.5,0.7,0.6,1.7,0.3,2.9l-1,4.2C117.2,59.9,115.7,61.2,113.4,61.2z M108,59.3
								C108.1,59.3,108.1,59.3,108,59.3c0.2,0,0.3,0.1,0.3,0.3c0.2,0.9,0.3,0.9,0.6,0.9h4.4c2,0,3.2-1.1,3.7-3.2l1-4.2
								c0.2-1.1,0.2-1.8-0.2-2.3c-0.3-0.4-1-0.7-1.9-0.7h-4.1c-0.7,0-1,0.4-1.3,0.9c-0.1,0.2-0.5,0.2-0.6,0.1
								c-0.1-0.1-0.1-0.2-0.1-0.3l1.1-4.6h-4.7c0.1,0.4,0,1-0.1,1.8l-2.6,10.9c-0.2,0.8-0.4,1.3-0.6,1.6h4.3l0.5-1
								C107.8,59.3,107.9,59.3,108,59.3z M111.2,59h-2.1c-0.4,0-0.6-0.1-0.8-0.3c-0.2-0.3-0.2-0.7-0.1-1l0,0l1.2-5
								c0.1-0.5,0.4-1.1,1.3-1.1h2.1c0.4,0,0.6,0.1,0.8,0.3c0.2,0.3,0.2,0.7,0.1,1l-1.2,5C112.4,58.4,112.1,59,111.2,59z
								 M108.9,58.2c0,0,0.1,0,0.2,0h2.1c0.3,0,0.5,0,0.6-0.6l1.2-5c0.1-0.3,0-0.4,0-0.4l0,0c0,0-0.1,0-0.2,0h-2.1
								c-0.3,0-0.5,0-0.6,0.6l-1.2,5C108.9,58.2,108.9,58.2,108.9,58.2L108.9,58.2z"/>
						</g>
						<g id="XMLID_671_">
							<path id="XMLID_337_" class="st0" d="M124.2,56.5l-0.2,1c-0.2,0.8,0.1,1.1,0.9,1.1h5c1,0,1.5-0.1,2.5-0.5l-1,2.6H121
								c-2.3,0-2.8-1-2.2-3.3l1-4.4c0.5-2.3,1.4-3.3,3.8-3.3h7.9c2.3,0,2.8,1,2.2,3.3l-0.8,3.4H124.2z M128.4,54.3l0.4-1.5
								c0.1-0.6,0-0.9-0.5-0.9h-2.1c-0.6,0-0.8,0.3-1,0.9l-0.4,1.5H128.4z"/>
							<path id="XMLID_340_" d="M131.4,61.2H121c-1.2,0-1.9-0.3-2.4-0.8c-0.5-0.6-0.5-1.5-0.2-3l1-4.4c0.5-2.2,1.4-3.6,4.1-3.6h7.9
								c1.2,0,1.9,0.3,2.4,0.8c0.5,0.6,0.5,1.5,0.2,3l-0.8,3.4c0,0.2-0.2,0.3-0.4,0.3h-8.4l-0.2,0.8c-0.1,0.3,0,0.5,0,0.6
								c0,0,0.2,0.1,0.6,0.1h5c1,0,1.5-0.1,2.3-0.4c0.1-0.1,0.3,0,0.4,0.1c0.1,0.1,0.1,0.3,0.1,0.4l-1,2.6
								C131.7,61.1,131.5,61.2,131.4,61.2z M123.6,50.1c-2,0-2.9,0.8-3.4,3.1l-1,4.4c-0.3,1.2-0.3,2,0.1,2.4
								c0.3,0.4,0.9,0.5,1.8,0.5h10.1l0.6-1.7c-0.6,0.2-1.1,0.2-1.8,0.2h-5c-0.3,0-0.8,0-1.1-0.4c-0.3-0.4-0.2-0.8-0.2-1.2l0.2-1
								c0-0.2,0.2-0.3,0.3-0.3h8.4l0.7-3.1c0.3-1.2,0.3-2-0.1-2.4c-0.3-0.4-0.9-0.5-1.8-0.5H123.6z M128.4,54.7h-3.6
								c-0.1,0-0.2-0.1-0.3-0.1c-0.1-0.1-0.1-0.2-0.1-0.3l0.4-1.5c0.1-0.6,0.4-1.2,1.3-1.2h2.1c0.1,0,0.6,0,0.8,0.3
								c0.2,0.3,0.2,0.7,0.1,1l-0.4,1.5C128.7,54.6,128.6,54.7,128.4,54.7z M125.2,54h2.9l0.3-1.2c0.1-0.3,0-0.4,0-0.4l0,0
								c0,0-0.1,0-0.2,0h-2.1c-0.3,0-0.5,0.1-0.6,0.6L125.2,54z"/>
						</g>
						<g id="XMLID_665_">
							<path id="XMLID_332_" class="st0" d="M141.3,49.8l-0.2,1.8h0c0.8-1.3,1.5-1.8,3.1-1.8h2.5l-0.8,3.6c-0.5-0.4-0.7-0.5-2.3-0.5
								c-2.1,0-2.5,0.4-2.9,1.9l-0.8,3.5c-0.4,1.5-0.2,2,0,2.5h-6.4c0.4-0.6,0.8-1,1.2-2.5l1.4-6c0.4-1.5,0.2-2,0-2.5H141.3z"/>
							<path id="XMLID_334_" d="M139.8,61.2h-6.4c-0.1,0-0.3-0.1-0.3-0.2c-0.1-0.1,0-0.3,0-0.4c0.4-0.6,0.8-1,1.1-2.4l1.4-6
								c0.3-1.4,0.2-1.8,0-2.3c0-0.1,0-0.2,0-0.3s0.2-0.2,0.3-0.2h5.2c0.1,0,0.2,0,0.3,0.1c0.1,0.1,0.1,0.2,0.1,0.3l-0.1,0.5
								c0.6-0.6,1.3-0.9,2.6-0.9h2.5c0.1,0,0.2,0.1,0.3,0.1c0.1,0.1,0.1,0.2,0.1,0.3l-0.8,3.6c0,0.1-0.1,0.2-0.2,0.3
								c-0.1,0-0.2,0-0.3,0c-0.5-0.4-0.6-0.5-2.1-0.5c-2,0-2.2,0.3-2.5,1.6l-0.8,3.5c-0.3,1.4-0.2,1.8,0,2.3c0,0.1,0,0.2,0,0.3
								C140,61.1,139.9,61.2,139.8,61.2z M134.2,60.4h5.2c-0.1-0.5-0.1-1.1,0.1-2.3l0.8-3.5c0.4-1.7,1.1-2.2,3.2-2.2
								c1.2,0,1.6,0.1,2,0.3l0.6-2.7h-2.1c-1.5,0-2,0.4-2.8,1.6c-0.1,0.2-0.4,0.2-0.6,0c-0.1-0.1-0.1-0.2-0.1-0.3l0.2-1.4h-4.3
								c0.1,0.5,0.1,1.1-0.1,2.3l-1.4,6C134.7,59.4,134.5,60,134.2,60.4z"/>
						</g>
						<g id="XMLID_659_">
							<path id="XMLID_327_" class="st0" d="M152.6,49.8l-0.1,1.2h0c0.4-0.6,0.8-1.2,1.6-1.2h4.2c2.4,0,3.1,1.5,2.5,4l-1,4.5
								c-0.4,1.5-0.2,2,0,2.5h-6.4c0.4-0.6,0.8-1,1.2-2.5l1.3-5.4c0.2-0.7,0-0.9-0.6-0.9h-1.9c-0.6,0-0.9,0.2-1.1,0.9l-1.3,5.4
								c-0.4,1.5-0.2,2,0,2.5h-6.4c0.4-0.6,0.8-1,1.2-2.5l1.4-6c0.4-1.5,0.2-2,0-2.5H152.6z"/>
							<path id="XMLID_329_" d="M159.9,61.2h-6.4c-0.1,0-0.3-0.1-0.3-0.2c-0.1-0.1,0-0.3,0-0.4c0.4-0.6,0.8-1,1.1-2.4l1.3-5.4
								c0.1-0.3,0-0.4,0-0.4l0,0c0,0-0.1-0.1-0.3-0.1h-1.9c-0.4,0-0.6,0.1-0.7,0.6l-1.3,5.4c-0.3,1.4-0.2,1.8,0,2.3
								c0,0.1,0,0.2,0,0.3c-0.1,0.1-0.2,0.2-0.3,0.2h-6.4c-0.1,0-0.3-0.1-0.3-0.2c-0.1-0.1,0-0.3,0-0.4c0.4-0.6,0.8-1,1.1-2.4l1.4-6
								c0.3-1.4,0.2-1.8,0-2.3c0-0.1,0-0.2,0-0.3c0.1-0.1,0.2-0.2,0.3-0.2h5.4c0.1,0,0.2,0,0.3,0.1c0.1,0.1,0.1,0.2,0.1,0.3l0,0.1
								c0.3-0.3,0.7-0.5,1.2-0.5h4.2c1.2,0,2,0.3,2.5,1c0.6,0.8,0.7,1.9,0.4,3.5l-1,4.5c-0.3,1.4-0.2,1.8,0,2.3c0,0.1,0,0.2,0,0.3
								S160,61.2,159.9,61.2z M154.2,60.4h5.2c-0.1-0.5-0.1-1.1,0.1-2.3l1.1-4.5c0.3-1.3,0.2-2.3-0.2-2.9c-0.4-0.5-1-0.7-2-0.7h-4.2
								c-0.5,0-0.9,0.4-1.3,1c-0.1,0.2-0.4,0.2-0.6,0c-0.1-0.1-0.1-0.2-0.1-0.3l0.1-0.8h-4.5c0.1,0.5,0.1,1.1-0.1,2.3l-1.4,6
								c-0.3,1.1-0.5,1.7-0.8,2.1h5.2c-0.1-0.5-0.1-1.1,0.1-2.3l1.3-5.4c0.2-0.8,0.6-1.2,1.4-1.2h1.9c0.3,0,0.7,0,0.9,0.3
								c0.2,0.3,0.2,0.7,0.1,1l-1.3,5.4C154.8,59.4,154.5,60,154.2,60.4z"/>
						</g>
						<g id="XMLID_647_">
							<path id="XMLID_316_" class="st0" d="M167.2,56.5l-0.2,1c-0.2,0.8,0.1,1.1,0.9,1.1h5c1,0,1.5-0.1,2.5-0.5l-1,2.6h-10.4
								c-2.3,0-2.8-1-2.2-3.3l1-4.4c0.5-2.3,1.4-3.3,3.8-3.3h7.9c2.3,0,2.8,1,2.2,3.3l-0.8,3.4H167.2z M171.3,54.3l0.4-1.5
								c0.1-0.6,0-0.9-0.5-0.9H169c-0.6,0-0.8,0.3-1,0.9l-0.4,1.5H171.3z M168.7,48.3l3-3.5h4.6l-4.6,3.5H168.7z"/>
							<path id="XMLID_320_" d="M174.3,61.2h-10.4c-1.2,0-1.9-0.3-2.4-0.8c-0.5-0.6-0.5-1.5-0.2-3l1-4.4c0.5-2.2,1.4-3.6,4.1-3.6
								h7.9c1.2,0,1.9,0.3,2.4,0.8c0.5,0.6,0.5,1.5,0.2,3l-0.8,3.4c0,0.2-0.2,0.3-0.4,0.3h-8.4l-0.2,0.8c-0.1,0.3,0,0.5,0,0.6
								c0,0,0.2,0.1,0.6,0.1h5c1,0,1.5-0.1,2.3-0.4c0.1-0.1,0.3,0,0.4,0.1c0.1,0.1,0.1,0.3,0.1,0.4l-1,2.6
								C174.6,61.1,174.5,61.2,174.3,61.2z M166.5,50.1c-2,0-2.9,0.8-3.4,3.1l-1,4.4c-0.3,1.2-0.3,2,0.1,2.4
								c0.3,0.4,0.9,0.5,1.8,0.5h10.1l0.6-1.7c-0.6,0.2-1.1,0.2-1.8,0.2h-5c-0.3,0-0.8,0-1.1-0.4c-0.3-0.4-0.2-0.8-0.2-1.2l0.2-1
								c0-0.2,0.2-0.3,0.3-0.3h8.4l0.7-3.1c0.3-1.2,0.3-2-0.1-2.4c-0.3-0.4-0.9-0.5-1.8-0.5H166.5z M171.3,54.7h-3.6
								c-0.1,0-0.2,0-0.3-0.1c-0.1-0.1-0.1-0.2-0.1-0.3l0.4-1.5c0.1-0.6,0.4-1.2,1.3-1.2h2.1c0.1,0,0.6,0,0.8,0.3
								c0.2,0.3,0.2,0.7,0.1,1l-0.4,1.5C171.6,54.6,171.5,54.7,171.3,54.7z M168.1,54h2.9l0.3-1.2c0.1-0.3,0-0.4,0-0.4l0,0
								c0,0-0.1,0-0.2,0H169c-0.3,0-0.5,0.1-0.6,0.6L168.1,54z M171.7,48.7h-3c-0.1,0-0.3-0.1-0.3-0.2c-0.1-0.1,0-0.3,0.1-0.4l3-3.5
								c0.1-0.1,0.2-0.1,0.3-0.1h4.6c0.2,0,0.3,0.1,0.3,0.2c0,0.1,0,0.3-0.1,0.4l-4.6,3.5C171.8,48.7,171.7,48.7,171.7,48.7z
								 M169.4,48h2.1l3.7-2.8h-3.4L169.4,48z"/>
						</g>
						<g id="XMLID_641_">
							<path id="XMLID_311_" class="st0" d="M181,47.5l5.2-0.1l-0.6,2.4h4.1l-0.5,2.2h-4.1l-1.4,5.8c-0.2,0.7-0.1,0.9,0.8,0.9h1.8
								c1,0,1.7-0.3,2-0.4l-0.9,2.6H181c-1.7,0-2.9-0.7-2.3-3.5l1.3-5.4h-2.2l0.5-2.2h2.2L181,47.5z"/>
							<path id="XMLID_313_" d="M187.5,61.2H181c-1.1,0-1.9-0.3-2.3-0.9c-0.5-0.7-0.6-1.7-0.3-3l1.2-5h-1.8c-0.1,0-0.2,0-0.3-0.1
								c-0.1-0.1-0.1-0.2-0.1-0.3l0.5-2.2c0-0.2,0.2-0.3,0.3-0.3h1.9l0.5-2c0-0.2,0.2-0.3,0.3-0.3l5.2-0.1c0.1,0,0.2,0,0.3,0.1
								c0.1,0.1,0.1,0.2,0.1,0.3l-0.5,2h3.7c0.1,0,0.2,0,0.3,0.1c0.1,0.1,0.1,0.2,0.1,0.3l-0.5,2.2c0,0.2-0.2,0.3-0.3,0.3h-3.9
								l-1.3,5.5c-0.1,0.3-0.1,0.4-0.1,0.4c0,0,0.1,0,0.5,0h1.8c0.9,0,1.6-0.3,1.8-0.4c0.1-0.1,0.3,0,0.4,0.1
								c0.1,0.1,0.1,0.2,0.1,0.4l-0.9,2.6C187.8,61.1,187.6,61.2,187.5,61.2z M178.2,51.6h1.8c0.1,0,0.2,0.1,0.3,0.1
								c0.1,0.1,0.1,0.2,0.1,0.3l-1.3,5.4c-0.3,1.1-0.2,1.9,0.2,2.4c0.3,0.4,0.9,0.6,1.8,0.6h6.3l0.6-1.6c-0.4,0.1-0.8,0.2-1.4,0.2
								h-1.8c-0.5,0-0.9-0.1-1.1-0.3c-0.2-0.3-0.2-0.6-0.1-1l1.4-5.8c0-0.2,0.2-0.3,0.3-0.3h3.9l0.3-1.4h-3.7
								c-0.1,0-0.2-0.1-0.3-0.1c-0.1-0.1-0.1-0.2-0.1-0.3l0.5-1.9l-4.5,0.1l-0.5,2c0,0.2-0.2,0.3-0.3,0.3h-1.9L178.2,51.6z"/>
						</g>
						<g id="XMLID_632_">
							<path id="XMLID_303_" class="st0" d="M191.3,52.3c0.4-1.5,0.2-2,0-2.5h5.8l-2,8.5c-0.4,1.5-0.2,2,0,2.5h-6.4
								c0.4-0.6,0.8-1,1.2-2.5L191.3,52.3z M198,45.8l-0.7,2.9h-5.1l0.7-2.9H198z"/>
							<path id="XMLID_306_" d="M195.1,61.2h-6.4c-0.1,0-0.3-0.1-0.3-0.2c-0.1-0.1,0-0.3,0-0.4c0.4-0.6,0.8-1,1.1-2.4l1.4-6l0,0
								c0.3-1.4,0.2-1.8,0-2.3c0-0.1,0-0.2,0-0.3c0.1-0.1,0.2-0.2,0.3-0.2h5.8c0.1,0,0.2,0.1,0.3,0.1c0.1,0.1,0.1,0.2,0.1,0.3
								l-2,8.5c-0.3,1.4-0.2,1.8,0,2.3c0,0.1,0,0.2,0,0.3C195.3,61.1,195.2,61.2,195.1,61.2z M189.5,60.4h5.2
								c-0.1-0.5-0.1-1.1,0.1-2.3l1.9-8.1h-4.9c0.1,0.5,0.1,1.1-0.1,2.3l-1.4,6C190,59.4,189.7,60,189.5,60.4z M197.3,49h-5.1
								c-0.1,0-0.2-0.1-0.3-0.1c-0.1-0.1-0.1-0.2-0.1-0.3l0.7-2.9c0-0.2,0.2-0.3,0.3-0.3h5.1c0.1,0,0.2,0,0.3,0.1
								c0.1,0.1,0.1,0.2,0.1,0.3l-0.7,2.9C197.6,48.9,197.5,49,197.3,49z M192.6,48.3h4.4l0.5-2.2h-4.4L192.6,48.3z"/>
						</g>
						<g id="XMLID_626_">
							<path id="XMLID_298_" class="st0" d="M202.5,57.5c-0.2,0.8,0.1,1.1,0.9,1.1h2.5c1.7,0,2.2-0.2,2.9-0.5l-1,2.7h-8.1
								c-2.4,0-2.9-1.4-2.5-3.4l1-4.2c0.5-2,1.7-3.4,4.1-3.4h8.1l-0.2,2.7c-0.3-0.4-1.1-0.6-2.3-0.6h-3c-0.8,0-1.2,0.3-1.5,1.1
								L202.5,57.5z"/>
							<path id="XMLID_300_" d="M207.8,61.2h-8.1c-1.1,0-2-0.3-2.5-0.9c-0.5-0.7-0.6-1.7-0.3-2.9l1-4.2c0.6-2.4,2.1-3.7,4.4-3.7h8.1
								c0.1,0,0.2,0,0.3,0.1c0.1,0.1,0.1,0.2,0.1,0.3l-0.2,2.7c0,0.1-0.1,0.3-0.3,0.3c-0.1,0-0.3,0-0.4-0.1c-0.2-0.2-0.6-0.4-2-0.4
								h-3c-0.7,0-0.9,0.2-1.1,0.9l-1,4.4c-0.1,0.3-0.1,0.5,0,0.6c0,0,0.2,0.1,0.6,0.1h2.5c1.6,0,2.1-0.2,2.7-0.5
								c0.1-0.1,0.3,0,0.4,0.1c0.1,0.1,0.2,0.2,0.1,0.4l-1,2.7C208.1,61.1,208,61.2,207.8,61.2z M202.4,50.1c-2,0-3.2,1.1-3.7,3.2
								l-1,4.2c-0.2,1.1-0.2,1.8,0.2,2.3c0.3,0.4,1,0.7,1.9,0.7h7.8l0.6-1.7c-0.5,0.2-1.1,0.3-2.3,0.3h-2.5c-0.3,0-0.8,0-1.1-0.4
								c-0.3-0.4-0.2-0.8-0.2-1.2c0,0,0,0,0,0l1-4.5c0.3-1,0.8-1.4,1.8-1.4h3c0.9,0,1.5,0.1,2,0.3l0.1-1.7H202.4z"/>
						</g>
						<g id="XMLID_617_">
							<path id="XMLID_290_" class="st0" d="M222.5,49.8c2.5,0,3.2,1.1,2.5,4.2l-1.1,4.8c-0.3,1.1-0.2,1.6,0,2.1h-5.2l0-1.2h0
								c-0.5,1-1,1.2-2.4,1.2h-3.7c-2.3,0-2.8-1-2.2-3.3l0.2-0.8c0.5-2.3,1.4-3.3,3.8-3.3h4.7c0.7,0,0.9-0.2,1-0.7
								c0.1-0.5,0-0.7-0.7-0.7h-5.2c-1,0-1.5,0.1-2.2,0.5l1-2.6H222.5z M217.1,55.5c-0.8,0-1.1,0.1-1.3,0.9l-0.3,1.3
								c-0.2,0.8,0.1,0.9,0.9,0.9h1.2c1,0,1.1-0.2,1.5-1.6l0.4-1.6H217.1z"/>
							<path id="XMLID_293_" d="M223.9,61.2h-5.2c-0.1,0-0.2,0-0.3-0.1c-0.1-0.1-0.1-0.2-0.1-0.3l0-0.2c-0.5,0.4-1.1,0.5-2.1,0.5
								h-3.7c-1.2,0-1.9-0.3-2.4-0.8c-0.5-0.6-0.5-1.5-0.2-3l0.2-0.8c0.5-2.2,1.4-3.6,4.1-3.6h4.7c0.6,0,0.6-0.1,0.7-0.4
								c0-0.2,0-0.2,0-0.2c0,0-0.1,0-0.4,0h-5.2c-0.9,0-1.4,0.1-2,0.4c-0.1,0.1-0.3,0-0.4-0.1c-0.1-0.1-0.1-0.3-0.1-0.4l1-2.6
								c0.1-0.1,0.2-0.2,0.3-0.2h9.5c1.3,0,2.1,0.3,2.6,0.9c0.6,0.7,0.7,1.9,0.2,3.7l-1.1,4.8c-0.3,1.1-0.2,1.5,0,1.8
								c0.1,0.1,0,0.2,0,0.3C224.2,61.1,224.1,61.2,223.9,61.2z M219.1,60.4h4.3c-0.1-0.4-0.1-0.9,0.1-1.8l1.1-4.8
								c0.4-1.6,0.3-2.5-0.1-3.1c-0.3-0.4-1-0.6-2.1-0.6h-9.2l-0.6,1.6c0.4-0.1,0.9-0.2,1.6-0.2h5.2c0.4,0,0.7,0,1,0.3
								c0.2,0.3,0.2,0.6,0.1,0.8c-0.2,0.7-0.5,1-1.4,1h-4.7c-2,0-2.9,0.8-3.4,3.1l-0.2,0.8c-0.3,1.2-0.3,2,0.1,2.4
								c0.3,0.4,0.9,0.5,1.8,0.5h3.7c1.4,0,1.7-0.2,2.1-1c0.1-0.2,0.4-0.3,0.6-0.1c0.1,0.1,0.1,0.2,0.1,0.3L219.1,60.4z M217.6,59
								h-1.2c-0.5,0-0.9-0.1-1.1-0.4c-0.2-0.3-0.2-0.7-0.1-1l0.3-1.3c0.2-1,0.7-1.2,1.7-1.2c0,0,0,0,0,0h2.3c0.1,0,0.2,0,0.3,0.1
								c0.1,0.1,0.1,0.2,0.1,0.3l-0.4,1.6C219.1,58.6,218.9,59,217.6,59z M217.2,55.8c-0.7,0-0.8,0.1-1,0.7l-0.3,1.3
								c-0.1,0.3,0,0.4,0,0.4c0,0,0.1,0.1,0.6,0.1h1.2c0.8,0,0.8,0,1.1-1.3l0.3-1.1H217.2z"/>
						</g>
					</g>
				</g>
			</g>
		</g>
	</g>
	<g id="XMLID_472_">
		<g id="XMLID_581_">
			<path id="XMLID_582_" d="M48.2,47.2c-0.5-1.6-1.3-3.1-2.4-4.3C41.5,38,34.7,37.4,32,37.4c-5.8,0-11.2,2.1-14.1,5.4
				c-0.2,0.3-0.5,0.6-0.7,0.9c-0.2,0.3-0.4,0.7-0.6,1c-0.4,0.8-0.7,1.5-1,2.3c-1.3,3.1-1.4,5.5-0.6,7.4c0.3,0.7,0.8,1.2,1.3,1.7
				c0,1,0.2,2.4,1.1,3.7c0,0,0.1,0.1,0.1,0.1c1.2,1.6,3.2,2.5,5.8,2.7c0.2,0,0.4,0,0.6,0c-0.1,2.3,0.2,3.2,0.7,3.7
				c0.3,0.3,0.8,0.5,1.2,0.5h2.3c0.9,0,1.7-0.7,1.7-1.6l0.1-1.7l0-0.1c0-0.2,0-0.4-0.1-0.6c0-0.2,0.3-0.7,0.7-1.1
				c0.7,0,1.4-0.3,1.9-0.8c0.3-0.3,0.5-0.6,0.7-1c1.2,0,2.5-0.2,3.9-0.5c1.4-0.4,2.4-1.1,3-2.2c0.1-0.2,0.2-0.5,0.3-0.7
				c0.7,0,1.3-0.1,1.9-0.1c2.8-0.3,4.7-1.4,5.7-3C49.6,50.8,48.5,47.9,48.2,47.2z M47.1,52.7c-0.8,1.4-2.5,2.2-4.9,2.5
				c-0.8,0.1-1.7,0.1-2.7,0.1c0,0.1,0,0.2,0,0.2c0,0.4-0.1,0.8-0.3,1.1c-0.4,0.8-1.2,1.3-2.3,1.6c-1.7,0.5-3.1,0.6-4.4,0.5
				c0,0.1,0,0.2,0,0.3c-0.1,0.4-0.3,0.8-0.5,1c-0.4,0.4-0.9,0.5-1.6,0.5c-0.7,0.6-1.7,1.8-1.4,2.6c0,0.1,0,0.2,0,0.2l-0.1,1.7
				c0,0.3-0.3,0.6-0.6,0.6h-2.3c-0.2,0-0.3-0.1-0.4-0.2c-0.2-0.2-0.6-0.6-0.3-4c-0.6,0.1-1.2,0.1-1.8,0c-2.3-0.1-4-0.9-5-2.2
				c0,0,0,0,0-0.1l0,0c-1-1.4-1-2.9-0.9-3.6c-0.1,0-0.2-0.1-0.2-0.1c-0.5-0.3-0.9-0.8-1.2-1.4c-0.7-1.5-0.5-3.7,0.6-6.4
				c0.3-0.7,0.6-1.4,1-2.2c0.2-0.3,0.3-0.6,0.5-0.9c0.2-0.3,0.4-0.6,0.7-0.8c2.7-3.1,7.8-5.1,13.3-5.1c5.4,0,10.2,1.9,12.9,5.1
				c1,1.1,1.7,2.5,2.2,3.9l0,0.1C47.2,47.9,48.5,50.5,47.1,52.7z"/>
		</g>
		<g id="XMLID_579_">
			<path id="XMLID_437_" class="st0" d="M27.6,59c0.2-0.6,0.1-1.2,0-1.5c-0.3-0.1-0.7-0.2-1.1-0.2c-0.2,0.6-0.5,1.2-0.8,1.7L27.6,59
				C27.6,59,27.6,59,27.6,59z"/>
		</g>
		<g id="XMLID_577_">
			<path id="XMLID_436_" class="st0" d="M29.6,58.1l-0.1,0c-0.3-0.1-0.5-0.2-0.8-0.2c0.1,0.4,0,0.8,0,1.2h2.4c0,0,0,0,0,0
				c0.1-0.2,0.1-0.3,0.1-0.5C30.7,58.4,30.2,58.2,29.6,58.1z"/>
		</g>
		<g id="XMLID_575_">
			<path id="XMLID_435_" class="st0" d="M24.9,58.9c0.3-0.6,0.6-1.2,0.9-1.8c-0.2,0-0.4-0.1-0.6-0.1l-0.3-0.1
				c-0.6,0.8-1.4,1.5-2.1,2.1L24.9,58.9C24.8,59,24.8,59,24.9,58.9z"/>
		</g>
		<g id="XMLID_573_">
			<path id="XMLID_434_" class="st0" d="M21.2,56.3c-1.1-0.2-2.1-0.4-2.7-0.5c0,0.5,0,1.1,0.2,1.8C19.6,57.3,20.4,56.8,21.2,56.3z"
				/>
		</g>
		<g id="XMLID_571_">
			<path id="XMLID_433_" class="st0" d="M19.1,58.2c0.1,0.1,0.1,0.2,0.2,0.3c0.1,0.1,0.2,0.2,0.3,0.3c0,0,0.1,0.1,0.1,0.1h1.7
				c0.1,0,0.1-0.1,0.2-0.1c0.8-0.5,1.6-1.3,2.4-2.1c-0.6-0.1-1.2-0.2-1.7-0.3C21.2,57.3,20.1,57.9,19.1,58.2z"/>
		</g>
		<g id="XMLID_567_">
			<path id="XMLID_568_" class="st0" d="M47.1,47.5c-0.5-1.5-1.2-2.8-2.2-3.9c-2.7-3.2-7.6-5.1-12.9-5.1c-5.5,0-10.6,1.9-13.3,5.1
				c-0.2,0.3-0.4,0.5-0.7,0.8c-0.2,0.3-0.4,0.6-0.5,0.9c-0.4,0.7-0.7,1.5-1,2.2c-1.1,2.8-1.3,4.9-0.6,6.4c0.3,0.6,0.7,1.1,1.2,1.4
				c0.1,0.1,0.2,0.1,0.2,0.1c-0.1,0.7-0.1,2.3,0.9,3.6l0,0c0,0,0,0,0,0.1c1,1.3,2.7,2.1,5,2.2c0.6,0,1.2,0,1.8,0
				c-0.4,3.4,0.1,3.9,0.3,4c0.1,0.1,0.3,0.2,0.4,0.2h2.3c0.3,0,0.6-0.3,0.6-0.6l0.1-1.7c0-0.1,0-0.2,0-0.2c-0.3-0.8,0.7-2,1.4-2.6
				c0.7,0.1,1.2-0.1,1.6-0.5c0.3-0.3,0.5-0.6,0.5-1c0-0.1,0-0.2,0-0.3c1.4,0.2,2.8,0,4.4-0.5c1.1-0.3,1.9-0.9,2.3-1.6
				c0.2-0.3,0.3-0.7,0.3-1.1c0-0.1,0-0.2,0-0.2c1,0,1.9,0,2.7-0.1c2.4-0.3,4.1-1.1,4.9-2.5C48.5,50.5,47.2,47.9,47.1,47.5L47.1,47.5
				z M46.9,52.6c-0.8,1.3-2.4,2.1-4.7,2.4c-0.7,0.1-1.4,0.1-2.1,0.1c-0.3,0-0.5,0-0.8,0c0,0,0,0,0,0.1c0,0.1,0,0.3,0,0.4
				c0,0.3-0.1,0.7-0.3,1c-0.4,0.7-1.1,1.2-2.2,1.5c-1.2,0.3-2.3,0.5-3.3,0.5c-0.5,0-0.9,0-1.3-0.1c0,0.1,0,0.3-0.1,0.5
				c-0.1,0.3-0.2,0.7-0.5,0.9c-0.4,0.3-0.9,0.5-1.5,0.4c-0.6,0.6-1.9,1.9-1.5,2.9c0,0.1,0,0.1,0,0.2l-0.1,1.7c0,0.2-0.2,0.4-0.4,0.4
				h-2.3c-0.1,0-0.2,0-0.3-0.1c-0.5-0.5-0.4-2.4-0.2-4.1c-0.4,0-0.8,0.1-1.2,0.1c-0.3,0-0.6,0-0.9,0c-2.2-0.1-3.9-0.9-4.8-2.1
				c0,0,0-0.1-0.1-0.1c-1-1.4-0.9-3-0.8-3.6c-0.1,0-0.2-0.1-0.4-0.2c-0.4-0.2-0.8-0.6-1.1-1.3c-0.7-1.5-0.5-3.6,0.6-6.3
				c0.3-0.7,0.6-1.4,1-2.2c0.2-0.3,0.3-0.6,0.5-0.9c0.2-0.3,0.4-0.6,0.6-0.8c2.6-3,7.6-5,13.1-5c4.5,0,9.7,1.4,12.8,5
				c0.9,1.1,1.7,2.3,2.1,3.8c0,0,0,0.1,0,0.1C47.1,48,48.2,50.5,46.9,52.6z"/>
		</g>
		<g id="XMLID_565_">
			<path id="XMLID_430_" class="st1" d="M46,48.1c0,0,0-0.1,0-0.1c0-0.1-0.1-0.2-0.1-0.3c0,0,0,0,0-0.1h-3.7h-3c0,0,0,0,0,0.1
				c-0.2,0.3-0.4,0.6-0.7,0.8l1.5,5.7l0.1,0c0.7,0,1.4,0,2-0.1c0.1,0,0.3,0,0.4-0.1l-0.4-1.6c-1.3-0.1-2.3-1.1-2.3-2.4
				c0-1.3,1.1-2.4,2.4-2.4c1.3,0,2.4,1.1,2.4,2.4c0,0.7-0.3,1.3-0.8,1.8l0.4,1.7c0.9-0.3,1.5-0.8,1.9-1.5
				C47.1,50.5,46.2,48.3,46,48.1z"/>
		</g>
		<g id="XMLID_563_">
			<path id="XMLID_429_" class="st0" d="M45.9,47.6c-0.5-1.4-1.3-2.7-2.3-3.7c0,0-0.1-0.1-0.1-0.1H37h-2.9c0,0,0,0,0,0.1
				c-0.4,0.9-1.2,1.4-2.2,1.4c-0.9,0-1.8-0.6-2.2-1.4c0,0,0,0,0,0h-3.5l0-0.1h-6.1c0,0-0.1,0.1-0.1,0.1c-0.4,0.4-0.7,0.8-1,1.2
				c-0.2,0.2-0.3,0.5-0.5,0.8c-0.3,0.6-0.6,1.2-0.8,1.7h4.9c0,0,0,0,0,0c0.3-1.1,1.2-1.8,2.3-1.8c1,0,1.8,0.6,2.2,1.5h2.5l0.4,0.3
				l0.2,0.1h4.7c-0.2-0.3-0.3-0.7-0.3-1c0-1.3,1.1-2.4,2.4-2.4c1.3,0,2.4,1.1,2.4,2.4c0,0.4-0.1,0.7-0.2,1h3H45.9z"/>
		</g>
		<g id="XMLID_561_">
			<path id="XMLID_428_" class="st2" d="M43.4,43.8c-3.7-3.6-9.2-4-11.5-4c-1.6,0-3.1,0.2-4.7,0.5l0.4,1.8h2
				c0.4-0.9,1.2-1.5,2.2-1.5c1.3,0,2.4,1.1,2.4,2.4c0,0.3-0.1,0.6-0.2,0.9H37H43.4z"/>
		</g>
		<g id="XMLID_559_">
			<path id="XMLID_427_" class="st1" d="M42.2,49.5c-0.3,0-0.6,0.3-0.6,0.6c0,0.3,0.3,0.6,0.6,0.6c0.3,0,0.6-0.3,0.6-0.6
				C42.8,49.8,42.5,49.5,42.2,49.5z"/>
		</g>
		<g id="XMLID_545_">
			<path id="XMLID_546_" class="st0" d="M46.9,47.6c-0.5-1.5-1.2-2.8-2.1-3.8c-3.1-3.6-8.3-5-12.8-5c-5.5,0-10.5,1.9-13.1,5
				c-0.2,0.3-0.4,0.5-0.6,0.8c-0.2,0.3-0.4,0.6-0.5,0.9c-0.4,0.8-0.7,1.5-1,2.2c-1.1,2.7-1.3,4.8-0.6,6.3c0.3,0.7,0.8,1.1,1.1,1.3
				c0.1,0.1,0.3,0.1,0.4,0.2c-0.1,0.7-0.1,2.3,0.8,3.6c0,0,0,0.1,0.1,0.1c1,1.3,2.6,2,4.8,2.1c0.3,0,0.6,0,0.9,0
				c0.4,0,0.8,0,1.2-0.1c-0.2,1.7-0.3,3.7,0.2,4.1c0.1,0.1,0.2,0.1,0.3,0.1h2.3c0.2,0,0.4-0.2,0.4-0.4l0.1-1.7c0-0.1,0-0.1,0-0.2
				c-0.4-1,0.9-2.4,1.5-2.9c0.6,0.1,1.1,0,1.5-0.4c0.3-0.3,0.4-0.6,0.5-0.9c0-0.2,0.1-0.4,0.1-0.5c0.4,0.1,0.8,0.1,1.3,0.1
				c1,0,2.1-0.2,3.3-0.5c1-0.3,1.8-0.8,2.2-1.5c0.2-0.3,0.3-0.7,0.3-1c0-0.1,0-0.3,0-0.4c0,0,0,0,0-0.1c0.3,0,0.5,0,0.8,0
				c0.8,0,1.5,0,2.1-0.1c2.3-0.3,3.9-1.1,4.7-2.4C48.2,50.5,47.1,48,46.9,47.6C46.9,47.7,46.9,47.6,46.9,47.6z M44.2,53.9L44,54
				l-0.6-2.2l0.1-0.1c0.5-0.4,0.8-1,0.8-1.6c0-1.1-0.9-2.1-2.1-2.1c-1.1,0-2.1,0.9-2.1,2.1c0,1.1,0.9,2.1,2.1,2.1h0.1l0,0.1l0.5,2
				l-0.2,0c-0.2,0-0.4,0.1-0.6,0.1c-0.6,0.1-1.3,0.1-2,0.1l-0.4,0l-1.6-6.2l0.1-0.1c0.3-0.2,0.5-0.4,0.7-0.7c0.2-0.3,0.2-0.6,0.2-1
				c0-1.1-0.9-2.1-2.1-2.1c-1.1,0-2.1,0.9-2.1,2.1c0,0.3,0.1,0.7,0.3,1c0.3,0.6,1,1,1.7,1.1l0.1,0l1.6,6l0,0c0,0,0,0.1,0,0.1l0,0
				c0,0.1,0,0.2,0.1,0.3c0,0.1,0,0.3,0,0.4c0,0.3-0.1,0.5-0.2,0.7c-0.3,0.6-0.9,1-1.8,1.2l-0.2,0.1l-0.1-0.1l-1.6-6.3l-2.1-1.5
				l-3-2.1H27l0-0.1c-0.3-0.8-1.1-1.4-1.9-1.4c-0.9,0-1.8,0.6-2,1.6c0,0.2-0.1,0.4-0.1,0.5c0,1.1,0.9,2.1,2.1,2.1
				c0.9,0,1.7-0.6,2-1.4l0-0.1h2.2l4.4,3.1l1.6,6l-0.2,0c-0.6,0.1-1.1,0.1-1.6,0.1c-1.4,0-2.4-0.3-3.5-0.7l0,0
				c-0.3-0.1-0.6-0.2-0.9-0.3c-1.1-0.3-3.9-0.9-8.3-1.7c-1.3-0.2-2.4-0.4-2.5-0.5l-0.1,0c-0.3-0.1-1-0.4-1.4-1.3
				c-0.4-0.8-0.4-1.9-0.2-3.2l0-0.2l7.4,3.7l0.2,0.1H27l0,0.1c0.1,0.4,0.4,0.7,0.7,0.9c0.7,0.6,1.8,0.6,2.6,0c0.5-0.4,0.8-1,0.8-1.6
				c0-1.1-0.9-2.1-2.1-2.1c-0.9,0-1.7,0.6-2,1.4l0,0.1l-2.7,0l-7.4-3.8l0-0.1c0.1-0.4,0.3-0.9,0.5-1.4c0.3-0.6,0.5-1.2,0.8-1.8
				c0.2-0.3,0.3-0.6,0.5-0.8c0.3-0.4,0.7-0.9,1.1-1.3c1.4-1.4,3.4-2.6,5.8-3.3l0.2,0l0.6,2.7l0.1,0.5h3.5l0,0.1c0,0,0,0,0,0l0,0
				c0.3,0.8,1.1,1.3,1.9,1.3c0.8,0,1.6-0.5,1.9-1.3c0.1-0.3,0.2-0.5,0.2-0.8c0-1.1-0.9-2.1-2.1-2.1c-0.9,0-1.7,0.6-2,1.4l0,0.1h-2.5
				L26.9,40l0.1,0c1.6-0.4,3.2-0.5,4.9-0.5c4.9,0,9.2,1.5,11.8,4.2c1.1,1.1,1.9,2.4,2.4,3.9c0,0.1,0.1,0.2,0.1,0.3l0,0.1
				c0.1,0.3,1.1,2.5,0.1,4.3C45.9,53,45.2,53.5,44.2,53.9z M42.2,51c-0.5,0-0.9-0.4-0.9-0.9c0-0.5,0.4-0.9,0.9-0.9
				c0.5,0,0.9,0.4,0.9,0.9C43.1,50.6,42.7,51,42.2,51z M37.9,46.6c0,0.5-0.4,0.9-0.9,0.9c-0.5,0-0.9-0.4-0.9-0.9
				c0-0.5,0.4-0.9,0.9-0.9C37.5,45.7,37.9,46.1,37.9,46.6z M25.9,48.1c0,0.5-0.4,0.9-0.9,0.9c-0.5,0-0.9-0.4-0.9-0.9
				c0-0.3,0.1-0.5,0.3-0.7c0.3-0.3,0.9-0.3,1.2,0C25.8,47.7,25.9,47.9,25.9,48.1z M31.2,59.5c-0.2,0.2-0.6,0.3-1.1,0.2
				c-0.1,0-0.1,0-0.2,0c-0.2,0.2-2.4,2-1.9,3.7l0,0l-0.1,1.4h-2l0-0.1c-0.1-0.6,0-2.3,0.1-3.7l0-0.1l0.1,0c0.9-0.2,1.5-0.6,1.9-1.2
				c0.2-0.2,0.3-0.5,0.3-0.8c0.1-0.4,0.1-0.9,0-1.4l-0.1-0.3l0.2,0.1c0,0,0.1,0,0.1,0c0.3,0.1,0.6,0.2,0.9,0.3l0.1,0
				c0.6,0.2,1.1,0.3,1.7,0.5l0.1,0l0,0.1c0,0.2,0,0.5-0.1,0.7C31.4,59.3,31.3,59.4,31.2,59.5z M18.2,55.6l0-0.2l0.2,0
				c0.6,0.1,1.8,0.3,3.3,0.6l0.4,0.1l-0.3,0.2c-1,0.7-2,1.3-3,1.6l-0.1,0l-0.1-0.1C18.2,57,18.2,56.1,18.2,55.6z M18.8,58
				c1.1-0.4,2.2-1,3.4-1.8l0.1,0l0.1,0c0.7,0.1,1.4,0.3,2.1,0.4l0.3,0l-0.2,0.2c-0.8,1-1.7,1.8-2.6,2.4c-0.5,0.3-0.9,0.5-1.3,0.7
				l-0.1,0l-0.1,0c-0.4-0.2-0.7-0.5-1-0.7c-0.1-0.1-0.2-0.3-0.3-0.4c-0.1-0.2-0.2-0.3-0.3-0.5l-0.1-0.2L18.8,58z M20.6,60l0.3-0.1
				c0.5-0.2,1-0.6,1.5-0.9c0.8-0.6,1.6-1.3,2.3-2.2l0.1-0.1l0.5,0.1c0.3,0.1,0.5,0.1,0.8,0.2l0.2,0l-0.1,0.2c-0.3,0.7-0.6,1.4-1,2
				c-0.4,0.6-0.7,1.1-1.2,1.5l0,0l-0.1,0l0-0.2l0,0.2c-0.1,0-0.3,0-0.4,0c-0.9-0.1-1.8-0.2-2.5-0.5L20.6,60z M24.3,60.4
				c0.4-0.4,0.7-0.9,1-1.5c0.3-0.6,0.6-1.2,0.9-1.9l0-0.1l0.1,0c0.5,0.1,0.9,0.2,1.3,0.3l0.1,0l0,0.1c0.1,0.3,0.3,1,0,1.7
				c-0.1,0.2-0.1,0.3-0.2,0.4c-0.5,0.7-1.6,1.1-3.2,1.2l-0.4,0L24.3,60.4z M28.1,53.4c0-0.5,0.4-0.9,0.9-0.9c0.5,0,0.9,0.4,0.9,0.9
				c0,0.5-0.4,0.9-0.9,0.9C28.5,54.3,28.1,53.9,28.1,53.4z M31,42.9c0-0.5,0.4-0.9,0.9-0.9s0.9,0.4,0.9,0.9c0,0.5-0.4,0.9-0.9,0.9
				S31,43.4,31,42.9z"/>
		</g>
		<g id="XMLID_543_">
			<path id="XMLID_414_" class="st0" d="M36.1,55.2l0.5,2c0.8-0.2,1.3-0.6,1.5-1.1c0.1-0.2,0.2-0.4,0.2-0.6c0-0.1,0-0.2,0-0.3
				c0,0,0,0,0,0H36.1z"/>
		</g>
		<g id="XMLID_541_">
			<path id="XMLID_413_" class="st1" d="M32.8,49.4l2.2,1.5l1.1,4.3h2.2c0-0.1,0-0.2,0-0.3l0,0c0-0.1,0-0.1,0-0.2l-1.5-5.8
				c-0.8-0.1-1.4-0.6-1.8-1.2c0,0,0,0,0-0.1h-4.7L32.8,49.4z"/>
		</g>
		<g id="XMLID_539_">
			<circle id="XMLID_412_" class="st0" cx="37" cy="46.6" r="0.6"/>
		</g>
		<g id="XMLID_537_">
			<path id="XMLID_411_" class="st0" d="M30.4,55.3c-0.9,0.7-2.1,0.7-2.9,0c0,0-0.1-0.1-0.1-0.1h-5.9c4,0.7,6.5,1.3,7.5,1.5
				c0.3,0.1,0.6,0.2,1,0.3c1.1,0.3,2.1,0.7,3.5,0.7c0.4,0,0.9,0,1.4-0.1l-0.6-2.4h-3.6C30.5,55.2,30.5,55.3,30.4,55.3z"/>
		</g>
		<g id="XMLID_535_">
			<path id="XMLID_410_" class="st1" d="M17.7,47.6C17.7,47.6,17.7,47.6,17.7,47.6c-0.2,0.5-0.4,0.9-0.5,1.3l7.2,3.6h2.4
				c0.4-0.9,1.2-1.5,2.2-1.5c1.3,0,2.4,1.1,2.4,2.4c0,0.7-0.3,1.3-0.8,1.7h3.6L33.4,52l-1.6-1.2L29.1,49h-1.9
				c-0.4,0.9-1.2,1.5-2.2,1.5c-1.3,0-2.4-1.1-2.4-2.4c0-0.2,0-0.3,0.1-0.5H17.7z"/>
		</g>
		<g id="XMLID_533_">
			<circle id="XMLID_409_" class="st2" cx="31.9" cy="42.9" r="0.6"/>
		</g>
		<g id="XMLID_531_">
			<path id="XMLID_408_" class="st2" d="M28.7,59C28.7,59,28.7,59.1,28.7,59c-0.1,0.4-0.2,0.7-0.4,0.9c-0.4,0.6-1.1,1-2,1.3
				c-0.2,1.4-0.2,2.8-0.1,3.3h1.4l0.1-1.1c-0.6-1.8,1.7-3.8,2-4c0.1-0.1,0.3-0.1,0.5-0.1c0.4,0.1,0.7,0,0.9-0.1c0,0,0.1-0.1,0.1-0.2
				H28.7z"/>
		</g>
		<g id="XMLID_529_">
			<path id="XMLID_407_" class="st2" d="M26.2,43.8l-0.1-0.7l-0.5-2.4c-2.2,0.7-4.1,1.8-5.4,3.1H26.2z"/>
		</g>
		<g id="XMLID_527_">
			<path id="XMLID_406_" class="st1" d="M29,54c0.3,0,0.6-0.3,0.6-0.6c0-0.3-0.3-0.6-0.6-0.6c-0.3,0-0.6,0.3-0.6,0.6
				C28.4,53.8,28.6,54,29,54z"/>
		</g>
		<g id="XMLID_525_">
			<path id="XMLID_405_" class="st2" d="M24.8,60.3c1.3-0.1,2.2-0.4,2.6-1c0.1-0.1,0.1-0.2,0.1-0.3h-1.9c0,0,0,0.1,0,0.1
				C25.4,59.6,25.1,60,24.8,60.3z"/>
		</g>
		<g id="XMLID_523_">
			<path id="XMLID_404_" class="st1" d="M26.8,54.3l-2.7,0l-0.2-0.1l-7-3.6c-0.2,1.1-0.1,2.1,0.2,2.8c0.4,0.8,1,1.1,1.2,1.1
				c0.2,0,1.1,0.2,2.5,0.4c0.3,0,0.5,0.1,0.8,0.1h5.9C27.1,54.9,26.9,54.7,26.8,54.3z"/>
		</g>
		<g id="XMLID_521_">
			<path id="XMLID_403_" class="st1" d="M24.6,47.7c-0.1,0.1-0.2,0.3-0.2,0.4c0,0.3,0.3,0.6,0.6,0.6c0.3,0,0.6-0.3,0.6-0.6
				c0-0.2-0.1-0.3-0.2-0.4c-0.1-0.1-0.3-0.2-0.4-0.2C24.8,47.5,24.7,47.6,24.6,47.7z"/>
		</g>
		<g id="XMLID_519_">
			<path id="XMLID_402_" class="st2" d="M24.8,59h-2c-0.1,0-0.1,0.1-0.2,0.1c-0.4,0.3-0.8,0.6-1.3,0.8c0.6,0.2,1.3,0.3,2.1,0.4
				c0.1,0,0.2,0,0.4,0C24.2,60,24.5,59.5,24.8,59z"/>
		</g>
		<g id="XMLID_517_">
			<path id="XMLID_401_" class="st2" d="M19.7,59c0.2,0.2,0.5,0.4,0.7,0.5c0.3-0.1,0.7-0.3,1-0.5H19.7z"/>
		</g>
		<g id="XMLID_513_">
			<path id="XMLID_514_" d="M18.7,57.9c1-0.3,2-0.9,3-1.6l0.3-0.2L21.7,56c-1.4-0.3-2.6-0.5-3.3-0.6l-0.2,0l0,0.2
				c0,0.6,0,1.4,0.3,2.2l0.1,0.1L18.7,57.9z M18.5,55.8c0.6,0.1,1.6,0.3,2.7,0.5c-0.8,0.6-1.7,1-2.5,1.3
				C18.5,56.9,18.5,56.2,18.5,55.8z"/>
		</g>
		<g id="XMLID_509_">
			<path id="XMLID_510_" d="M19,58.8c0.1,0.1,0.2,0.2,0.3,0.4c0.3,0.3,0.6,0.5,1,0.7l0.1,0l0.1,0c0.4-0.2,0.9-0.4,1.3-0.7
				c0.9-0.6,1.8-1.4,2.6-2.4l0.2-0.2l-0.3,0c-0.7-0.1-1.4-0.3-2.1-0.4l-0.1,0l-0.1,0C21,57,19.9,57.6,18.8,58l-0.2,0.1l0.1,0.2
				C18.8,58.4,18.9,58.6,19,58.8z M24,56.8c-0.7,0.9-1.5,1.6-2.4,2.1c-0.1,0-0.1,0.1-0.2,0.1c-0.3,0.2-0.7,0.4-1,0.5
				c-0.3-0.2-0.5-0.3-0.7-0.5c0,0-0.1-0.1-0.1-0.1c-0.1-0.1-0.2-0.2-0.3-0.3c-0.1-0.1-0.2-0.2-0.2-0.3c1.1-0.4,2.1-1,3.2-1.8
				C22.9,56.6,23.4,56.7,24,56.8z"/>
		</g>
		<g id="XMLID_505_">
			<path id="XMLID_506_" d="M23.8,60.7l0-0.2L23.8,60.7L23.8,60.7l0.1,0c0.4-0.4,0.8-0.9,1.2-1.5c0.4-0.6,0.7-1.3,1-2l0.1-0.2
				l-0.2,0c-0.3-0.1-0.5-0.1-0.8-0.2l-0.5-0.1l-0.1,0.1c-0.7,0.9-1.5,1.6-2.3,2.2c-0.5,0.4-1,0.7-1.5,0.9L20.6,60l0.3,0.1
				c0.7,0.3,1.5,0.5,2.5,0.5C23.5,60.6,23.7,60.7,23.8,60.7z M23.8,60.4c-0.1,0-0.2,0-0.4,0c-0.8,0-1.5-0.2-2.1-0.4
				c0.4-0.2,0.8-0.5,1.3-0.8c0.1,0,0.1-0.1,0.2-0.1c0.7-0.6,1.4-1.3,2.1-2.1l0.3,0.1c0.2,0,0.4,0.1,0.6,0.1
				c-0.3,0.7-0.6,1.3-0.9,1.8c0,0,0,0.1-0.1,0.1C24.5,59.5,24.2,60,23.8,60.4z"/>
		</g>
		<g id="XMLID_501_">
			<path id="XMLID_502_" d="M27.7,59.5c0.1-0.1,0.2-0.3,0.2-0.4c0.3-0.7,0.1-1.5,0-1.7l0-0.1l-0.1,0c-0.4-0.1-0.8-0.2-1.3-0.3
				l-0.1,0l0,0.1c-0.2,0.7-0.5,1.3-0.9,1.9c-0.3,0.6-0.7,1-1,1.5l-0.2,0.3l0.4,0C26.1,60.6,27.2,60.2,27.7,59.5z M25.7,59
				c0.3-0.5,0.6-1.1,0.8-1.7c0.4,0.1,0.8,0.2,1.1,0.2c0.1,0.3,0.2,0.9,0,1.5c0,0,0,0,0,0c0,0.1-0.1,0.2-0.1,0.3
				c-0.4,0.6-1.3,0.9-2.6,1C25.1,60,25.4,59.6,25.7,59C25.7,59.1,25.7,59.1,25.7,59z"/>
		</g>
		<g id="XMLID_497_">
			<path id="XMLID_498_" d="M31.6,58.3l-0.1,0c-0.6-0.1-1.2-0.3-1.7-0.5l-0.1,0c-0.3-0.1-0.6-0.2-0.9-0.3c0,0-0.1,0-0.1,0l-0.2-0.1
				l0.1,0.3c0.1,0.5,0.1,1,0,1.4c-0.1,0.3-0.2,0.5-0.3,0.8c-0.4,0.6-1,0.9-1.9,1.2l-0.1,0l0,0.1c-0.2,1.4-0.3,3.1-0.1,3.7l0,0.1h2
				l0.1-1.4l0,0c-0.5-1.7,1.6-3.5,1.9-3.7c0.1,0,0.1-0.1,0.2,0c0.5,0.1,0.9,0,1.1-0.2c0.1-0.1,0.2-0.2,0.2-0.4
				c0.1-0.2,0.1-0.5,0.1-0.7L31.6,58.3z M31.2,59C31.2,59,31.1,59,31.2,59c-0.1,0.1-0.1,0.2-0.2,0.3c-0.2,0.2-0.5,0.2-0.9,0.1
				c-0.2,0-0.3,0-0.5,0.1c-0.3,0.2-2.5,2.1-2,4l-0.1,1.1h-1.4c-0.1-0.6,0-1.9,0.1-3.3c0.9-0.2,1.6-0.7,2-1.3
				c0.2-0.3,0.3-0.6,0.4-0.9c0,0,0,0,0,0c0.1-0.4,0.1-0.8,0-1.2c0.3,0.1,0.5,0.1,0.8,0.2l0.1,0c0.5,0.2,1,0.3,1.6,0.4
				C31.2,58.6,31.2,58.8,31.2,59z"/>
		</g>
		<g id="XMLID_493_">
			<path id="XMLID_494_" d="M42.2,49.2c-0.5,0-0.9,0.4-0.9,0.9c0,0.5,0.4,0.9,0.9,0.9c0.5,0,0.9-0.4,0.9-0.9
				C43.1,49.6,42.7,49.2,42.2,49.2z M42.2,50.7c-0.3,0-0.6-0.3-0.6-0.6c0-0.3,0.3-0.6,0.6-0.6c0.3,0,0.6,0.3,0.6,0.6
				C42.8,50.4,42.5,50.7,42.2,50.7z"/>
		</g>
		<g id="XMLID_489_">
			<path id="XMLID_490_" d="M46.3,48L46.3,48c-0.1-0.2-0.1-0.3-0.1-0.4c-0.5-1.5-1.3-2.8-2.4-3.9c-2.6-2.7-6.9-4.2-11.8-4.2
				c-1.7,0-3.3,0.2-4.9,0.5l-0.1,0l0.5,2.3h2.5l0-0.1c0.3-0.9,1.1-1.4,2-1.4c1.1,0,2.1,0.9,2.1,2.1c0,0.3-0.1,0.6-0.2,0.8
				c-0.3,0.8-1.1,1.3-1.9,1.3c-0.8,0-1.6-0.5-1.9-1.3l0,0c0,0,0,0,0,0l0-0.1h-3.5L26.4,43l-0.6-2.7l-0.2,0c-2.4,0.7-4.4,1.9-5.8,3.3
				c-0.4,0.4-0.8,0.8-1.1,1.3c-0.2,0.2-0.3,0.5-0.5,0.8c-0.3,0.6-0.6,1.2-0.8,1.8c-0.2,0.5-0.4,0.9-0.5,1.4l0,0.1l7.4,3.8l2.7,0
				l0-0.1c0.3-0.8,1.1-1.4,2-1.4c1.1,0,2.1,0.9,2.1,2.1c0,0.6-0.3,1.2-0.8,1.6c-0.7,0.6-1.8,0.6-2.6,0c-0.3-0.2-0.5-0.6-0.7-0.9
				l0-0.1h-2.9L23.9,54l-7.4-3.7l0,0.2c-0.3,1.3-0.2,2.4,0.2,3.2c0.4,0.9,1.1,1.2,1.4,1.3l0.1,0c0.1,0,1.2,0.2,2.5,0.5
				c4.4,0.8,7.3,1.4,8.3,1.7c0.3,0.1,0.6,0.2,0.9,0.3l0,0C31,57.7,32,58,33.4,58c0.5,0,1,0,1.6-0.1l0.2,0l-1.6-6l-4.4-3.1H27l0,0.1
				c-0.3,0.9-1.1,1.4-2,1.4c-1.1,0-2.1-0.9-2.1-2.1c0-0.2,0-0.3,0.1-0.5c0.2-0.9,1.1-1.6,2-1.6c0.9,0,1.6,0.5,1.9,1.4l0,0.1h2.6
				l3,2.1l2.1,1.5l1.6,6.3l0.1,0.1l0.2-0.1c0.9-0.2,1.5-0.6,1.8-1.2c0.1-0.2,0.2-0.5,0.2-0.7c0-0.1,0-0.3,0-0.4c0-0.1,0-0.2-0.1-0.3
				l0,0c0,0,0-0.1,0-0.1l0,0l-1.6-6l-0.1,0c-0.7-0.1-1.3-0.5-1.7-1.1c-0.2-0.3-0.3-0.6-0.3-1c0-1.1,0.9-2.1,2.1-2.1
				c1.1,0,2.1,0.9,2.1,2.1c0,0.3-0.1,0.7-0.2,1c-0.2,0.3-0.4,0.6-0.7,0.7l-0.1,0.1l1.6,6.2l0.4,0c0.7,0,1.4,0,2-0.1
				c0.2,0,0.4-0.1,0.6-0.1l0.2,0l-0.5-2l0-0.1h-0.1c-1.1,0-2.1-0.9-2.1-2.1c0-1.1,0.9-2.1,2.1-2.1c1.1,0,2.1,0.9,2.1,2.1
				c0,0.6-0.3,1.2-0.8,1.6l-0.1,0.1L44,54l0.2-0.1c1-0.4,1.8-0.9,2.2-1.7C47.5,50.5,46.4,48.2,46.3,48z M44.2,53.6l-0.4-1.7
				c0.5-0.5,0.8-1.1,0.8-1.8c0-1.3-1.1-2.4-2.4-2.4c-1.3,0-2.4,1.1-2.4,2.4c0,1.3,1,2.3,2.3,2.4l0.4,1.6c-0.1,0-0.3,0-0.4,0.1
				c-0.6,0.1-1.3,0.1-2,0.1l-0.1,0l-1.5-5.7c0.3-0.2,0.5-0.5,0.7-0.8c0,0,0,0,0-0.1c0.2-0.3,0.2-0.7,0.2-1c0-1.3-1.1-2.4-2.4-2.4
				c-1.3,0-2.4,1.1-2.4,2.4c0,0.4,0.1,0.7,0.3,1c0,0,0,0,0,0.1c0.4,0.7,1,1.1,1.8,1.2l1.5,5.8c0,0,0,0.1,0,0.2l0,0
				c0,0.1,0,0.2,0,0.3c0,0,0,0,0,0c0,0.1,0,0.2,0,0.3c0,0.2-0.1,0.4-0.2,0.6c-0.3,0.5-0.8,0.8-1.5,1.1l-0.5-2l-1.1-4.3l-2.2-1.5
				l-2.5-1.8L30,47.5l-0.4-0.3h-2.5c-0.4-0.9-1.2-1.5-2.2-1.5c-1.1,0-2,0.7-2.3,1.8c0,0,0,0,0,0c0,0.2-0.1,0.4-0.1,0.5
				c0,1.3,1.1,2.4,2.4,2.4c1,0,1.9-0.6,2.2-1.5h1.9l2.6,1.8l1.6,1.2l0.8,3.2l0.6,2.4c-0.5,0.1-0.9,0.1-1.4,0.1
				c-1.4,0-2.4-0.3-3.5-0.7c-0.3-0.1-0.6-0.2-1-0.3c-1-0.3-3.6-0.8-7.5-1.5c-0.3,0-0.5-0.1-0.8-0.1c-1.4-0.2-2.3-0.4-2.5-0.4
				c-0.2-0.1-0.8-0.3-1.2-1.1c-0.3-0.7-0.4-1.6-0.2-2.8l7,3.6l0.2,0.1l2.7,0c0.1,0.3,0.3,0.6,0.6,0.9c0,0,0.1,0.1,0.1,0.1
				c0.9,0.7,2.1,0.7,2.9,0c0,0,0.1-0.1,0.1-0.1c0.5-0.5,0.8-1.1,0.8-1.7c0-1.3-1.1-2.4-2.4-2.4c-1,0-1.8,0.6-2.2,1.5h-2.4l-7.2-3.6
				c0.1-0.4,0.3-0.8,0.5-1.2c0,0,0,0,0-0.1c0.2-0.6,0.5-1.1,0.8-1.7c0.2-0.3,0.3-0.6,0.5-0.8c0.3-0.4,0.6-0.8,1-1.2
				c0,0,0.1-0.1,0.1-0.1c1.3-1.3,3.2-2.4,5.4-3.1l0.5,2.4l0.1,0.7l0,0.1h3.5c0,0,0,0,0,0c0.4,0.9,1.2,1.4,2.2,1.4
				c0.9,0,1.8-0.6,2.2-1.4c0,0,0,0,0-0.1c0.1-0.3,0.2-0.6,0.2-0.9c0-1.3-1.1-2.4-2.4-2.4c-1,0-1.9,0.6-2.2,1.5h-2l-0.4-1.8
				c1.5-0.3,3.1-0.5,4.7-0.5c2.2,0,7.8,0.4,11.5,4c0,0,0.1,0.1,0.1,0.1c1,1.1,1.8,2.3,2.3,3.7c0,0,0,0,0,0.1c0,0.1,0.1,0.2,0.1,0.3
				c0,0,0,0.1,0,0.1c0.1,0.2,1.1,2.4,0.1,4C45.7,52.7,45.1,53.2,44.2,53.6z"/>
		</g>
		<g id="XMLID_485_">
			<path id="XMLID_486_" d="M36.1,46.6c0,0.5,0.4,0.9,0.9,0.9c0.5,0,0.9-0.4,0.9-0.9c0-0.5-0.4-0.9-0.9-0.9
				C36.5,45.7,36.1,46.1,36.1,46.6z M37,47.2c-0.3,0-0.6-0.3-0.6-0.6c0-0.3,0.3-0.6,0.6-0.6c0.3,0,0.6,0.3,0.6,0.6
				C37.6,46.9,37.4,47.2,37,47.2z"/>
		</g>
		<g id="XMLID_481_">
			<path id="XMLID_482_" d="M24.4,47.5c-0.2,0.2-0.3,0.4-0.3,0.7c0,0.5,0.4,0.9,0.9,0.9c0.5,0,0.9-0.4,0.9-0.9
				c0-0.2-0.1-0.5-0.3-0.7C25.2,47.2,24.7,47.2,24.4,47.5z M25.4,47.7c0.1,0.1,0.2,0.3,0.2,0.4c0,0.3-0.3,0.6-0.6,0.6
				c-0.3,0-0.6-0.3-0.6-0.6c0-0.2,0.1-0.3,0.2-0.4c0.1-0.1,0.2-0.2,0.4-0.2C25.1,47.5,25.3,47.6,25.4,47.7z"/>
		</g>
		<g id="XMLID_477_">
			<path id="XMLID_478_" d="M29.9,53.4c0-0.5-0.4-0.9-0.9-0.9c-0.5,0-0.9,0.4-0.9,0.9c0,0.5,0.4,0.9,0.9,0.9
				C29.5,54.3,29.9,53.9,29.9,53.4z M29,52.8c0.3,0,0.6,0.3,0.6,0.6c0,0.3-0.3,0.6-0.6,0.6c-0.3,0-0.6-0.3-0.6-0.6
				C28.4,53.1,28.6,52.8,29,52.8z"/>
		</g>
		<g id="XMLID_473_">
			<path id="XMLID_474_" d="M32.8,42.9c0-0.5-0.4-0.9-0.9-0.9S31,42.4,31,42.9c0,0.5,0.4,0.9,0.9,0.9S32.8,43.4,32.8,42.9z
				 M31.9,42.3c0.3,0,0.6,0.3,0.6,0.6c0,0.3-0.3,0.6-0.6,0.6c-0.3,0-0.6-0.3-0.6-0.6C31.3,42.5,31.6,42.3,31.9,42.3z"/>
		</g>
	</g>
</g>
</svg>
