<?xml version="1.0" encoding="utf-8"?>
<!-- Generator: Adobe Illustrator 19.0.0, SVG Export Plug-In . SVG Version: 6.00 Build 0)  -->
<svg version="1.1" id="Layer_1" xmlns="http://www.w3.org/2000/svg" xmlns:xlink="http://www.w3.org/1999/xlink" x="0px" y="0px"
	 viewBox="-275 257 240 100" style="enable-background:new -275 257 240 100;" xml:space="preserve">
<style type="text/css">
	.st0{fill:#676664;}
	.st1{fill:#F5A700;}
	.st2{fill:#4C484A;}
</style>
<g>
	<g>
		<g>
			<path class="st0" d="M-211.2,294.7c0.4-0.7,0.9-1.3,1.5-1.7c0.6-0.4,1.3-0.8,2.1-1c0.8-0.2,1.6-0.3,2.4-0.3h22
				c0.8,0,1.5,0.1,2.3,0.3c0.8,0.2,1.5,0.6,2.1,1.1c0.6,0.5,1.1,1.1,1.5,1.7c0.4,0.7,0.6,1.5,0.6,2.4v5.2h-8.5v-3.6h-18.1v16.5h18.1
				v-3.5h8.5v5.1c0,0.9-0.2,1.7-0.6,2.4c-0.4,0.7-0.9,1.3-1.5,1.7c-0.6,0.5-1.3,0.8-2.1,1.1c-0.8,0.2-1.5,0.3-2.3,0.3h-22
				c-0.8,0-1.6-0.1-2.4-0.3c-0.8-0.2-1.5-0.5-2.1-1c-0.6-0.4-1.1-1-1.5-1.7c-0.4-0.7-0.6-1.5-0.6-2.5v-19.7
				C-211.8,296.2-211.6,295.3-211.2,294.7"/>
		</g>
		<g>
			<path class="st0" d="M-172.5,304.4h24.3l0.8-0.6v-4.7l-0.8-0.6h-24.3v-6.9h29.7c0.5,0,0.9,0.1,1.4,0.4c0.5,0.3,1,0.6,1.4,1.1
				c0.4,0.4,0.8,0.9,1,1.4c0.3,0.5,0.4,1,0.4,1.4v9.8c0,1.1-0.2,2-0.7,2.7c-0.5,0.8-1.1,1.4-1.8,1.8c-0.8,0.5-1.6,0.8-2.6,1
				c-0.9,0.2-1.9,0.3-2.9,0.3l11.7,10.6h-12.1l-11.7-10.6h-5.2v10.6h-8.6V304.4z"/>
		</g>
		<g>
			<polygon class="st0" points="-133,291.6 -101.8,291.6 -101.8,298.5 -124.6,298.5 -124.6,303.6 -112.6,303.6 -112.6,310.6 
				-124.6,310.6 -124.6,315.5 -101.8,315.5 -101.8,322.4 -133,322.4 			"/>
		</g>
		<g>
			<path class="st0" d="M-64.1,317.5v-5.1h-4.9V302l-5.3-10.3H-83l-16,30.7h10.5l2-4.1H-71l1.9,4.1h10.5l-2.5-4.8H-64.1z M-83,311.1
				l4.3-7.5l4.2,7.5H-83z"/>
		</g>
		<g>
			<polygon class="st1" points="-54.5,297.6 -54.5,302.8 -49.4,302.8 -49.4,310.1 -54.5,310.1 -54.5,315.3 -61.6,315.3 -61.6,310.1 
				-66.7,310.1 -66.7,302.8 -61.6,302.8 -61.6,297.6 			"/>
		</g>
		<g>
			<rect x="-221.5" y="291.6" class="st2" width="1.3" height="30.4"/>
		</g>
	</g>
	<g>
		<polygon class="st1" points="-245.3,291.8 -241.4,302.5 -230,303 -239,310 -235.9,320.9 -245.3,314.6 -254.8,320.9 -251.7,310 
			-260.6,303 -249.3,302.5 		"/>
	</g>
</g>
</svg>
