<?xml version="1.0" encoding="utf-8"?>
<!-- Generator: Adobe Illustrator 19.0.0, SVG Export Plug-In . SVG Version: 6.00 Build 0)  -->
<svg version="1.1" id="Layer_3" xmlns="http://www.w3.org/2000/svg" xmlns:xlink="http://www.w3.org/1999/xlink" x="0px" y="0px"
	 viewBox="0 0 40 40" style="enable-background:new 0 0 40 40;" xml:space="preserve">
<style type="text/css">
	.st0{fill:#547BBC;}
	.st1{fill:#FFFFFF;}
</style>
<g id="XMLID_2_">
	<path id="XMLID_21_" class="st0" d="M20,40c11,0,20-9,20-20C40,9,31,0,20,0C9,0,0,9,0,20C0,31,9,40,20,40"/>
	<path id="XMLID_20_" class="st1" d="M15.2,16.6h2.1v-2c0-0.9,0-2.3,0.7-3.1c0.7-0.9,1.6-1.5,3.2-1.5c2.6,0,3.7,0.4,3.7,0.4
		l-0.5,3.1c0,0-0.9-0.2-1.7-0.2c-0.8,0-1.5,0.3-1.5,1.1v2.3h3.3l-0.2,3h-3.1V30h-3.9V19.6h-2.1V16.6z"/>
</g>
</svg>
