<?xml version="1.0" encoding="utf-8"?>
<!-- Generator: Adobe Illustrator 19.0.0, SVG Export Plug-In . SVG Version: 6.00 Build 0)  -->
<svg version="1.1" id="Layer_1" xmlns="http://www.w3.org/2000/svg" xmlns:xlink="http://www.w3.org/1999/xlink" x="0px" y="0px"
	 viewBox="443.6 626 144.6 30" style="enable-background:new 443.6 626 144.6 30;" xml:space="preserve">
<style type="text/css">
	.st0{fill:#B6D2CA;}
</style>
<g>
	<path class="st0" d="M453.4,635.7l-9.8-9.7v8.5l5.5,5.4c0.6,0.6,0.6,1.5,0,2.1l-5.5,5.5v8.5l9.8-9.7
		C456.3,643.4,456.3,638.6,453.4,635.7z"/>
	<path class="st0" d="M510.5,626h-6c-2.5,0-4.5,2-4.5,4.5V656h3v-13.5h7.5c2.5,0,4.5-2,4.5-4.5v-7.5C515,628,513,626,510.5,626z
		 M512,638c0,0.8-0.7,1.5-1.5,1.5H503v-9c0-0.8,0.7-1.5,1.5-1.5h6c0.8,0,1.5,0.7,1.5,1.5V638z"/>
	<g>
		<path class="st0" d="M529.1,656h-6c-2.5,0-4.5-2-4.5-4.5V626h3v25.5c0,0.8,0.7,1.5,1.5,1.5h6c0.8,0,1.5-0.7,1.5-1.5V626h3v25.5
			C533.6,654,531.6,656,529.1,656z"/>
	</g>
	<g>
		<path class="st0" d="M583.7,656h-6c-2.5,0-4.5-2-4.5-4.5v-21c0-2.5,2-4.5,4.5-4.5h6c2.5,0,4.5,2,4.5,4.5v21
			C588.2,654,586.2,656,583.7,656z M577.7,629c-0.8,0-1.5,0.7-1.5,1.5v21c0,0.8,0.7,1.5,1.5,1.5h6c0.8,0,1.5-0.7,1.5-1.5v-21
			c0-0.8-0.7-1.5-1.5-1.5H577.7z"/>
	</g>
	<path class="st0" d="M491.9,626h-18c-2.5,0-4.5,2-4.5,4.5V656h3v-25.5c0-0.8,0.7-1.5,1.5-1.5h7.5v27h3v-27h7.5
		c0.8,0,1.5,0.7,1.5,1.5V656h3v-25.5C496.4,628,494.4,626,491.9,626z"/>
	<g id="I_5_">
		<rect x="462.8" y="626" class="st0" width="3" height="30"/>
	</g>
	<g>
		<path class="st0" d="M565.1,656h-10.5v-3h10.5c0.8,0,1.5-0.7,1.5-1.5V644c0-0.8-0.7-1.5-1.5-1.5h-6c-2.5,0-4.5-2-4.5-4.5v-7.5
			c0-2.5,2-4.5,4.5-4.5h10.5v3h-10.5c-0.8,0-1.5,0.7-1.5,1.5v7.5c0,0.8,0.7,1.5,1.5,1.5h6c2.5,0,4.5,2,4.5,4.5v7.5
			C569.6,654,567.6,656,565.1,656z"/>
	</g>
	<g>
		<path class="st0" d="M552.2,656h-10.5c-2.5,0-4.5-2-4.5-4.5V626h3v25.5c0,0.8,0.7,1.5,1.5,1.5h10.5V656z"/>
	</g>
</g>
</svg>
