<?xml version="1.0" encoding="utf-8"?>
<!-- Generator: Adobe Illustrator 19.0.0, SVG Export Plug-In . SVG Version: 6.00 Build 0)  -->
<svg version="1.1" id="Layer_2" xmlns="http://www.w3.org/2000/svg" xmlns:xlink="http://www.w3.org/1999/xlink" x="0px" y="0px"
	 viewBox="0 0 40 40" style="enable-background:new 0 0 40 40;" xml:space="preserve">
<style type="text/css">
	.st0{fill:#4B4B4B;}
	.st1{fill:#FFFFFF;}
</style>
<g id="XMLID_2_">
	<path id="XMLID_13_" class="st0" d="M20,40c11,0,20-9,20-20C40,9,31,0,20,0C9,0,0,9,0,20C0,31,9,40,20,40"/>
	<path id="XMLID_24_" class="st1" d="M16.7,29c-2.4,0-4.1-1.5-4.1-3.3c0-1.8,2.1-3.2,4.5-3.2c0.6,0,1.1,0.1,1.5,0.2
		c1.3,0.9,2.2,1.4,2.5,2.4c0,0.2,0.1,0.4,0.1,0.6C21.2,27.5,20,29,16.7,29 M17.3,18.4c-1.6,0-3.1-1.8-3.4-3.9
		c-0.3-2.1,0.8-3.7,2.4-3.7c1.6,0,3.1,1.7,3.4,3.8C20,16.7,18.9,18.4,17.3,18.4 M20.6,21.5c-0.6-0.4-1.6-1.4-1.6-1.9
		c0-0.7,0.2-1,1.2-1.8c1-0.8,1.7-1.9,1.7-3.2c0-1.6-0.7-3.1-2-3.6h2l1.4-1h-6.2c-2.8,0-5.4,2.1-5.4,4.5c0,2.5,1.9,4.5,4.7,4.5
		c0.2,0,0.4,0,0.6,0c-0.2,0.4-0.3,0.7-0.3,1.2c0,0.7,0.4,1.3,0.8,1.7c-0.4,0-0.7,0-1.1,0c-3.4,0-6.1,2.2-6.1,4.5
		c0,2.2,2.9,3.6,6.3,3.6c3.9,0,6.1-2.2,6.1-4.5C22.8,23.7,22.3,22.6,20.6,21.5 M29.6,18.5h-2.4v-2.4h-1.9v2.4h-2.4v1.9h2.4v2.4h1.9
		v-2.4h2.4V18.5z"/>
</g>
</svg>
