<?xml version="1.0" encoding="utf-8"?>
<!-- Generator: Adobe Illustrator 19.0.0, SVG Export Plug-In . SVG Version: 6.00 Build 0)  -->
<svg version="1.1" id="Layer_1" xmlns="http://www.w3.org/2000/svg" xmlns:xlink="http://www.w3.org/1999/xlink" x="0px" y="0px"
	 viewBox="111 -10.5 462.1 121.5" style="enable-background:new 111 -10.5 462.1 121.5;" xml:space="preserve">
<style type="text/css">
	.st0{fill:#FFFFFF;}
</style>
<polygon class="st0" points="-9.7,648.1 -13.4,648.1 -13.4,630.4 -33,630.4 -33,648.1 -36.8,648.1 -36.8,609.6 -33,609.6 -33,626.8 
	-13.4,626.8 -13.4,609.6 -9.7,609.6 "/>
<path class="st0" d="M33.7,648.1h-4.3l-5.4-13H6.1l-5.4,13h-4.9L13,609.6h4.3L33.7,648.1z M22.6,631.7l-7.4-17.6l-7.5,17.6H22.6z"/>
<path class="st0" d="M61.7,648.1H57l-13-17.4h3.8c3.4,0,6.1-0.8,8-2.6c1.9-1.7,2.9-3.9,2.7-6.6c-0.1-2.4-0.9-4.4-2.6-5.9
	c-1.7-1.6-4.1-2.4-7-2.4h-8.6v34.9h-3.9v-38.5h12.3c4.3,0,7.6,1.2,10.2,3.6c2.6,2.4,3.8,5.3,3.7,9c-0.1,3-1.1,5.6-3.1,7.8
	c-1.9,2.1-4.4,3.4-7.3,3.7l-1.1,0.1L61.7,648.1z"/>
<path class="st0" d="M66.1,648.1v-38.5h11.2c6.2,0,11.2,1.9,15.2,5.5c3.9,3.6,5.9,8.2,5.9,13.8c0,5.3-1.9,9.8-5.7,13.5
	c-3.7,3.8-8.3,5.7-13.5,5.7H66.1z M78.9,644.5c4.4,0,8.1-1.6,11.1-4.8s4.6-7,4.4-11.4c-0.1-4.3-1.8-7.9-5.1-10.8s-7.1-4.3-11.6-4.3
	h-8.1v31.3H78.9z"/>
<polygon class="st0" points="139.8,648.1 134.5,648.1 126,616.5 117.9,648.1 112.6,648.1 101.8,609.5 105.7,609.5 115.2,643 
	124.3,609.5 127.8,609.5 137.2,642.8 146.4,609.5 150.7,609.5 "/>
<path class="st0" d="M192.9,648.1h-4.3l-5.5-13h-17.9l-5.4,13H155l17.2-38.5h4.3L192.9,648.1z M181.8,631.7l-7.4-17.6l-7.4,17.6
	H181.8z"/>
<path class="st0" d="M220.9,648.1h-4.7l-13-17.4h3.8c3.4,0,6.1-0.8,8-2.6c1.9-1.7,2.9-3.9,2.8-6.6c-0.1-2.4-1-4.4-2.6-5.9
	c-1.7-1.6-4.1-2.4-7-2.4h-8.6v34.9h-3.9v-38.5H208c4.3,0,7.7,1.2,10.2,3.6c2.6,2.4,3.8,5.3,3.7,9c0,3-1.1,5.6-3,7.8
	c-2,2.1-4.4,3.4-7.3,3.7l-1.1,0.1L220.9,648.1z"/>
<path class="st0" d="M246.3,648.1h-11.1c-5.8,0-10-3.4-10-9.5v-19.5c0-6,4.1-9.5,10-9.5h11.1v3.6h-11.1c-2,0-3.4,0.4-4.2,1.2
	c-1.2,1.4-1.9,2.7-1.9,4v8.3H242v3.6h-12.9v8.9c0,1.3,0.7,2.6,1.9,4c0.8,0.8,2.2,1.2,4.2,1.2h11.1V648.1L246.3,648.1z"/>
<polygon class="st0" points="260.8,648.1 257,648.1 257,613.3 248.3,613.3 248.3,609.6 269.6,609.6 269.6,613.3 260.8,613.3 "/>
<polygon class="st0" points="299.3,648.1 295.6,648.1 295.6,630.4 276,630.4 276,648.1 272.2,648.1 272.2,609.6 276,609.6 
	276,626.8 295.6,626.8 295.6,609.6 299.3,609.6 "/>
<path class="st0" d="M323.9,648.9c-5.5,0-10.3-1.9-14.3-5.8c-4-3.8-6-8.4-6-13.8c0-5.6,2-10.3,5.9-14.3c4-4,8.7-6,14.2-6
	c5.6,0,10.3,1.9,14.4,5.7s6,8.4,6,13.8c0,5.6-2,10.4-6,14.4C334.2,646.9,329.5,648.9,323.9,648.9 M340.4,628.8c0-4.4-1.7-8.3-5-11.4
	c-3.3-3.1-7.1-4.7-11.6-4.7c-4.4,0-8.3,1.6-11.5,4.8c-3.2,3.1-4.8,6.9-4.8,11.4c0,4.4,1.6,8.2,4.8,11.4s7.1,4.8,11.5,4.8
	c4.6,0,8.5-1.6,11.7-4.8C338.8,637.2,340.4,633.3,340.4,628.8"/>
<polygon class="st0" points="378.2,648.1 373.9,648.1 351.8,614.6 351.8,648.1 347.8,648.1 347.8,609.6 353,609.6 374.2,641.9 
	374.2,609.6 378.2,609.6 "/>
<path class="st0" d="M391.6,691.5c-0.1,0-0.2,0-0.2,0l-442.1-9.4c-1.8-0.1-3.4-0.8-4.6-2.1c-1.1-1.2-1.7-2.8-1.6-4.4l6.8-99.5
	c0.1-3.4,3.1-6.1,6.7-6l442.1,9.4c1.8,0.1,3.4,0.8,4.6,2.1c1.1,1.2,1.7,2.8,1.6,4.4l-6.9,99.5C398,688.9,395.1,691.5,391.6,691.5
	 M-43.6,571.4c-2.8,0-5.1,2.1-5.2,4.8l-6.9,99.5c0,1.3,0.4,2.5,1.3,3.4c1,1,2.3,1.6,3.7,1.7l442.1,9.4c0.1,0,0.1,0,0.2,0
	c2.8,0,5.1-2.1,5.2-4.8l6.9-99.5c0-1.3-0.4-2.5-1.3-3.4c-1-1-2.3-1.6-3.7-1.7l-442.1-9.4C-43.4,571.4-43.5,571.4-43.6,571.4"/>
<g>
	<g>
		<g>
			<polygon class="st0" points="158.2,67.6 154.6,67.6 154.6,49.9 134.9,49.9 134.9,67.6 131.1,67.6 131.1,29.2 134.9,29.2 
				134.9,46.3 154.6,46.3 154.6,29.2 158.2,29.2 			"/>
			<path class="st0" d="M201.6,67.6h-4.3l-5.4-13h-17.9l-5.4,13h-4.9l17.2-38.5h4.3L201.6,67.6z M190.6,51.2l-7.4-17.6l-7.5,17.6
				H190.6z"/>
			<path class="st0" d="M229.6,67.6h-4.7l-13-17.4h3.8c3.4,0,6.1-0.8,8-2.6c1.9-1.7,2.9-3.9,2.7-6.6c-0.1-2.4-0.9-4.4-2.6-5.9
				c-1.7-1.6-4.1-2.4-7-2.4h-8.6v34.9h-3.9V29.1h12.3c4.3,0,7.6,1.2,10.2,3.6c2.6,2.4,3.8,5.3,3.7,9c-0.1,3-1.1,5.6-3.1,7.8
				c-1.9,2.1-4.4,3.4-7.3,3.7l-1.1,0.1L229.6,67.6z"/>
			<path class="st0" d="M234.1,67.6V29.1h11.2c6.2,0,11.2,1.9,15.2,5.5c3.9,3.6,5.9,8.2,5.9,13.8c0,5.3-1.9,9.8-5.7,13.5
				c-3.7,3.8-8.3,5.7-13.5,5.7H234.1z M246.9,64c4.4,0,8.1-1.6,11.1-4.8c3-3.2,4.6-7,4.4-11.4c-0.1-4.3-1.8-7.9-5.1-10.8
				c-3.3-2.9-7.1-4.3-11.6-4.3h-8.1V64L246.9,64L246.9,64z"/>
			<polygon class="st0" points="307.8,67.6 302.5,67.6 294,36 285.9,67.6 280.5,67.6 269.8,29.1 273.8,29.1 283.1,62.5 292.2,29.1 
				295.9,29.1 305.2,62.3 314.4,29.1 318.6,29.1 			"/>
			<path class="st0" d="M360.9,67.6h-4.3l-5.5-13h-17.9l-5.4,13H323l17.2-38.5h4.3L360.9,67.6z M349.8,51.2l-7.4-17.6l-7.5,17.6
				H349.8z"/>
			<path class="st0" d="M388.9,67.6h-4.7l-13-17.4h3.8c3.4,0,6.1-0.8,8-2.6c1.9-1.7,2.9-3.9,2.8-6.6c-0.1-2.4-1-4.4-2.6-5.9
				c-1.7-1.6-4.1-2.4-7-2.4h-8.6v34.9h-3.9V29.1H376c4.3,0,7.7,1.2,10.2,3.6c2.6,2.4,3.8,5.3,3.7,9c0,3-1.1,5.6-3,7.8
				c-2,2.1-4.4,3.4-7.3,3.7l-1.1,0.1L388.9,67.6z"/>
			<path class="st0" d="M414.2,67.6h-11.1c-5.8,0-10-3.4-10-9.5V38.5c0-6,4.1-9.5,10-9.5h11.1v3.6h-11.1c-2,0-3.4,0.4-4.2,1.2
				c-1.2,1.4-1.9,2.7-1.9,4v8.3H410v3.6h-12.9v8.9c0,1.3,0.7,2.6,1.9,4c0.8,0.8,2.2,1.2,4.2,1.2h11.1V67.6z"/>
			<polygon class="st0" points="428.9,67.6 425,67.6 425,32.8 416.2,32.8 416.2,29.2 437.6,29.2 437.6,32.8 428.9,32.8 			"/>
			<polygon class="st0" points="467.2,67.6 463.6,67.6 463.6,49.9 444,49.9 444,67.6 440.2,67.6 440.2,29.2 444,29.2 444,46.3 
				463.6,46.3 463.6,29.2 467.2,29.2 			"/>
			<path class="st0" d="M491.9,68.4c-5.5,0-10.3-1.9-14.3-5.8c-4-3.8-6-8.4-6-13.8c0-5.6,2-10.3,5.9-14.3c4-4,8.7-6,14.2-6
				c5.6,0,10.3,1.9,14.4,5.7c4.1,3.8,6,8.4,6,13.8c0,5.6-2,10.4-6,14.4C502.2,66.4,497.5,68.4,491.9,68.4 M508.4,48.3
				c0-4.4-1.7-8.3-5-11.4s-7.1-4.7-11.6-4.7c-4.4,0-8.3,1.6-11.5,4.8c-3.2,3.1-4.8,6.9-4.8,11.4c0,4.4,1.6,8.2,4.8,11.4
				c3.2,3.2,7.1,4.8,11.5,4.8c4.6,0,8.5-1.6,11.7-4.8C506.8,56.7,508.5,52.8,508.4,48.3"/>
			<polygon class="st0" points="546.2,67.6 541.8,67.6 519.8,34.1 519.8,67.6 515.8,67.6 515.8,29.1 521,29.1 542.2,61.4 
				542.2,29.1 546.2,29.1 			"/>
			<path class="st0" d="M559.7,111c-0.1,0-0.2,0-0.2,0l-442.1-9.4c-1.8-0.1-3.4-0.8-4.6-2.1c-1.1-1.2-1.7-2.8-1.6-4.4L118-4.4
				c0.1-3.4,3.1-6.1,6.7-6L566.8-1c1.8,0.1,3.4,0.8,4.6,2.1c1.1,1.2,1.7,2.8,1.6,4.4l-6.9,99.5C566,108.4,563.2,111,559.7,111
				 M124.4-9.1c-2.8,0-5.1,2.1-5.2,4.8l-6.9,99.5c0,1.3,0.4,2.5,1.3,3.4c1,1,2.3,1.6,3.7,1.7l442.1,9.4c0.1,0,0.1,0,0.2,0
				c2.8,0,5.1-2.1,5.2-4.8l6.9-99.5c0-1.3-0.4-2.5-1.3-3.4c-1-1-2.3-1.6-3.7-1.7L124.7-9.1C124.5-9.1,124.4-9.1,124.4-9.1"/>
			<path class="st0" d="M124.4,111c-3.5,0-6.4-2.6-6.5-6L111,5.5c-0.1-1.6,0.5-3.2,1.6-4.4c1.2-1.3,2.8-2,4.6-2.1l442.1-9.4
				c3.6-0.1,6.6,2.6,6.7,6l6.9,99.5c0.1,1.6-0.5,3.2-1.6,4.4c-1.2,1.3-2.8,2-4.6,2.1L124.6,111C124.5,111,124.4,111,124.4,111
				 M559.7-9.1c-0.1,0-0.1,0-0.2,0L117.3,0.3c-1.4,0-2.8,0.6-3.7,1.7c-0.9,1-1.4,2.2-1.3,3.4l6.9,99.5c0.1,2.7,2.5,4.9,5.4,4.8
				l442.1-9.4c1.4,0,2.8-0.6,3.7-1.7c0.9-1,1.4-2.2,1.3-3.4l-6.9-99.5C564.8-7,562.5-9.1,559.7-9.1"/>
		</g>
	</g>
	<g>
		<path class="st0" d="M561.2,29.1c0,1.2-0.3,2.2-0.9,3.2c-0.6,1-1.4,1.8-2.4,2.4s-2.1,0.9-3.2,0.9c-1.2,0-2.2-0.3-3.2-0.9
			s-1.8-1.4-2.4-2.4c-0.6-1-0.9-2.1-0.9-3.2c0-1.2,0.3-2.2,0.9-3.2c0.6-1,1.4-1.8,2.4-2.4s2.1-0.9,3.2-0.9c1.2,0,2.2,0.3,3.2,0.9
			s1.8,1.4,2.4,2.4C561,26.9,561.2,28,561.2,29.1z M560,29.1c0-1.4-0.5-2.7-1.5-3.7s-2.2-1.5-3.7-1.5c-1.4,0-2.7,0.5-3.7,1.5
			s-1.5,2.2-1.5,3.7c0,1.4,0.5,2.7,1.5,3.7c1,1,2.2,1.5,3.7,1.5c1.4,0,2.7-0.5,3.7-1.5C559.5,31.8,560,30.6,560,29.1z M551.8,25.7
			h3.1c0.9,0,1.5,0.2,1.9,0.5c0.4,0.4,0.6,0.8,0.6,1.4c0,0.5-0.1,0.9-0.4,1.2c-0.3,0.3-0.8,0.6-1.4,0.7c0.3,0.1,0.5,0.2,0.6,0.3
			c0.2,0.2,0.4,0.4,0.6,0.7c0,0,0.4,0.7,1.1,2h-2c-0.7-1.3-1.1-2.1-1.3-2.4c-0.2-0.3-0.5-0.4-0.7-0.4c-0.1,0-0.1,0-0.2,0v2.7H552
			v-6.7H551.8z M553.5,28.6h0.7c0.5,0,0.8-0.1,1-0.2c0.2-0.2,0.3-0.4,0.3-0.6c0-0.3-0.1-0.5-0.3-0.6c-0.2-0.2-0.5-0.2-1-0.2h-0.8
			L553.5,28.6L553.5,28.6z"/>
	</g>
</g>
</svg>
