<?xml version="1.0" encoding="utf-8"?>
<!-- Generator: Adobe Illustrator 19.0.0, SVG Export Plug-In . SVG Version: 6.00 Build 0)  -->
<svg version="1.1" id="Layer_1" xmlns="http://www.w3.org/2000/svg" xmlns:xlink="http://www.w3.org/1999/xlink" x="0px" y="0px"
	 viewBox="-74 336.5 462.1 121.5" style="enable-background:new -74 336.5 462.1 121.5;" xml:space="preserve">
<style type="text/css">
	.st0{fill:#E85420;}
	.st1{fill:#FFFFFF;}
	.st2{fill:#F15D2A;}
</style>
<g>
	<g>
		<g>
			<path class="st0" d="M-27.5,416.8H-32v-17.7h-18.8v17.7h-4.6v-39.3h4.6v17.1H-32v-17.1h4.5V416.8z M-31.2,416h2.9v-37.7h-2.9
				v17.1h-20.4v-17.1h-2.9V416h2.9v-17.7h20.4V416z"/>
			<path class="st0" d="M16.1,416.8H11l-5.4-13h-17.3l-5.4,13H-23l17.6-39.3h4.8l0.1,0.2L16.1,416.8z M11.5,416h3.4l-16-37.7h-3.8
				L-21.7,416h4l5.4-13H6.1L11.5,416z M5.1,400.4H-11l8.1-19.1L5.1,400.4z M-9.8,399.5H3.8l-6.8-16.1L-9.8,399.5z"/>
			<path class="st0" d="M44.3,416.8h-5.8l-13.6-18.2h4.6c3.3,0,5.9-0.8,7.7-2.5c1.9-1.7,2.7-3.7,2.6-6.2c-0.1-2.3-0.9-4.2-2.5-5.6
				c-1.6-1.6-3.9-2.3-6.7-2.3h-8.2v34.9h-4.8v-39.3h12.7c4.3,0,7.8,1.2,10.5,3.7c2.6,2.4,3.9,5.5,3.8,9.3c-0.1,3.1-1.1,5.8-3.2,8.1
				c-2,2.2-4.6,3.5-7.6,3.8l-0.4,0L44.3,416.8z M39,416h3.7l-10.6-14.3l1.8-0.2c2.8-0.3,5.2-1.4,7-3.5c1.9-2.1,2.9-4.7,2.9-7.5
				c0.1-3.6-1.1-6.4-3.6-8.7c-2.5-2.3-5.8-3.5-9.9-3.5H18.5V416h3.1v-34.9h9c3,0,5.5,0.9,7.3,2.6c1.7,1.5,2.6,3.6,2.7,6.2
				c0.1,2.7-0.8,5-2.9,6.9c-2,1.8-4.8,2.7-8.3,2.7h-2.9L39,416z"/>
			<path class="st0" d="M61,416.8H47.5v-39.3h11.6c6.2,0,11.4,1.9,15.4,5.6c4,3.7,6.1,8.5,6.1,14.1c0,5.4-2,10-5.8,13.8
				C70.9,414.9,66.3,416.8,61,416.8 M48.3,416H61c5.1,0,9.6-1.9,13.2-5.5c3.7-3.6,5.6-8.1,5.6-13.2c0-5.4-2-9.9-5.8-13.5
				c-3.9-3.6-8.9-5.4-14.9-5.4H48.3V416z M60.8,413.2h-9.6v-32.1h8.5c4.5,0,8.5,1.5,11.8,4.4c3.4,3,5.1,6.7,5.2,11.1
				c0.2,4.4-1.4,8.3-4.5,11.7C69,411.6,65.2,413.2,60.8,413.2 M52,412.4h8.7c4.2,0,7.9-1.6,10.8-4.7c3-3.2,4.4-6.9,4.3-11.1
				c-0.1-4.1-1.7-7.6-4.9-10.5c-3.2-2.8-7-4.2-11.3-4.2H52V412.4z"/>
			<path class="st0" d="M122,416.8H116l-8.1-30.4l-7.8,30.4h-5.9l-11-39.4h4.8l9.1,32.3l8.8-32.3h4.2l9.1,32.2l8.9-32.2h5.2
				L122,416.8z M116.7,416h4.7l10.7-37.8h-3.4l-9.5,34.4l-9.7-34.4h-2.9L97,412.8l-9.8-34.6h-3.1L94.7,416h4.7l8.5-32.8L116.7,416z"
				/>
			<path class="st0" d="M175.3,416.8h-5.2l-5.5-13h-17.3l-5.4,13h-5.8l17.6-39.3h4.8l0.1,0.2L175.3,416.8z M170.7,416h3.4l-16-37.7
				h-3.8L137.5,416h4l5.4-13h18.4L170.7,416z M164.3,400.4h-16.1l8.1-19.1L164.3,400.4z M149.4,399.5H163l-6.7-16.1L149.4,399.5z"/>
			<path class="st0" d="M203.5,416.8h-5.8l-13.6-18.2h4.6c3.3,0,5.9-0.8,7.7-2.5c1.9-1.7,2.8-3.7,2.6-6.2c-0.1-2.3-0.9-4.2-2.5-5.6
				c-1.6-1.6-3.9-2.3-6.7-2.3h-8.2v34.9h-4.8v-39.3h12.7c4.3,0,7.9,1.2,10.5,3.7c2.6,2.4,3.9,5.5,3.8,9.3c0,3.1-1.1,5.8-3.2,8.1
				c-2,2.2-4.6,3.5-7.6,3.8l-0.4,0L203.5,416.8z M198.2,416h3.7l-10.6-14.3l1.8-0.2c2.8-0.2,5.1-1.4,7-3.5c1.9-2.2,2.9-4.7,2.9-7.5
				c0.1-3.6-1.1-6.4-3.6-8.7c-2.5-2.3-5.8-3.5-9.9-3.5h-11.9V416h3.1v-34.9h9c3,0,5.5,0.9,7.3,2.6c1.7,1.6,2.6,3.6,2.7,6.2
				c0.2,2.7-0.8,5-2.9,6.9c-2,1.8-4.8,2.7-8.3,2.7h-2.9L198.2,416z"/>
			<path class="st0" d="M228.5,416.8h-11.5c-6.3,0-10.4-3.9-10.4-9.9v-19.6c0-6,4.1-9.9,10.4-9.9h11.5v4.4h-11.5
				c-1.9,0-3.2,0.4-3.9,1.1c-1.2,1.3-1.8,2.5-1.8,3.7v7.9h12.9v4.5h-12.9v8.5c0,1.2,0.6,2.4,1.8,3.7c0.7,0.7,2,1.1,3.9,1.1h11.5
				V416.8z M217.1,378.3c-5.9,0-9.5,3.5-9.5,9.1v19.6c0,5.6,3.7,9.1,9.5,9.1h10.6v-2.8h-10.6c-2.1,0-3.6-0.4-4.5-1.3
				c-1.4-1.5-2-2.9-2-4.3v-9.3h12.9v-2.8h-12.9v-8.7c0-1.4,0.7-2.8,2-4.3c0.9-0.9,2.4-1.3,4.5-1.3h10.6v-2.8H217.1z"/>
			<path class="st0" d="M243.1,416.8h-4.7v-34.9h-8.7v-4.4h22.1v4.4h-8.8V416.8z M239.2,416h3v-34.9h8.8v-2.8h-20.5v2.8h8.7V416z"/>
			<path class="st0" d="M281.6,416.8H277v-17.7h-18.8v17.7h-4.6v-39.3h4.6v17.1H277v-17.1h4.5V416.8z M277.9,416h2.9v-37.7h-2.9
				v17.1h-20.4v-17.1h-2.9V416h2.9v-17.7h20.4V416z"/>
			<path class="st0" d="M305.8,417.6c-5.6,0-10.5-2-14.6-5.9c-4.1-3.9-6.1-8.7-6.1-14.1c0-5.6,2-10.5,6-14.5c4-4,8.9-6.1,14.5-6.1
				c5.7,0,10.5,1.9,14.6,5.8c4.1,3.8,6.2,8.6,6.2,14.1c0,5.6-2,10.6-6.1,14.7C316.2,415.5,311.4,417.6,305.8,417.6 M305.5,377.8
				c-5.4,0-10,1.9-13.9,5.8c-3.8,3.8-5.7,8.5-5.7,14c0,5.2,2,9.8,5.9,13.5c4,3.8,8.6,5.7,14,5.7c5.4,0,10-1.9,13.9-5.8
				c3.9-3.9,5.8-8.7,5.8-14.1c0-5.3-2-9.9-5.9-13.5C315.6,379.6,311,377.8,305.5,377.8 M305.8,413.8L305.8,413.8h-0.1
				c-4.6-0.1-8.5-1.7-11.8-4.9c-3.3-3.2-4.9-7.1-4.9-11.7c0-4.5,1.7-8.5,4.9-11.7c3.3-3.2,7.2-4.9,11.7-4.9c4.6,0,8.6,1.6,11.9,4.8
				c3.4,3.2,5.1,7.1,5.1,11.7c0.1,4.6-1.6,8.5-5,11.9C314.4,412.2,310.4,413.8,305.8,413.8 M305.6,381.5c-4.4,0-8,1.5-11.2,4.6
				c-3.1,3.1-4.7,6.8-4.7,11.1c0,4.3,1.6,8,4.7,11.1c3.1,3.1,6.9,4.7,11.2,4.7l0.1,0c4.3,0,8.1-1.6,11.3-4.6
				c3.2-3.1,4.8-6.9,4.7-11.3c0-4.3-1.7-8-4.9-11.1C313.7,383,310,381.5,305.6,381.5"/>
			<path class="st0" d="M360.5,416.8h-4.9L334,384.3v32.6h-4.8v-39.3h5.8l20.6,31.4v-31.4h4.8V416.8z M356,416h3.7v-37.7h-3.1v33.3
				l-21.9-33.3H330V416h3.2v-34.5L356,416z"/>
			<polygon class="st1" points="-26.7,414.5 -30.4,414.5 -30.4,396.8 -50,396.8 -50,414.5 -53.8,414.5 -53.8,376.1 -50,376.1 
				-50,393.2 -30.4,393.2 -30.4,376.1 -26.7,376.1 			"/>
			<path class="st1" d="M16.7,414.5h-4.3l-5.4-13h-17.9l-5.4,13h-4.9L-4,376h4.3L16.7,414.5z M5.6,398.1l-7.4-17.6l-7.5,17.6H5.6z"
				/>
			<path class="st1" d="M44.7,414.5h-4.7l-13-17.4h3.8c3.4,0,6.1-0.8,8-2.6c1.9-1.7,2.9-3.9,2.7-6.6c-0.1-2.4-0.9-4.4-2.6-5.9
				c-1.7-1.6-4.1-2.4-7-2.4h-8.6v34.9h-3.9v-38.5h12.3c4.3,0,7.6,1.2,10.2,3.6c2.6,2.4,3.8,5.3,3.7,9c-0.1,3-1.1,5.6-3.1,7.8
				c-1.9,2.1-4.4,3.4-7.3,3.7l-1.1,0.1L44.7,414.5z"/>
			<path class="st1" d="M49.1,414.5v-38.5h11.2c6.2,0,11.2,1.9,15.2,5.5c3.9,3.6,5.9,8.2,5.9,13.8c0,5.3-1.9,9.8-5.7,13.5
				c-3.7,3.8-8.3,5.7-13.5,5.7H49.1z M61.9,410.9c4.4,0,8.1-1.6,11.1-4.8c3-3.2,4.6-7,4.4-11.4c-0.1-4.3-1.8-7.9-5.1-10.8
				c-3.3-2.9-7.1-4.3-11.6-4.3h-8.1v31.3H61.9z"/>
			<polygon class="st1" points="122.8,414.5 117.5,414.5 109.1,382.9 100.9,414.5 95.6,414.5 84.8,376 88.8,376 98.2,409.4 
				107.3,376 110.9,376 120.3,409.2 129.4,376 133.7,376 			"/>
			<path class="st1" d="M175.9,414.5h-4.3l-5.5-13h-17.9l-5.4,13H138l17.2-38.5h4.3L175.9,414.5z M164.8,398.1l-7.4-17.6l-7.5,17.6
				H164.8z"/>
			<path class="st1" d="M203.9,414.5h-4.7l-13-17.4h3.8c3.4,0,6.1-0.8,8-2.6c1.9-1.7,2.9-3.9,2.8-6.6c-0.1-2.4-1-4.4-2.6-5.9
				c-1.7-1.6-4.1-2.4-7-2.4h-8.6v34.9h-3.9v-38.5h12.3c4.3,0,7.7,1.2,10.2,3.6c2.6,2.4,3.8,5.3,3.7,9c0,3-1.1,5.6-3,7.8
				c-2,2.1-4.4,3.4-7.3,3.7l-1.1,0.1L203.9,414.5z"/>
			<path class="st1" d="M229.3,414.5h-11.1c-5.8,0-10-3.4-10-9.5v-19.6c0-6,4.1-9.5,10-9.5h11.1v3.6h-11.1c-2,0-3.4,0.4-4.2,1.2
				c-1.2,1.4-1.9,2.7-1.9,4v8.3H225v3.6h-12.9v8.9c0,1.3,0.7,2.6,1.9,4c0.8,0.8,2.2,1.2,4.2,1.2h11.1V414.5z"/>
			<polygon class="st1" points="243.9,414.5 240,414.5 240,379.7 231.3,379.7 231.3,376.1 252.6,376.1 252.6,379.7 243.9,379.7 			
				"/>
			<polygon class="st1" points="282.3,414.5 278.6,414.5 278.6,396.8 259,396.8 259,414.5 255.3,414.5 255.3,376.1 259,376.1 
				259,393.2 278.6,393.2 278.6,376.1 282.3,376.1 			"/>
			<path class="st1" d="M306.9,415.3c-5.5,0-10.3-1.9-14.3-5.8c-4-3.8-6-8.4-6-13.8c0-5.6,2-10.3,5.9-14.3c4-4,8.7-6,14.2-6
				c5.6,0,10.3,1.9,14.4,5.7c4.1,3.8,6,8.4,6,13.8c0,5.6-2,10.4-6,14.4C317.2,413.3,312.5,415.3,306.9,415.3 M323.4,395.2
				c0-4.4-1.7-8.3-5-11.4c-3.3-3.1-7.1-4.7-11.6-4.7c-4.4,0-8.3,1.6-11.5,4.8c-3.2,3.1-4.8,6.9-4.8,11.4c0,4.4,1.6,8.2,4.8,11.4
				c3.2,3.2,7.1,4.8,11.5,4.8c4.6,0,8.5-1.6,11.7-4.8C321.8,403.6,323.5,399.7,323.4,395.2"/>
			<polygon class="st1" points="361.2,414.5 356.9,414.5 334.8,381 334.8,414.5 330.8,414.5 330.8,376 336,376 357.3,408.3 
				357.3,376 361.2,376 			"/>
			<path class="st1" d="M374.7,457.9c-0.1,0-0.2,0-0.2,0l-442.1-9.4c-1.8-0.1-3.4-0.8-4.6-2.1c-1.1-1.2-1.7-2.8-1.6-4.4l6.9-99.5
				c0.1-3.4,3.1-6.1,6.7-6l442.1,9.4c1.8,0.1,3.4,0.8,4.6,2.1c1.1,1.2,1.7,2.8,1.6,4.4l-6.9,99.5C381,455.3,378.2,457.9,374.7,457.9
				 M-60.5,337.8c-2.8,0-5.1,2.1-5.2,4.8l-6.9,99.5c0,1.3,0.4,2.5,1.3,3.4c1,1,2.3,1.6,3.7,1.7l442.1,9.4c0.1,0,0.1,0,0.2,0
				c2.8,0,5.1-2.1,5.2-4.8l6.9-99.5c0-1.3-0.4-2.5-1.3-3.4c-1-1-2.3-1.6-3.7-1.7l-442.1-9.4C-60.4,337.8-60.5,337.8-60.5,337.8"/>
			<path class="st2" d="M-60.5,457.9c-3.5,0-6.4-2.6-6.5-6l-6.9-99.5c-0.1-1.6,0.5-3.2,1.6-4.4c1.2-1.3,2.8-2,4.6-2.1l442.1-9.4
				c3.6-0.1,6.6,2.6,6.7,6l6.9,99.5c0.1,1.6-0.5,3.2-1.6,4.4c-1.2,1.3-2.8,2-4.6,2.1l-442.1,9.4C-60.4,457.9-60.5,457.9-60.5,457.9
				 M374.7,337.8c-0.1,0-0.1,0-0.2,0l-442.1,9.4c-1.4,0-2.8,0.6-3.7,1.7c-0.9,1-1.4,2.2-1.3,3.4l6.9,99.5c0.1,2.7,2.5,4.9,5.4,4.8
				l442.1-9.4c1.4,0,2.8-0.6,3.7-1.7c0.9-1,1.4-2.2,1.3-3.4l-6.9-99.5C379.8,339.9,377.5,337.8,374.7,337.8"/>
		</g>
	</g>
	<g>
		<path class="st1" d="M376.3,376c0,1.2-0.3,2.2-0.9,3.2c-0.6,1-1.4,1.8-2.4,2.4c-1,0.6-2.1,0.9-3.2,0.9c-1.2,0-2.2-0.3-3.2-0.9
			c-1-0.6-1.8-1.4-2.4-2.4c-0.6-1-0.9-2.1-0.9-3.2c0-1.2,0.3-2.2,0.9-3.2c0.6-1,1.4-1.8,2.4-2.4c1-0.6,2.1-0.9,3.2-0.9
			c1.2,0,2.2,0.3,3.2,0.9c1,0.6,1.8,1.4,2.4,2.4C376,373.8,376.3,374.9,376.3,376z M375,376c0-1.4-0.5-2.7-1.5-3.7
			c-1-1-2.2-1.5-3.7-1.5c-1.4,0-2.7,0.5-3.7,1.5c-1,1-1.5,2.2-1.5,3.7c0,1.4,0.5,2.7,1.5,3.7c1,1,2.2,1.5,3.7,1.5
			c1.4,0,2.7-0.5,3.7-1.5C374.5,378.7,375,377.5,375,376z M366.9,372.6h3.1c0.9,0,1.5,0.2,1.9,0.5c0.4,0.4,0.6,0.8,0.6,1.4
			c0,0.5-0.1,0.9-0.4,1.2c-0.3,0.3-0.8,0.6-1.4,0.7c0.3,0.1,0.5,0.2,0.6,0.3c0.2,0.2,0.4,0.4,0.6,0.7c0,0,0.4,0.7,1.1,2h-2
			c-0.7-1.3-1.1-2.1-1.3-2.4s-0.5-0.4-0.7-0.4c-0.1,0-0.1,0-0.2,0v2.7h-1.7V372.6z M368.6,375.5h0.7c0.5,0,0.8-0.1,1-0.2
			c0.2-0.2,0.3-0.4,0.3-0.6c0-0.3-0.1-0.5-0.3-0.6c-0.2-0.2-0.5-0.2-1-0.2h-0.8V375.5z"/>
	</g>
</g>
</svg>
