<?xml version="1.0" encoding="utf-8"?>
<!-- Generator: Adobe Illustrator 19.0.0, SVG Export Plug-In . SVG Version: 6.00 Build 0)  -->
<svg version="1.1" id="Layer_1" xmlns="http://www.w3.org/2000/svg" xmlns:xlink="http://www.w3.org/1999/xlink" x="0px" y="0px"
	 viewBox="-252.3 609.4 624.1 60" style="enable-background:new -252.3 609.4 624.1 60;" xml:space="preserve">
<style type="text/css">
	.st0{fill:#FFFFFF;}
</style>
<g>
	<polygon class="st0" points="-211.6,668.1 -217.1,668.1 -217.1,641.5 -246.6,641.5 -246.6,668.1 -252.3,668.1 -252.3,610.3 
		-246.6,610.3 -246.6,636.1 -217.1,636.1 -217.1,610.3 -211.6,610.3 	"/>
	<path class="st0" d="M-146.3,668.1h-6.5l-8.1-19.5h-26.9l-8.1,19.5h-7.4l25.9-57.9h6.5L-146.3,668.1z M-163,643.5l-11.1-26.5
		l-11.3,26.5H-163z"/>
	<path class="st0" d="M-104.2,668.1h-7.1l-19.5-26.2h5.7c5.1,0,9.2-1.2,12-3.9c2.9-2.6,4.4-5.9,4.1-9.9c-0.2-3.6-1.4-6.6-3.9-8.9
		c-2.6-2.4-6.2-3.6-10.5-3.6h-12.9v52.5h-5.9v-57.9h18.5c6.5,0,11.4,1.8,15.3,5.4c3.9,3.6,5.7,8,5.6,13.5c-0.2,4.5-1.7,8.4-4.7,11.7
		c-2.9,3.2-6.6,5.1-11,5.6l-1.7,0.2L-104.2,668.1z"/>
	<path class="st0" d="M-97.6,668.1v-57.9h16.8c9.3,0,16.8,2.9,22.9,8.3c5.9,5.4,8.9,12.3,8.9,20.8c0,8-2.9,14.7-8.6,20.3
		c-5.6,5.7-12.5,8.6-20.3,8.6H-97.6z M-78.3,662.7c6.6,0,12.2-2.4,16.7-7.2c4.5-4.8,6.9-10.5,6.6-17.1c-0.2-6.5-2.7-11.9-7.7-16.2
		s-10.7-6.5-17.4-6.5h-12.2v47.1H-78.3z"/>
	<polygon class="st0" points="13.2,668.1 5.3,668.1 -7.5,620.6 -19.7,668.1 -27.7,668.1 -43.9,610.1 -38,610.1 -23.7,660.5 
		-10.1,610.1 -4.8,610.1 9.3,660.2 23.2,610.1 29.6,610.1 	"/>
	<path class="st0" d="M93.1,668.1h-6.5l-8.3-19.5H51.4l-8.1,19.5h-7.2L62,610.3h6.5L93.1,668.1z M76.4,643.5L65.3,617l-11.1,26.5
		H76.4z"/>
	<path class="st0" d="M135.2,668.1h-7.1L108.6,642h5.7c5.1,0,9.2-1.2,12-3.9c2.9-2.6,4.4-5.9,4.2-9.9c-0.2-3.6-1.5-6.6-3.9-8.9
		c-2.6-2.4-6.2-3.6-10.5-3.6h-12.9v52.5h-5.9v-57.9h18.5c6.5,0,11.6,1.8,15.3,5.4c3.9,3.6,5.7,8,5.6,13.5c0,4.5-1.7,8.4-4.5,11.7
		c-3,3.2-6.6,5.1-11,5.6l-1.7,0.2L135.2,668.1z"/>
	<path class="st0" d="M173.4,668.1h-16.7c-8.7,0-15-5.1-15-14.3v-29.3c0-9,6.2-14.3,15-14.3h16.7v5.4h-16.7c-3,0-5.1,0.6-6.3,1.8
		c-1.8,2.1-2.9,4.1-2.9,6V636h19.4v5.4h-19.4v13.4c0,2,1.1,3.9,2.9,6c1.2,1.2,3.3,1.8,6.3,1.8h16.7V668.1L173.4,668.1z"/>
	<polygon class="st0" points="195.2,668.1 189.5,668.1 189.5,615.8 176.4,615.8 176.4,610.3 208.4,610.3 208.4,615.8 195.2,615.8 	
		"/>
	<polygon class="st0" points="253.1,668.1 247.5,668.1 247.5,641.5 218.1,641.5 218.1,668.1 212.3,668.1 212.3,610.3 218.1,610.3 
		218.1,636.1 247.5,636.1 247.5,610.3 253.1,610.3 	"/>
	<path class="st0" d="M290.1,669.4c-8.3,0-15.5-2.9-21.5-8.7c-6-5.7-9-12.6-9-20.8c0-8.4,3-15.5,8.9-21.5c6-6,13.1-9,21.4-9
		c8.4,0,15.5,2.9,21.7,8.6c6.2,5.7,9,12.6,9,20.8c0,8.4-3,15.6-9,21.7C305.6,666.3,298.5,669.4,290.1,669.4 M314.9,639.1
		c0-6.6-2.6-12.5-7.5-17.1c-5-4.7-10.7-7.1-17.4-7.1c-6.6,0-12.5,2.4-17.3,7.2c-4.8,4.7-7.2,10.4-7.2,17.1c0,6.6,2.4,12.3,7.2,17.1
		c4.8,4.8,10.7,7.2,17.3,7.2c6.9,0,12.8-2.4,17.6-7.2C312.5,651.8,314.9,645.9,314.9,639.1"/>
	<polygon class="st0" points="371.7,668.1 365.3,668.1 332,617.8 332,668.1 326,668.1 326,610.3 333.8,610.3 365.7,658.8 
		365.7,610.3 371.7,610.3 	"/>
</g>
</svg>
