<?xml version="1.0" encoding="utf-8"?>
<!-- Generator: Adobe Illustrator 19.0.0, SVG Export Plug-In . SVG Version: 6.00 Build 0)  -->
<svg version="1.1" id="Layer_1" xmlns="http://www.w3.org/2000/svg" xmlns:xlink="http://www.w3.org/1999/xlink" x="0px" y="0px"
	 viewBox="-349 590.5 100 100" style="enable-background:new -349 590.5 100 100;" xml:space="preserve">
<style type="text/css">
	.st0{fill:#B6D2CA;}
</style>
<g transform="translate(0,-1016.3622)">
	<path class="st0" d="M-308.8,1611.9c-0.2,0-0.3,0-0.5,0.1h-11.9c-0.8,0-1.4,0.6-1.4,1.3c0,0,0,1.8,0,4.2h-16.2c0,0-0.1,0-0.1,0
		c0,0,0,0,0,0c-0.7,0-1.3,0.6-1.4,1.3c0,0,0,0,0,0c0,0.1,0,0.2,0,0.2c0,0,0,0,0,0c0.1,11.4,3.7,19,8.9,23.5c5,4.4,11.4,6,17,6.1
		c2.8,3.7,6.6,6.4,11.5,7.5v11.9h-2c-3.3,0-6.1,2.5-6.2,5.8c-4.2,0.7-7.6,4.1-8.2,8.3h-0.1c-3.2,0-6,2.2-6,5.2v0.7c0,0.1,0,0,0,0
		c0,0,0,0,0,0v9.5c0,0.8,0.6,1.4,1.4,1.4h4.6h41.6h4.6c0.8,0,1.4-0.6,1.4-1.4v-9.5c0,0,0,0,0,0c0,0,0,0,0,0v-0.7
		c0-3-2.8-5.2-5.9-5.2c-0.6-4.3-3.9-7.7-8.2-8.3c-0.1-3.2-2.9-5.8-6.2-5.8h-2.2v-12c4.9-1.1,8.7-3.8,11.4-7.5
		c5.6-0.2,11.7-1.9,16.6-6.4c5.1-4.6,8.6-12.2,8.6-23.5c0-0.8-0.6-1.4-1.4-1.4h-15.5c0.1-2.5,0-4.3,0-4.3c0-0.8-0.7-1.3-1.4-1.3
		H-308.8z M-305.1,1614.7h27.6c0,0.7,0,2.4-0.1,4.4c-0.1,1.6-0.2,3.4-0.4,5.4c0,0,0,0.1,0,0.1c-0.3,2.5-0.6,5.2-1.3,8.2
		c-0.6,2.8-1.5,5.5-2.5,8.1c0,0,0,0.1,0,0.1c0,0,0,0,0,0c-0.4,1-0.8,1.9-1.3,2.8c-0.5,1-1,1.9-1.6,2.7c0,0,0,0,0,0
		c-2.7,3.9-6.2,6.6-11.2,7.3c-0.7,0.1-1.2,0.7-1.2,1.4v7c0,0.1,0,0.2,0,0.3v5.6h-2.8v-5.7v-1.7v-5.5c0-0.8-0.6-1.4-1.4-1.4
		c0,0-0.1,0-0.1,0c-4.8-0.8-8.2-3.4-10.9-7.2c-0.3-0.4-0.5-0.8-0.7-1.2c-0.8-1.3-1.5-2.7-2.1-4.1c-1.2-2.7-2.1-5.6-2.7-8.5
		c-0.7-3-1-5.7-1.3-8.2c0,0,0-0.1,0-0.1c-0.2-2.1-0.3-3.9-0.4-5.5c-0.1-2-0.1-3.6-0.1-4.2h14.1h0
		C-305.4,1614.8-305.3,1614.7-305.1,1614.7z M-274.8,1620.3h14c-0.3,9.8-3.2,16.2-7.4,20c-3.7,3.3-8.2,4.7-12.6,5.2
		c0.5-0.9,0.9-1.8,1.4-2.8c1.9-0.5,5-1.5,8.1-4c3.4-2.8,6.5-7.3,6.6-14c0-0.8-0.6-1.4-1.4-1.4c0,0,0,0,0,0h-8.8
		C-274.9,1622.2-274.8,1621.2-274.8,1620.3z M-337.2,1620.3h14.7c0,0.9,0.2,1.9,0.2,2.9h-9.6c-0.8,0-1.4,0.6-1.4,1.4c0,0,0,0,0,0
		c0.1,7.2,3.7,11.8,7.3,14.6c3.4,2.5,6.5,3.4,8.2,3.7c0.4,0.9,0.8,1.8,1.3,2.7c-4.6-0.4-9.3-1.7-13.1-5.1
		C-333.8,1636.8-336.9,1630.3-337.2,1620.3z M-275.3,1626h7.3c-0.5,4.9-2.6,8.3-5.2,10.5c-1.7,1.4-3.5,2.3-5,2.9c0.7-2,1.3-4,1.7-6
		C-276,1630.9-275.6,1628.4-275.3,1626z M-330,1626.1h8c0.3,2.4,0.7,4.9,1.2,7.5c0.5,2.1,1.1,4.1,1.8,6.2c-1.5-0.5-3.4-1.3-5.2-2.7
		C-327.1,1634.9-329.4,1631.3-330,1626.1z M-304.9,1671.1h12.7c1.8,0,3.2,1.3,3.4,2.8h-19.4
		C-308.1,1672.3-306.7,1671.1-304.9,1671.1z M-309.6,1676.7h22.1c3.5,0,6.3,2.4,6.9,5.7h-35.9
		C-315.8,1679.1-313,1676.7-309.6,1676.7z M-319.4,1685.2h41.6c1.9,0,3.2,1.2,3.2,2.4v0.7c0-0.2,0-0.1,0,0c0,0,0,0.1,0,0.1v8h-3.2
		h-41.6h-3.2v-8c0,0,0-0.1,0-0.1c0-0.2,0-0.2,0-0.1v-0.7C-322.6,1686.4-321.3,1685.2-319.4,1685.2z"/>
</g>
</svg>
