<?xml version="1.0" encoding="utf-8"?>
<!-- Generator: Adobe Illustrator 19.0.0, SVG Export Plug-In . SVG Version: 6.00 Build 0)  -->
<svg version="1.1" id="Layer_1" xmlns="http://www.w3.org/2000/svg" xmlns:xlink="http://www.w3.org/1999/xlink" x="0px" y="0px"
	 viewBox="-349 590.5 100 100" style="enable-background:new -349 590.5 100 100;" xml:space="preserve">
<style type="text/css">
	.st0{fill:#B6D2CA;}
</style>
<g>
	<g>
		<g>
			<g>
				<g>
					<path class="st0" d="M-277.8,685.5h-63.2c-1.4,0-2.6-1.2-2.6-2.6v-84.8c0-1.4,1.2-2.6,2.6-2.6h63.2c1.4,0,2.6,1.2,2.6,2.6v26.8
						c0,0.5-0.4,0.9-0.9,0.9s-0.9-0.4-0.9-0.9v-26.8c0-0.5-0.4-0.9-0.9-0.9h-63.2c-0.5,0-0.9,0.4-0.9,0.9v84.8
						c0,0.5,0.4,0.9,0.9,0.9h63.2c0.5,0,0.9-0.4,0.9-0.9v-37.2c0-0.5,0.4-0.9,0.9-0.9s0.9,0.4,0.9,0.9v37.2
						C-275.2,684.3-276.3,685.5-277.8,685.5z"/>
				</g>
				<g>
					<g>
						<path class="st0" d="M-304.2,610.3h-23.4c-0.5,0-0.9-0.4-0.9-0.9c0-0.5,0.4-0.9,0.9-0.9h23.4c0.5,0,0.9,0.4,0.9,0.9
							C-303.3,609.9-303.7,610.3-304.2,610.3z"/>
					</g>
					<g>
						<path class="st0" d="M-299,623.3h-34.6c-0.5,0-0.9-0.4-0.9-0.9c0-0.5,0.4-0.9,0.9-0.9h34.6c0.5,0,0.9,0.4,0.9,0.9
							S-298.5,623.3-299,623.3z"/>
					</g>
					<g>
						<path class="st0" d="M-294.6,627.6h-38.9c-0.5,0-0.9-0.4-0.9-0.9c0-0.5,0.4-0.9,0.9-0.9h38.9c0.5,0,0.9,0.4,0.9,0.9
							C-293.8,627.2-294.2,627.6-294.6,627.6z"/>
					</g>
					<g>
						<path class="st0" d="M-290.3,632h-43.3c-0.5,0-0.9-0.4-0.9-0.9c0-0.5,0.4-0.9,0.9-0.9h43.3c0.5,0,0.9,0.4,0.9,0.9
							C-289.4,631.6-289.8,632-290.3,632z"/>
					</g>
					<g>
						<path class="st0" d="M-286,636.3h-47.6c-0.5,0-0.9-0.4-0.9-0.9c0-0.5,0.4-0.9,0.9-0.9h47.6c0.5,0,0.9,0.4,0.9,0.9
							C-285.1,635.9-285.5,636.3-286,636.3z"/>
					</g>
					<g>
						<path class="st0" d="M-284.2,640.6h-49.3c-0.5,0-0.9-0.4-0.9-0.9c0-0.5,0.4-0.9,0.9-0.9h49.3c0.5,0,0.9,0.4,0.9,0.9
							C-283.4,640.2-283.8,640.6-284.2,640.6z"/>
					</g>
					<g>
						<path class="st0" d="M-284.2,644.9h-49.3c-0.5,0-0.9-0.4-0.9-0.9c0-0.5,0.4-0.9,0.9-0.9h49.3c0.5,0,0.9,0.4,0.9,0.9
							C-283.4,644.5-283.8,644.9-284.2,644.9z"/>
					</g>
					<g>
						<path class="st0" d="M-284.2,649.3h-49.3c-0.5,0-0.9-0.4-0.9-0.9c0-0.5,0.4-0.9,0.9-0.9h49.3c0.5,0,0.9,0.4,0.9,0.9
							C-283.4,648.9-283.8,649.3-284.2,649.3z"/>
					</g>
					<g>
						<path class="st0" d="M-284.2,653.6h-49.3c-0.5,0-0.9-0.4-0.9-0.9s0.4-0.9,0.9-0.9h49.3c0.5,0,0.9,0.4,0.9,0.9
							S-283.8,653.6-284.2,653.6z"/>
					</g>
					<g>
						<path class="st0" d="M-297.2,657.9h-36.3c-0.5,0-0.9-0.4-0.9-0.9c0-0.5,0.4-0.9,0.9-0.9h36.3c0.5,0,0.9,0.4,0.9,0.9
							C-296.4,657.5-296.7,657.9-297.2,657.9z"/>
					</g>
				</g>
			</g>
			<g>
				<path class="st0" d="M-290.7,676.1c-3.9,0-7.1-3.2-7.1-7.1c0-3.9,3.2-7.1,7.1-7.1c3.9,0,7.1,3.2,7.1,7.1
					C-283.7,673-286.8,676.1-290.7,676.1z M-290.7,664c-2.8,0-5,2.3-5,5s2.3,5,5,5c2.8,0,5-2.3,5-5S-288,664-290.7,664z"/>
			</g>
		</g>
		<g>
			<g>
				<g>
					<g>
						<path class="st0" d="M-261.6,654.9L-261.6,654.9c-0.7,0-1.4-0.3-1.8-0.8l-33.1-34.2c-0.7-0.7-1.7-2-2.2-2.8l-2.9-4.5
							c-0.3-0.5-1.2-2.1-0.4-2.9c0.2-0.2,0.4-0.3,0.9-0.3c0.5,0,1.3,0.3,2.1,0.8l4.5,2.9c0.8,0.5,2.1,1.5,2.8,2.2l34.2,33.1
							c0.5,0.5,0.8,1.1,0.8,1.8c0,0.7-0.3,1.3-0.8,1.8l-2.3,2.3C-260.2,654.7-260.9,654.9-261.6,654.9z M-300.4,611.3
							c0.1,0.1,0.1,0.2,0.2,0.3l2.9,4.5c0.5,0.8,1.4,1.9,2,2.6l33.1,34.2c0.2,0.2,0.4,0.3,0.6,0.3l0,0c0.2,0,0.4-0.1,0.6-0.2
							l2.3-2.3c0.2-0.2,0.2-0.4,0.2-0.6c0-0.2-0.1-0.4-0.3-0.6l-34.2-33.1c-0.6-0.6-1.8-1.5-2.6-2l-4.5-2.9
							C-300.2,611.4-300.3,611.3-300.4,611.3z"/>
					</g>
				</g>
				<g>
					<path class="st0" d="M-259,653.1c-0.2,0-0.4-0.1-0.6-0.3c-0.3-0.3-0.3-0.9,0-1.2l3.1-3.1l-13.5-13.5c-0.3-0.3-0.3-0.9,0-1.2
						c0.3-0.3,0.9-0.3,1.2,0l14.1,14.1c0.3,0.3,0.3,0.9,0,1.2l-3.7,3.7C-258.6,653-258.8,653.1-259,653.1z"/>
				</g>
			</g>
		</g>
	</g>
</g>
</svg>
