<?xml version="1.0" encoding="utf-8"?>
<!-- Generator: Adobe Illustrator 19.0.0, SVG Export Plug-In . SVG Version: 6.00 Build 0)  -->
<svg version="1.1" id="Layer_1" xmlns="http://www.w3.org/2000/svg" xmlns:xlink="http://www.w3.org/1999/xlink" x="0px" y="0px"
	 viewBox="-349 590.5 100 100" style="enable-background:new -349 590.5 100 100;" xml:space="preserve">
<style type="text/css">
	.st0{fill:#B6D2CA;}
</style>
<path class="st0" d="M-262.7,618.9c-0.3-0.8-0.9-1.3-1.7-1.3l-15.9-1.2l3-18.5c0.1-0.9-0.3-1.7-1.1-2.1c-0.8-0.4-1.7-0.3-2.3,0.3
	L-302,617l-2.7-8.2c-0.2-0.6-0.7-1.1-1.4-1.3c-0.6-0.2-1.3,0-1.8,0.4l-15.6,13.5l-0.3-0.8c0.1-0.1,0.1-0.1,0.2-0.2
	c0.8-1,1.1-2.2,1-3.4c-0.3-2.5-2.6-4.3-5.1-4c-1.2,0.1-2.3,0.8-3.1,1.7c-0.8,1-1.1,2.2-1,3.4c0.3,2.2,2.1,3.9,4.3,4l21.5,59
	c0.3,0.8,1.1,1.3,1.9,1.3c0.2,0,0.5,0,0.7-0.1c1-0.4,1.6-1.5,1.2-2.6l-9.2-25.3l10.3-10.4l1.8,5.7c0,0,0,0,0,0.1
	c0,0.1,0.1,0.2,0.1,0.3c0,0,0,0.1,0.1,0.1c0.1,0.1,0.2,0.2,0.3,0.3c0,0,0.1,0,0.1,0.1c0.1,0.1,0.2,0.1,0.3,0.2c0,0,0.1,0,0.1,0.1
	c0.1,0.1,0.2,0.1,0.3,0.1c0,0,0.1,0,0.1,0c0,0,0,0,0,0c0.2,0,0.3,0.1,0.5,0.1c0,0,0,0,0,0c0,0,0,0,0,0c0.1,0,0.2,0,0.3,0
	c0.1,0,0.1,0,0.2,0c0.1,0,0.1,0,0.2-0.1c0.1,0,0.1-0.1,0.2-0.1c0.1,0,0.1-0.1,0.2-0.1c0,0,0.1-0.1,0.1-0.1c0,0,0.1-0.1,0.1-0.1
	l32.8-29.7C-262.6,620.5-262.4,619.7-262.7,618.9z M-322,625.5l14.5-12.5l7.9,24.1l-13.3,13.4L-322,625.5z M-295.4,644.8l0-7.2
	c0,0,0,0,0,0c0,0,0-0.1,0-0.1c0-0.1,0-0.3-0.1-0.4c0,0,0,0,0-0.1l-5.1-15.7c0,0,0,0,0,0l18.4-18l-2.4,14.6c-0.1,0.6,0.1,1.1,0.4,1.6
	s0.9,0.7,1.4,0.8l13.5,1L-295.4,644.8z"/>
</svg>
