<?xml version="1.0" encoding="utf-8"?>
<!-- Generator: Adobe Illustrator 19.0.0, SVG Export Plug-In . SVG Version: 6.00 Build 0)  -->
<svg version="1.1" id="Layer_1" xmlns="http://www.w3.org/2000/svg" xmlns:xlink="http://www.w3.org/1999/xlink" x="0px" y="0px"
	 viewBox="-349 590.5 100 100" style="enable-background:new -349 590.5 100 100;" xml:space="preserve">
<style type="text/css">
	.st0{fill:#B6D2CA;}
</style>
<g>
	<path class="st0" d="M-342.4,595.5v56.1h18.5c-1.6-0.9-2.8-2.7-3.6-3.6h-11.2v-48.9h79.6V648h-2.1c0.1,0.9,0.2,0.9,0.3,1.3
		c0.2,0.8,0.3,1.4,0.4,2.3h5v-56.1H-342.4z"/>
	<path class="st0" d="M-264.5,650.2c-0.7-3.3-1.8-6.8-3.6-11.1l0-0.1l-0.1-0.1c-1.7-3.5-3.9-6-6.8-7.6c-1.7-1-3.6-1.7-5.9-2.1
		c0.4-0.3,0.7-0.6,1-0.9c1.3-1.3,2.3-2.8,3-4.4c0.7-1.7,1.1-3.5,1.1-5.4c0-1.9-0.4-3.7-1.1-5.4c-0.7-1.7-1.7-3.1-3-4.4
		c-1.3-1.3-2.8-2.3-4.4-3c-1.7-0.7-3.5-1.1-5.4-1.1c-1.9,0-3.7,0.4-5.4,1.1c-1.7,0.7-3.1,1.7-4.4,3c-1.3,1.3-2.3,2.8-3,4.4
		c-0.7,1.7-1.1,3.5-1.1,5.4c0,1.9,0.4,3.7,1.1,5.4c0.7,1.7,1.7,3.1,3,4.4c0.5,0.5,1,1,1.6,1.4c-1.5,0.4-2.8,1-4,1.7
		c-2.9,1.7-5.1,4.1-6.8,7.6l0,0l0,0l-1.3,2.6l-8.4-6.1c-1-0.8-2.3-1.3-3.7-1.3c-1.9,0-3.6,0.9-4.8,2.3c-1,1.3-1.4,2.9-1.2,4.4
		c0.2,1.5,0.9,2.8,2,3.8c0.9,1,6,6.2,12.8,12.3h-2.3h-4.5l0.9,4.4l3.8,18.1l0.6,2.9h2.9h15.7h12.6h16h3l0.5-3l3.3-18.1l0.8-4.3h-4.1
		C-263.8,654.7-264,652.6-264.5,650.2z M-299.9,618.4c0-5.7,4.6-10.3,10.3-10.3c5.7,0,10.2,4.6,10.2,10.3c0,5.2-3.9,9.5-8.9,10.2
		c0,0-2.1,0-2.5,0C-295.9,628-299.9,623.6-299.9,618.4z M-299.8,647.3c0,0-3.5,5.9-4.6,7.4c-0.6,0.8-1.4,1.1-2.3,1.1
		c-1.8,0-3.6-1.1-3.6-1.1c-7.6-6.8-13.2-12.7-13.2-12.7c-1.1-0.8-1.2-2.3-0.4-3.4c0.5-0.6,1.2-0.9,1.9-0.9c0.5,0,1,0.2,1.5,0.5
		l11.9,8.8l3.2-6.6c2.4-4.9,6-7.9,14.5-8.3c0.4,0,3.5,0,3.5,0c9.6,0,13.5,3.1,16,8.3c3,7.5,3.7,11.5,4.2,16.6h-4.7l0-1.7v0v0
		c0-1.8-0.3-3.5-1-5.2c-0.6-1.6-1.5-3-2.6-4.3c-1.8-2.1-4.1-3.7-6.7-4.7c-1.3-1.7-3.4-2.8-5.6-2.8c-1.9,0-3.6,0.7-4.9,2
		c-1.3,1.3-2,3.1-2,4.9c0,3.8,3.1,6.9,7,6.9c1.1,0,2.2-0.3,3.2-0.8c1.2,0.9,1.9,2.3,1.9,3.8l0,1.7h-16.9L-299.8,647.3z M-285,647.2
		c-0.6,0.9-1.6,1.4-2.7,1.4c-1.8,0-3.3-1.5-3.3-3.3c0-1.8,1.5-3.3,3.3-3.3c1.4,0,2.7,0.9,3.1,2.2c4.9,1.3,9.1,5.7,9.1,11.1l0,1.7
		h-3.5l0-1.7C-279,651.5-281.6,648.3-285,647.2z M-267.1,678.8h-16h-12.6h-15.7l-3.8-18.1h51.5L-267.1,678.8z"/>
</g>
</svg>
