<?xml version="1.0" encoding="utf-8"?>
<!-- Generator: Adobe Illustrator 19.0.0, SVG Export Plug-In . SVG Version: 6.00 Build 0)  -->
<svg version="1.1" id="Layer_1" xmlns="http://www.w3.org/2000/svg" xmlns:xlink="http://www.w3.org/1999/xlink" x="0px" y="0px"
	 viewBox="-349 590.5 100 100" style="enable-background:new -349 590.5 100 100;" xml:space="preserve">
<style type="text/css">
	.st0{fill:#B6D2CA;}
</style>
<path class="st0" d="M-299,610.7c5.2,0,9.3,4.2,9.3,9.3v12h-18.7v-12C-308.3,614.9-304.2,610.7-299,610.7 M-299,608.1L-299,608.1
	c-6.6,0-11.9,5.4-11.9,11.9v14.6h23.9v-14.6C-287.1,613.5-292.4,608.1-299,608.1L-299,608.1z M-287.1,637.2h-23.9h-1.5v2.6h1.5h23.9
	h1.5v-2.6H-287.1z M-289.7,642.3h-2.3v32.3h2.3V642.3z M-306,642.3h-2.3v36h2.3V642.3z M-295.1,642.3h-2.3v36h2.3V642.3z
	 M-300.6,642.3h-2.3v41.4h2.3L-300.6,642.3L-300.6,642.3z M-316.4,619.2h-7.1v1.8h7.1V619.2z M-313.6,610.6l-6.2-3.6l-0.9,1.6
	l6.2,3.6L-313.6,610.6z M-306.9,604.5l-3.6-6.2l-1.6,0.9l3.6,6.2L-306.9,604.5z M-298.1,602.6v-7.1h-1.8l0,7.1H-298.1z
	 M-285.9,599.2l-1.6-0.9l-3.6,6.2l1.6,0.9L-285.9,599.2z M-277.3,608.6l-0.9-1.6l-6.2,3.6l0.9,1.6L-277.3,608.6z M-274.4,621v-1.8
	l-7.1,0v1.8L-274.4,621z"/>
</svg>
