<?xml version="1.0" encoding="utf-8"?>
<!-- Generator: Adobe Illustrator 19.0.0, SVG Export Plug-In . SVG Version: 6.00 Build 0)  -->
<svg version="1.1" id="Layer_1" xmlns="http://www.w3.org/2000/svg" xmlns:xlink="http://www.w3.org/1999/xlink" x="0px" y="0px"
	 viewBox="93 -28 240 100" style="enable-background:new 93 -28 240 100;" xml:space="preserve">
<style type="text/css">
	.st0{fill:#06154C;}
</style>
<g>
	<rect x="197.9" y="14.3" class="st0" width="5.1" height="23.2"/>
	<g>
		<rect x="118.1" y="14.3" class="st0" width="5.1" height="23.2"/>
		<rect x="118.1" y="6.6" class="st0" width="5.1" height="5.1"/>
	</g>
	<rect x="197.9" y="6.6" class="st0" width="5.1" height="5.1"/>
	<polygon class="st0" points="221,26.4 210.7,6.6 210.7,6.6 205.6,6.6 205.6,37.4 210.7,37.4 210.7,17.7 221,37.4 226.2,37.4 
		226.2,6.6 221,6.6 	"/>
	<polygon class="st0" points="249.3,11.7 249.3,6.6 233.9,6.6 228.8,6.6 228.8,11.7 228.8,19.5 228.8,24.6 228.8,32.3 228.8,37.4 
		228.8,37.4 233.9,37.4 233.9,37.4 249.3,37.4 249.3,32.3 233.9,32.3 233.9,24.6 244.2,24.6 244.2,19.5 233.9,19.5 233.9,11.7 	"/>
	<polygon class="st0" points="138.7,18.1 131,6.6 125.8,6.6 125.8,37.4 131,37.4 131,15.8 135.6,22.8 138.7,27.4 141.8,22.8 
		146.4,15.8 146.4,37.4 151.6,37.4 151.6,6.6 146.4,6.6 	"/>
	<path class="st0" d="M281.2-8.9L254.4,6.6v30.9l26.7,15.4l26.7-15.4V6.6L281.2-8.9z M262.6,37.5h-1.2l1,0.6l20.4,11.8l-1.7,1
		l-24.7-14.3l1.5-0.9h41.7h1.2l-1.1-0.6l-20.4-11.8l1.7-1l24.7,14.2l-1.5,0.9H262.6z M256.2,34.3l10.4-18l0.2-0.3l-0.3-0.2
		l-10.3-5.9v-2l11.1,6.4l0.3,0.2l0.2-0.3l11.6-20.1l1.5-0.9V-5l-11.6,20.1l-0.2,0.3l0.3,0.2l11.2,6.4l-1.7,1l-10.3-5.9l-0.3-0.2
		l-0.2,0.3l-10.4,18l-1.5,0.9V34.3z M306.2,9.9L283.5,23l-1.7-1l11.2-6.4l0.3-0.2l-0.2-0.3L281.5-5v-1.7l1.5,0.9l11.6,20.1l0.2,0.3
		l0.3-0.2l11.1-6.4V9.9z"/>
	<path class="st0" d="M172.1,27.1L172.1,27.1L167,6.6h-5.1l-7.7,30.9h5.1l1.3-5.1h7.7l1.3,5.1h5.1L172.1,27.1L172.1,27.1z
		 M161.8,27.1l2.6-10.3l2.6,10.3H161.8z"/>
	<path class="st0" d="M190,18.2c-1.5-0.8-3.2-1.3-5-1.3c-1.8,0-3.5,0.5-5,1.3c-0.1,0-0.1,0.1-0.2,0.1v-1.4c0-2.8,2.3-5.1,5.1-5.1
		c1.4,0,2.7,0.6,3.6,1.5h0l0,0c1,1,2.6,1,3.6,0c1-1,1-2.6,0-3.6l0,0c-1.9-1.9-4.4-3-7.3-3c-5.7,0-10.3,4.6-10.3,10.3v10.3
		c0,1.9,0.5,3.6,1.4,5.1c0.9,1.6,2.2,2.9,3.8,3.8c1.5,0.9,3.3,1.4,5.1,1.4c1.9,0,3.6-0.5,5.1-1.4c1.6-0.9,2.9-2.2,3.8-3.8
		c0.9-1.5,1.4-3.3,1.4-5.1c0-1.9-0.5-3.6-1.4-5.1C193,20.4,191.6,19.1,190,18.2z M185,32.4c-2.8,0-5.1-2.3-5.1-5.1
		c0-0.4,0.1-0.9,0.2-1.3c0.6-2.2,2.6-3.9,5-3.9c2.4,0,4.4,1.6,5,3.9c0.1,0.4,0.2,0.8,0.2,1.3C190.2,30,187.8,32.4,185,32.4z"/>
</g>
</svg>
