<?xml version="1.0" encoding="utf-8"?>
<!-- Generator: Adobe Illustrator 19.0.0, SVG Export Plug-In . SVG Version: 6.00 Build 0)  -->
<svg version="1.1" id="Layer_1" xmlns="http://www.w3.org/2000/svg" xmlns:xlink="http://www.w3.org/1999/xlink" x="0px" y="0px"
	 viewBox="-275 257 240 100" style="enable-background:new -275 257 240 100;" xml:space="preserve">
<style type="text/css">
	.st0{fill:#2A2F7F;}
</style>
<g>
	<g>
		<g>
			<rect x="-239.2" y="296.9" class="st0" width="4.8" height="20.1"/>
		</g>
		<g>
			<polygon class="st0" points="-214.7,308.7 -223.6,296.9 -227.9,296.9 -227.9,317.1 -223.2,317.1 -223.2,305 -214,317.1 
				-210,317.1 -210,296.9 -214.7,296.9 			"/>
		</g>
		<g>
			<path class="st0" d="M-166.2,296.6c-6,0-10.7,4.6-10.7,10.4v0.1c0,5.9,4.6,10.3,10.6,10.3c6,0,10.7-4.6,10.7-10.4v-0.1
				C-155.5,301.1-160.1,296.6-166.2,296.6z M-171.9,306.9c0-3.4,2.4-5.9,5.7-5.9c3.3,0,5.7,2.6,5.7,6v0.1c0,3.4-2.4,5.9-5.7,5.9
				C-169.4,313-171.9,310.4-171.9,306.9L-171.9,306.9z"/>
		</g>
		<g>
			<polygon class="st0" points="-143.4,310.4 -148.4,296.9 -153.6,296.9 -145.5,317.1 -145.5,317.2 -141.4,317.2 -133.3,296.9 
				-138.4,296.9 			"/>
		</g>
		<g>
			<path class="st0" d="M-121.4,296.8h-4.3l-8.6,20.2h4.9l1.8-4.4h8l1.8,4.4h5l-8.6-20.1L-121.4,296.8z M-121.3,308.4h-4.6l2.3-5.6
				L-121.3,308.4z"/>
		</g>
		<g>
			<path class="st0" d="M-91.9,303.7L-91.9,303.7c0-2-0.6-3.6-1.7-4.7c-1.3-1.3-3.4-2.1-5.9-2.1h-9.2v20.1h4.8v-6.3h3.1l4.2,6.3h5.6
				l-4.9-7.1C-93.3,308.8-91.9,306.6-91.9,303.7z M-103.9,301.3h4.1c2.1,0,3.2,0.9,3.2,2.6v0.1c0,1.6-1.2,2.6-3.1,2.6h-4.2V301.3z"
				/>
		</g>
		<g>
			<polygon class="st0" points="-81.5,312.8 -81.5,309.1 -72.3,309.1 -72.3,304.8 -81.5,304.8 -81.5,301.2 -71,301.2 -71,296.9 
				-86.3,296.9 -86.3,317.1 -70.8,317.1 -70.8,312.8 			"/>
		</g>
	</g>
	<path class="st0" d="M-175.7,265.6l-12.3,44.2l-9.1-12.2c-0.5-0.7-1.4-1.1-2.3-0.9c-0.9,0.2-1.6,0.8-1.8,1.7l-9,32.5l-5.1-6.6
		c-0.5-0.7-1.4-1-2.2-0.9c-0.9,0.2-1.5,0.8-1.8,1.6l-7.4,23.5h4.9l5.6-17.9l5.2,6.8c0.5,0.7,1.4,1,2.3,0.9c0.9-0.2,1.6-0.8,1.8-1.7
		l9-32.4l9.1,12.2c0.5,0.7,1.4,1.1,2.3,0.9c0.9-0.2,1.6-0.8,1.8-1.7l13.9-50H-175.7z"/>
</g>
</svg>
