<?xml version="1.0" encoding="utf-8"?>
<!-- Generator: Adobe Illustrator 19.0.0, SVG Export Plug-In . SVG Version: 6.00 Build 0)  -->
<svg version="1.1" id="Layer_1" xmlns="http://www.w3.org/2000/svg" xmlns:xlink="http://www.w3.org/1999/xlink" x="0px" y="0px"
	 viewBox="0 0 240 100" style="enable-background:new 0 0 240 100;" xml:space="preserve">
<style type="text/css">
	.st0{fill:#F7323F;}
	.st1{fill:#002856;}
</style>
<g>
	<g>
		<rect id="XMLID_41_" x="112" y="29.1" class="st0" width="1.9" height="41.8"/>
	</g>
	<path class="st1" d="M135.7,33.2l0.2,3.3h-0.4c-0.1-0.6-0.2-1-0.3-1.2c-0.2-0.4-0.5-0.7-0.8-0.9c-0.4-0.2-0.8-0.3-1.4-0.3h-2v10.6
		c0,0.9,0.1,1.4,0.3,1.6c0.3,0.3,0.7,0.4,1.2,0.4h0.5V47h-5.9v-0.4h0.5c0.6,0,1-0.2,1.2-0.5c0.1-0.2,0.2-0.7,0.2-1.5V34h-1.7
		c-0.6,0-1.1,0-1.4,0.1c-0.4,0.1-0.7,0.4-0.9,0.7c-0.3,0.4-0.4,0.9-0.5,1.5h-0.4l0.2-3.3H135.7z"/>
	<path class="st1" d="M137.2,41.2c0,1.4,0.3,2.5,1,3.3c0.7,0.8,1.5,1.2,2.4,1.2c0.6,0,1.1-0.2,1.6-0.5c0.5-0.3,0.8-0.9,1.1-1.7
		l0.3,0.2c-0.1,0.9-0.6,1.8-1.2,2.6c-0.7,0.8-1.6,1.2-2.6,1.2c-1.1,0-2.1-0.4-2.9-1.3c-0.8-0.9-1.2-2.1-1.2-3.5
		c0-1.6,0.4-2.9,1.2-3.7c0.8-0.9,1.9-1.3,3.1-1.3c1,0,1.9,0.3,2.6,1c0.7,0.7,1,1.6,1,2.8H137.2z M137.2,40.6h4.3
		c0-0.6-0.1-1-0.2-1.3c-0.2-0.4-0.4-0.7-0.8-0.9c-0.3-0.2-0.7-0.3-1.1-0.3c-0.6,0-1.1,0.2-1.5,0.7C137.5,39.2,137.3,39.8,137.2,40.6
		z"/>
	<path class="st1" d="M152.9,43.5c-0.3,1.2-0.7,2.2-1.5,2.8c-0.7,0.7-1.6,1-2.4,1c-1.1,0-2-0.4-2.8-1.3c-0.8-0.9-1.2-2.1-1.2-3.6
		c0-1.5,0.4-2.7,1.3-3.6c0.9-0.9,1.9-1.4,3.2-1.4c0.9,0,1.7,0.2,2.3,0.7c0.6,0.5,0.9,1,0.9,1.5c0,0.3-0.1,0.5-0.3,0.6
		c-0.2,0.2-0.4,0.2-0.7,0.2c-0.4,0-0.7-0.1-0.9-0.4c-0.1-0.1-0.2-0.4-0.2-0.8c0-0.4-0.2-0.7-0.4-0.9c-0.2-0.2-0.6-0.3-1-0.3
		c-0.7,0-1.2,0.3-1.6,0.8c-0.6,0.7-0.8,1.6-0.8,2.6c0,1.1,0.3,2.1,0.8,3c0.5,0.9,1.3,1.3,2.2,1.3c0.7,0,1.3-0.2,1.8-0.7
		c0.4-0.3,0.7-0.9,1.1-1.7L152.9,43.5z"/>
	<path class="st1" d="M156.9,39.4c1.1-1.3,2.1-2,3.1-2c0.5,0,0.9,0.1,1.3,0.4c0.4,0.3,0.7,0.7,0.9,1.3c0.2,0.4,0.2,1,0.2,1.9v4
		c0,0.6,0,1,0.1,1.2c0.1,0.2,0.2,0.3,0.4,0.4c0.2,0.1,0.5,0.1,0.9,0.1V47h-4.6v-0.4h0.2c0.4,0,0.7-0.1,0.9-0.2
		c0.2-0.1,0.3-0.3,0.4-0.6c0-0.1,0-0.4,0-1v-3.8c0-0.9-0.1-1.5-0.3-1.9c-0.2-0.4-0.6-0.6-1.1-0.6c-0.8,0-1.6,0.4-2.4,1.3v4.9
		c0,0.6,0,1,0.1,1.2c0.1,0.2,0.2,0.3,0.4,0.4c0.2,0.1,0.5,0.1,1,0.1V47h-4.6v-0.4h0.2c0.5,0,0.8-0.1,1-0.4c0.2-0.2,0.3-0.7,0.3-1.4
		v-3.5c0-1.1,0-1.8-0.1-2.1c-0.1-0.2-0.1-0.4-0.2-0.5c-0.1-0.1-0.2-0.1-0.4-0.1c-0.2,0-0.4,0.1-0.7,0.2l-0.2-0.4l2.8-1.1h0.4V39.4z"
		/>
	<path class="st1" d="M169.2,37.4c1.4,0,2.6,0.5,3.4,1.6c0.7,0.9,1.1,2,1.1,3.2c0,0.8-0.2,1.7-0.6,2.5c-0.4,0.9-1,1.5-1.7,1.9
		c-0.7,0.4-1.5,0.7-2.4,0.7c-1.4,0-2.5-0.6-3.4-1.7c-0.7-0.9-1.1-2-1.1-3.2c0-0.9,0.2-1.7,0.6-2.6c0.4-0.8,1-1.5,1.7-1.9
		C167.7,37.6,168.5,37.4,169.2,37.4z M168.9,38.1c-0.4,0-0.7,0.1-1.1,0.3c-0.4,0.2-0.7,0.6-0.9,1.1c-0.2,0.5-0.3,1.2-0.3,2.1
		c0,1.4,0.3,2.5,0.8,3.5c0.5,1,1.3,1.5,2.1,1.5c0.7,0,1.2-0.3,1.6-0.8c0.4-0.5,0.6-1.5,0.6-2.8c0-1.7-0.4-3-1.1-3.9
		C170.3,38.4,169.7,38.1,168.9,38.1z"/>
	<path class="st1" d="M178.4,32.5v12.4c0,0.6,0,1,0.1,1.2c0.1,0.2,0.2,0.3,0.4,0.4c0.2,0.1,0.5,0.1,1,0.1V47h-4.6v-0.4
		c0.4,0,0.7,0,0.9-0.1c0.2-0.1,0.3-0.2,0.4-0.4c0.1-0.2,0.1-0.6,0.1-1.2v-8.5c0-1.1,0-1.7-0.1-1.9c0-0.2-0.1-0.4-0.2-0.5
		c-0.1-0.1-0.2-0.1-0.4-0.1c-0.2,0-0.4,0.1-0.7,0.2l-0.2-0.4l2.8-1.1H178.4z"/>
	<path class="st1" d="M185.5,37.4c1.4,0,2.6,0.5,3.4,1.6c0.7,0.9,1.1,2,1.1,3.2c0,0.8-0.2,1.7-0.6,2.5c-0.4,0.9-1,1.5-1.7,1.9
		c-0.7,0.4-1.5,0.7-2.4,0.7c-1.4,0-2.5-0.6-3.4-1.7c-0.7-0.9-1.1-2-1.1-3.2c0-0.9,0.2-1.7,0.6-2.6c0.4-0.8,1-1.5,1.7-1.9
		C184,37.6,184.8,37.4,185.5,37.4z M185.2,38.1c-0.4,0-0.7,0.1-1.1,0.3c-0.4,0.2-0.7,0.6-0.9,1.1c-0.2,0.5-0.3,1.2-0.3,2.1
		c0,1.4,0.3,2.5,0.8,3.5c0.5,1,1.3,1.5,2.1,1.5c0.7,0,1.2-0.3,1.6-0.8c0.4-0.5,0.6-1.5,0.6-2.8c0-1.7-0.4-3-1.1-3.9
		C186.6,38.4,186,38.1,185.2,38.1z M187.7,32.8l-3,3.5h-0.3l1.1-3.5H187.7z"/>
	<path class="st1" d="M193.9,43.6c-0.6-0.3-1-0.7-1.3-1.2c-0.3-0.5-0.5-1.1-0.5-1.7c0-0.9,0.4-1.7,1-2.4c0.7-0.7,1.6-1,2.7-1
		c0.9,0,1.7,0.2,2.3,0.7h2c0.3,0,0.5,0,0.5,0c0,0,0.1,0,0.1,0.1c0,0.1,0.1,0.2,0.1,0.3c0,0.2,0,0.3-0.1,0.4c0,0-0.1,0.1-0.1,0.1
		c-0.1,0-0.2,0-0.5,0H199c0.4,0.5,0.6,1.1,0.6,1.9c0,0.9-0.3,1.6-1,2.2c-0.7,0.6-1.6,0.9-2.7,0.9c-0.5,0-0.9-0.1-1.4-0.2
		c-0.3,0.3-0.5,0.5-0.6,0.7c-0.1,0.2-0.2,0.4-0.2,0.5c0,0.1,0.1,0.2,0.2,0.3c0.1,0.1,0.3,0.2,0.7,0.2c0.2,0,0.7,0.1,1.4,0.1
		c1.4,0,2.3,0.1,2.7,0.1c0.6,0.1,1.1,0.3,1.5,0.7c0.4,0.4,0.6,0.9,0.6,1.4c0,0.8-0.4,1.5-1.1,2.2c-1.1,1-2.5,1.5-4.2,1.5
		c-1.3,0-2.4-0.3-3.3-0.9c-0.5-0.3-0.8-0.7-0.8-1.1c0-0.2,0-0.3,0.1-0.5c0.1-0.3,0.4-0.6,0.7-1.1c0-0.1,0.4-0.4,1-1.1
		c-0.4-0.2-0.6-0.4-0.8-0.6c-0.1-0.2-0.2-0.4-0.2-0.6c0-0.2,0.1-0.5,0.3-0.8C192.8,44.7,193.2,44.2,193.9,43.6z M193.8,47
		c-0.3,0.3-0.6,0.7-0.7,1c-0.2,0.3-0.2,0.6-0.2,0.8c0,0.3,0.2,0.6,0.6,0.9c0.7,0.4,1.7,0.6,3,0.6c1.2,0,2.1-0.2,2.7-0.7
		c0.6-0.4,0.9-0.9,0.9-1.4c0-0.4-0.2-0.6-0.5-0.8c-0.4-0.2-1.1-0.2-2.1-0.3C195.8,47.2,194.7,47.1,193.8,47z M195.7,37.9
		c-0.5,0-0.9,0.2-1.3,0.6c-0.3,0.4-0.5,1-0.5,1.9c0,1.1,0.2,1.9,0.7,2.5c0.4,0.4,0.8,0.7,1.3,0.7c0.5,0,0.9-0.2,1.3-0.6
		c0.3-0.4,0.5-1,0.5-1.8c0-1.1-0.2-1.9-0.7-2.5C196.7,38.1,196.3,37.9,195.7,37.9z"/>
	<path class="st1" d="M205.1,37.4v7.5c0,0.6,0,1,0.1,1.2c0.1,0.2,0.2,0.3,0.4,0.4c0.2,0.1,0.5,0.1,0.9,0.1V47H202v-0.4
		c0.5,0,0.8,0,0.9-0.1c0.2-0.1,0.3-0.2,0.4-0.4c0.1-0.2,0.1-0.6,0.1-1.2v-3.6c0-1,0-1.7-0.1-2c0-0.2-0.1-0.4-0.2-0.5
		c-0.1-0.1-0.2-0.1-0.4-0.1c-0.2,0-0.4,0.1-0.7,0.2l-0.1-0.4l2.8-1.1H205.1z M204.3,32.5c0.3,0,0.5,0.1,0.7,0.3
		c0.2,0.2,0.3,0.4,0.3,0.7c0,0.3-0.1,0.5-0.3,0.7c-0.2,0.2-0.4,0.3-0.7,0.3c-0.3,0-0.5-0.1-0.7-0.3c-0.2-0.2-0.3-0.4-0.3-0.7
		c0-0.3,0.1-0.5,0.3-0.7C203.7,32.6,204,32.5,204.3,32.5z"/>
	<path class="st1" d="M215.7,43.5c-0.3,1.2-0.7,2.2-1.5,2.8c-0.7,0.7-1.6,1-2.4,1c-1.1,0-2-0.4-2.8-1.3c-0.8-0.9-1.2-2.1-1.2-3.6
		c0-1.5,0.4-2.7,1.3-3.6c0.9-0.9,1.9-1.4,3.2-1.4c0.9,0,1.7,0.2,2.3,0.7c0.6,0.5,0.9,1,0.9,1.5c0,0.3-0.1,0.5-0.3,0.6
		c-0.2,0.2-0.4,0.2-0.7,0.2c-0.4,0-0.7-0.1-0.9-0.4c-0.1-0.1-0.2-0.4-0.2-0.8c0-0.4-0.2-0.7-0.4-0.9c-0.2-0.2-0.6-0.3-1-0.3
		c-0.7,0-1.2,0.3-1.6,0.8c-0.6,0.7-0.8,1.6-0.8,2.6c0,1.1,0.3,2.1,0.8,3c0.5,0.9,1.3,1.3,2.2,1.3c0.7,0,1.3-0.2,1.8-0.7
		c0.4-0.3,0.7-0.9,1.1-1.7L215.7,43.5z"/>
	<path class="st1" d="M221.6,37.4c1.4,0,2.6,0.5,3.4,1.6c0.7,0.9,1.1,2,1.1,3.2c0,0.8-0.2,1.7-0.6,2.5c-0.4,0.9-1,1.5-1.7,1.9
		c-0.7,0.4-1.5,0.7-2.4,0.7c-1.4,0-2.5-0.6-3.4-1.7c-0.7-0.9-1.1-2-1.1-3.2c0-0.9,0.2-1.7,0.6-2.6c0.4-0.8,1-1.5,1.7-1.9
		C220.1,37.6,220.8,37.4,221.6,37.4z M221.3,38.1c-0.4,0-0.7,0.1-1.1,0.3c-0.4,0.2-0.7,0.6-0.9,1.1c-0.2,0.5-0.3,1.2-0.3,2.1
		c0,1.4,0.3,2.5,0.8,3.5c0.5,1,1.3,1.5,2.1,1.5c0.7,0,1.2-0.3,1.6-0.8c0.4-0.5,0.6-1.5,0.6-2.8c0-1.7-0.4-3-1.1-3.9
		C222.6,38.4,222,38.1,221.3,38.1z"/>
	<g>
		<path class="st1" d="M130,66.3c-0.4,0.4-0.8,0.7-1.2,0.9c-0.4,0.2-0.8,0.3-1.2,0.3c-0.9,0-1.7-0.4-2.4-1.1c-0.7-0.8-1-1.7-1-2.9
			c0-1.2,0.4-2.3,1.1-3.2c0.7-1,1.7-1.5,2.9-1.5c0.7,0,1.3,0.2,1.8,0.7v-1.5c0-0.9,0-1.5-0.1-1.7c0-0.2-0.1-0.4-0.2-0.4
			c-0.1-0.1-0.2-0.1-0.4-0.1c-0.2,0-0.4,0-0.6,0.1l-0.1-0.3l2.5-1h0.4V64c0,1,0,1.6,0.1,1.8c0,0.2,0.1,0.4,0.2,0.4
			c0.1,0.1,0.2,0.1,0.3,0.1c0.2,0,0.4-0.1,0.6-0.2l0.1,0.3l-2.4,1H130V66.3z M130,65.7v-4.3c0-0.4-0.1-0.8-0.3-1.1
			c-0.2-0.3-0.4-0.6-0.7-0.8c-0.3-0.2-0.6-0.3-0.9-0.3c-0.5,0-1,0.2-1.4,0.7c-0.5,0.6-0.8,1.5-0.8,2.7c0,1.2,0.3,2.1,0.8,2.8
			c0.5,0.6,1.1,1,1.8,1C129,66.5,129.5,66.2,130,65.7z"/>
		<path class="st1" d="M134.8,62.1c0,1.2,0.3,2.2,0.9,2.9c0.6,0.7,1.3,1,2.1,1c0.5,0,1-0.1,1.4-0.4c0.4-0.3,0.7-0.8,1-1.5l0.3,0.2
			c-0.1,0.8-0.5,1.6-1.1,2.2c-0.6,0.7-1.4,1-2.3,1c-1,0-1.8-0.4-2.5-1.2c-0.7-0.8-1.1-1.8-1.1-3.1c0-1.4,0.4-2.5,1.1-3.3
			c0.7-0.8,1.6-1.2,2.7-1.2c0.9,0,1.7,0.3,2.3,0.9c0.6,0.6,0.9,1.4,0.9,2.4H134.8z M134.8,61.6h3.8c0-0.5-0.1-0.9-0.2-1.1
			c-0.2-0.3-0.4-0.6-0.7-0.8c-0.3-0.2-0.6-0.3-0.9-0.3c-0.5,0-0.9,0.2-1.3,0.6C135.1,60.3,134.9,60.9,134.8,61.6z"/>
		<path class="st1" d="M156.8,54.7l0.3,4.2h-0.3c-0.4-1.2-0.9-2.1-1.6-2.7c-0.7-0.5-1.5-0.8-2.5-0.8c-0.8,0-1.5,0.2-2.2,0.6
			c-0.7,0.4-1.2,1.1-1.5,2c-0.4,0.9-0.6,2-0.6,3.4c0,1.1,0.2,2.1,0.5,2.9c0.4,0.8,0.9,1.4,1.6,1.9c0.7,0.4,1.5,0.6,2.4,0.6
			c0.8,0,1.5-0.2,2.1-0.5c0.6-0.3,1.3-1,2-2l0.3,0.2c-0.6,1.1-1.3,1.9-2.1,2.4c-0.8,0.5-1.8,0.8-2.9,0.8c-2,0-3.6-0.8-4.7-2.3
			c-0.8-1.1-1.2-2.4-1.2-3.9c0-1.2,0.3-2.3,0.8-3.4c0.5-1,1.3-1.8,2.3-2.4c1-0.6,2-0.8,3.1-0.8c0.9,0,1.8,0.2,2.6,0.6
			c0.3,0.1,0.4,0.2,0.5,0.2c0.2,0,0.3-0.1,0.4-0.2c0.2-0.2,0.3-0.4,0.3-0.7H156.8z"/>
		<path class="st1" d="M162.6,58.7c1.2,0,2.3,0.5,3,1.4c0.6,0.8,1,1.7,1,2.8c0,0.7-0.2,1.5-0.5,2.2c-0.4,0.8-0.8,1.3-1.5,1.7
			c-0.6,0.4-1.3,0.6-2.1,0.6c-1.2,0-2.2-0.5-3-1.5c-0.6-0.8-0.9-1.8-0.9-2.8c0-0.8,0.2-1.5,0.6-2.3c0.4-0.7,0.9-1.3,1.5-1.7
			C161.2,58.9,161.9,58.7,162.6,58.7z M162.3,59.3c-0.3,0-0.6,0.1-1,0.3c-0.3,0.2-0.6,0.5-0.8,1c-0.2,0.5-0.3,1.1-0.3,1.8
			c0,1.2,0.2,2.2,0.7,3.1c0.5,0.9,1.1,1.3,1.9,1.3c0.6,0,1.1-0.2,1.4-0.7c0.4-0.5,0.6-1.3,0.6-2.5c0-1.5-0.3-2.6-0.9-3.5
			C163.5,59.6,163,59.3,162.3,59.3z"/>
		<path class="st1" d="M173.1,58.7v2.8h-0.3c-0.2-0.9-0.5-1.5-0.9-1.8c-0.4-0.3-0.8-0.5-1.4-0.5c-0.4,0-0.8,0.1-1,0.3
			c-0.3,0.2-0.4,0.5-0.4,0.7c0,0.3,0.1,0.6,0.3,0.9c0.2,0.2,0.6,0.5,1.1,0.8l1.3,0.6c1.2,0.6,1.8,1.4,1.8,2.4c0,0.8-0.3,1.4-0.9,1.8
			c-0.6,0.5-1.2,0.7-1.9,0.7c-0.5,0-1.1-0.1-1.7-0.3c-0.2-0.1-0.4-0.1-0.5-0.1c-0.1,0-0.2,0.1-0.3,0.2h-0.3v-2.9h0.3
			c0.2,0.8,0.5,1.5,1,1.9c0.5,0.4,1,0.6,1.6,0.6c0.4,0,0.8-0.1,1-0.4c0.3-0.2,0.4-0.5,0.4-0.9c0-0.4-0.1-0.8-0.4-1
			c-0.3-0.3-0.9-0.6-1.7-1.1c-0.9-0.4-1.4-0.8-1.7-1.2c-0.3-0.3-0.4-0.8-0.4-1.3c0-0.7,0.2-1.2,0.7-1.7c0.5-0.5,1.1-0.7,1.8-0.7
			c0.3,0,0.7,0.1,1.2,0.2c0.3,0.1,0.5,0.1,0.6,0.1c0.1,0,0.2,0,0.2-0.1c0.1,0,0.1-0.1,0.2-0.3H173.1z"/>
		<path class="st1" d="M177.3,56.3V59h1.9v0.6h-1.9V65c0,0.5,0.1,0.9,0.2,1.1c0.2,0.2,0.3,0.3,0.6,0.3c0.2,0,0.4-0.1,0.6-0.2
			c0.2-0.1,0.3-0.3,0.4-0.5h0.4c-0.2,0.6-0.5,1-0.9,1.3c-0.4,0.3-0.8,0.4-1.2,0.4c-0.3,0-0.5-0.1-0.8-0.2c-0.3-0.2-0.5-0.4-0.6-0.7
			c-0.1-0.3-0.2-0.7-0.2-1.3v-5.6h-1.3v-0.3c0.3-0.1,0.7-0.4,1-0.7c0.3-0.3,0.7-0.7,0.9-1.1c0.1-0.2,0.3-0.6,0.6-1.3H177.3z"/>
		<path class="st1" d="M184.8,66c-0.8,0.7-1.4,1-1.6,1.1c-0.3,0.2-0.7,0.2-1,0.2c-0.6,0-1-0.2-1.4-0.6c-0.4-0.4-0.6-0.9-0.6-1.5
			c0-0.4,0.1-0.8,0.3-1c0.2-0.4,0.7-0.8,1.3-1.2c0.6-0.4,1.6-0.8,3-1.3v-0.3c0-0.8-0.1-1.4-0.4-1.7c-0.3-0.3-0.6-0.5-1.1-0.5
			c-0.4,0-0.7,0.1-0.9,0.3c-0.2,0.2-0.3,0.4-0.3,0.7l0,0.5c0,0.3-0.1,0.5-0.2,0.6c-0.1,0.2-0.3,0.2-0.6,0.2c-0.2,0-0.4-0.1-0.5-0.2
			c-0.1-0.2-0.2-0.4-0.2-0.6c0-0.5,0.3-1,0.8-1.4c0.5-0.4,1.3-0.6,2.2-0.6c0.7,0,1.3,0.1,1.8,0.4c0.4,0.2,0.6,0.5,0.8,0.9
			c0.1,0.3,0.2,0.8,0.2,1.6v2.8c0,0.8,0,1.3,0,1.4c0,0.2,0.1,0.3,0.1,0.4c0.1,0.1,0.1,0.1,0.2,0.1c0.1,0,0.2,0,0.3-0.1
			c0.1-0.1,0.4-0.3,0.7-0.7V66c-0.7,0.9-1.3,1.4-1.9,1.4c-0.3,0-0.5-0.1-0.7-0.3C184.9,66.9,184.8,66.5,184.8,66z M184.8,65.5v-3.1
			c-0.9,0.4-1.5,0.6-1.8,0.8c-0.5,0.3-0.8,0.5-1,0.8c-0.2,0.3-0.3,0.6-0.3,0.9c0,0.4,0.1,0.8,0.4,1.1c0.3,0.3,0.6,0.4,0.9,0.4
			C183.4,66.4,184,66.1,184.8,65.5z"/>
		<path class="st1" d="M204.8,67.2h-3.3l-4.1-5.7c-0.3,0-0.6,0-0.7,0c-0.1,0-0.2,0-0.3,0c-0.1,0-0.2,0-0.3,0v3.6
			c0,0.8,0.1,1.2,0.3,1.4c0.2,0.3,0.6,0.4,1,0.4h0.5v0.3h-5.2v-0.3h0.5c0.5,0,0.9-0.2,1.1-0.5c0.1-0.2,0.2-0.6,0.2-1.3v-7.9
			c0-0.8-0.1-1.2-0.3-1.4c-0.2-0.3-0.6-0.4-1-0.4h-0.5V55h4.5c1.3,0,2.3,0.1,2.9,0.3c0.6,0.2,1.1,0.5,1.6,1c0.4,0.5,0.6,1.1,0.6,1.8
			c0,0.7-0.2,1.4-0.7,2c-0.5,0.6-1.2,0.9-2.3,1.2l2.5,3.5c0.6,0.8,1.1,1.3,1.5,1.6c0.4,0.3,1,0.4,1.6,0.5V67.2z M196.1,60.9
			c0.1,0,0.2,0,0.3,0c0.1,0,0.2,0,0.2,0c1.2,0,2-0.3,2.6-0.8c0.6-0.5,0.9-1.1,0.9-1.9c0-0.8-0.2-1.4-0.7-1.9
			c-0.5-0.5-1.1-0.7-1.9-0.7c-0.3,0-0.8,0.1-1.4,0.2V60.9z"/>
		<path class="st1" d="M208,58.7v6.6c0,0.5,0,0.9,0.1,1c0.1,0.2,0.2,0.3,0.3,0.4c0.1,0.1,0.4,0.1,0.8,0.1v0.3h-4v-0.3
			c0.4,0,0.7,0,0.8-0.1c0.1-0.1,0.2-0.2,0.3-0.4c0.1-0.2,0.1-0.5,0.1-1v-3.2c0-0.9,0-1.5-0.1-1.7c0-0.2-0.1-0.3-0.2-0.4
			c-0.1-0.1-0.2-0.1-0.4-0.1c-0.2,0-0.4,0-0.6,0.1l-0.1-0.3l2.5-1H208z M207.3,54.4c0.3,0,0.5,0.1,0.6,0.3c0.2,0.2,0.3,0.4,0.3,0.6
			c0,0.3-0.1,0.5-0.3,0.6c-0.2,0.2-0.4,0.3-0.6,0.3c-0.3,0-0.5-0.1-0.6-0.3c-0.2-0.2-0.3-0.4-0.3-0.6c0-0.3,0.1-0.5,0.3-0.6
			C206.8,54.5,207,54.4,207.3,54.4z"/>
		<path class="st1" d="M217.3,64.1c-0.2,1.1-0.7,1.9-1.3,2.5c-0.6,0.6-1.4,0.9-2.2,0.9c-0.9,0-1.8-0.4-2.5-1.2c-0.7-0.8-1-1.9-1-3.2
			c0-1.3,0.4-2.4,1.2-3.2c0.8-0.8,1.7-1.2,2.8-1.2c0.8,0,1.5,0.2,2,0.6c0.5,0.4,0.8,0.9,0.8,1.3c0,0.2-0.1,0.4-0.2,0.6
			c-0.1,0.1-0.4,0.2-0.6,0.2c-0.4,0-0.6-0.1-0.8-0.3c-0.1-0.1-0.2-0.4-0.2-0.7c0-0.4-0.2-0.6-0.4-0.8c-0.2-0.2-0.5-0.3-0.9-0.3
			c-0.6,0-1.1,0.2-1.5,0.7c-0.5,0.6-0.7,1.4-0.7,2.3c0,1,0.2,1.9,0.7,2.6c0.5,0.8,1.1,1.1,2,1.1c0.6,0,1.1-0.2,1.6-0.6
			c0.3-0.3,0.7-0.8,1-1.5L217.3,64.1z"/>
		<path class="st1" d="M223.2,66c-0.8,0.7-1.4,1-1.6,1.1c-0.3,0.2-0.7,0.2-1,0.2c-0.6,0-1-0.2-1.4-0.6c-0.4-0.4-0.6-0.9-0.6-1.5
			c0-0.4,0.1-0.8,0.3-1c0.2-0.4,0.7-0.8,1.3-1.2c0.6-0.4,1.6-0.8,3-1.3v-0.3c0-0.8-0.1-1.4-0.4-1.7c-0.3-0.3-0.6-0.5-1.1-0.5
			c-0.4,0-0.7,0.1-0.9,0.3c-0.2,0.2-0.3,0.4-0.3,0.7l0,0.5c0,0.3-0.1,0.5-0.2,0.6c-0.1,0.2-0.3,0.2-0.6,0.2c-0.2,0-0.4-0.1-0.5-0.2
			c-0.1-0.2-0.2-0.4-0.2-0.6c0-0.5,0.3-1,0.8-1.4c0.5-0.4,1.3-0.6,2.2-0.6c0.7,0,1.3,0.1,1.8,0.4c0.4,0.2,0.6,0.5,0.8,0.9
			c0.1,0.3,0.2,0.8,0.2,1.6v2.8c0,0.8,0,1.3,0,1.4c0,0.2,0.1,0.3,0.1,0.4c0.1,0.1,0.1,0.1,0.2,0.1c0.1,0,0.2,0,0.3-0.1
			c0.1-0.1,0.4-0.3,0.7-0.7V66c-0.7,0.9-1.3,1.4-1.9,1.4c-0.3,0-0.5-0.1-0.7-0.3C223.3,66.9,223.2,66.5,223.2,66z M223.2,65.5v-3.1
			c-0.9,0.4-1.5,0.6-1.8,0.8c-0.5,0.3-0.8,0.5-1,0.8c-0.2,0.3-0.3,0.6-0.3,0.9c0,0.4,0.1,0.8,0.4,1.1c0.3,0.3,0.6,0.4,0.9,0.4
			C221.8,66.4,222.4,66.1,223.2,65.5z"/>
	</g>
	<path class="st1" d="M41.6,33.3l0.4,7.9h-0.9c-0.2-1.4-0.4-2.4-0.7-3c-0.5-1-1.2-1.7-2-2.1c-0.8-0.5-2-0.7-3.3-0.7h-4.7v25.6
		c0,2.1,0.2,3.3,0.7,3.9c0.6,0.7,1.6,1,2.9,1h1.2v0.9H20.7v-0.9h1.2c1.4,0,2.4-0.4,3-1.3c0.4-0.5,0.5-1.7,0.5-3.6V35.4h-4
		c-1.6,0-2.7,0.1-3.3,0.3c-0.9,0.3-1.6,0.9-2.2,1.8c-0.6,0.9-1,2.1-1.1,3.6h-0.9l0.4-7.9H41.6z"/>
	<path class="st1" d="M52.3,35.1v13.2h7.4c1.9,0,3.2-0.3,3.8-0.9c0.9-0.8,1.3-2.1,1.4-4h0.9v11.7h-0.9c-0.2-1.6-0.5-2.7-0.7-3.1
		c-0.3-0.6-0.8-1-1.5-1.4c-0.7-0.3-1.7-0.5-3.1-0.5h-7.4v11c0,1.5,0.1,2.4,0.2,2.7c0.1,0.3,0.4,0.6,0.7,0.8c0.3,0.2,1,0.3,1.9,0.3
		h5.7c1.9,0,3.3-0.1,4.1-0.4c0.9-0.3,1.7-0.8,2.5-1.6c1-1,2.1-2.6,3.1-4.6h1l-2.9,8.4H42.8v-0.9H44c0.8,0,1.5-0.2,2.2-0.6
		c0.5-0.3,0.9-0.7,1.1-1.2c0.2-0.5,0.3-1.6,0.3-3.2V39.1c0-2.1-0.2-3.4-0.6-3.9c-0.6-0.7-1.6-1-3-1h-1.2v-0.9h25.8l0.4,7.3h-1
		c-0.3-1.8-0.7-3-1.1-3.6c-0.4-0.7-1-1.2-1.9-1.5c-0.7-0.2-1.8-0.4-3.5-0.4H52.3z"/>
	<path class="st1" d="M100.1,32.5l0.8,11.4h-0.8c-1-3.4-2.5-5.9-4.4-7.4c-1.9-1.5-4.2-2.2-6.8-2.2c-2.2,0-4.2,0.6-6,1.7
		c-1.8,1.1-3.2,2.9-4.2,5.4c-1,2.5-1.5,5.5-1.5,9.2c0,3,0.5,5.7,1.5,7.9c1,2.2,2.4,3.9,4.4,5.1c2,1.2,4.2,1.8,6.7,1.8
		c2.2,0,4.1-0.5,5.8-1.4c1.7-0.9,3.5-2.8,5.5-5.5l0.8,0.5c-1.7,3-3.6,5.2-5.9,6.5c-2.2,1.4-4.9,2.1-8,2.1c-5.5,0-9.8-2.1-12.9-6.2
		c-2.3-3.1-3.4-6.7-3.4-10.8c0-3.3,0.7-6.4,2.2-9.2c1.5-2.8,3.6-5,6.2-6.5c2.6-1.5,5.5-2.3,8.6-2.3c2.4,0,4.8,0.6,7.2,1.8
		c0.7,0.4,1.2,0.5,1.5,0.5c0.4,0,0.8-0.2,1.2-0.5c0.4-0.4,0.7-1.1,0.9-1.9H100.1z"/>
</g>
</svg>
