<?xml version="1.0" encoding="utf-8"?>
<!-- Generator: Adobe Illustrator 19.0.0, SVG Export Plug-In . SVG Version: 6.00 Build 0)  -->
<svg version="1.1" id="Layer_1" xmlns="http://www.w3.org/2000/svg" xmlns:xlink="http://www.w3.org/1999/xlink" x="0px" y="0px"
	 viewBox="0 0 240 100" style="enable-background:new 0 0 240 100;" xml:space="preserve">
<style type="text/css">
	.st0{fill:#003140;}
</style>
<g>
	<path class="st0" d="M87.8,47.6c-2.4,3.4-5.6,6.4-8.4,6.5c-1.2,0-1.7-0.7-1.7-2c0-0.8,0.2-2,0.3-2.6c2.7-1.3,5.3-2.8,7.7-5.3
		c1.3-1.4,2.2-2.9,2.3-4.3c0-1.4-0.9-2.1-2.6-2.2c-2.5,0-5.6,1.7-7.6,3.8c-2.6,2.8-4.6,6.8-4.7,10.4c0,2.5,1.2,4.5,4.4,4.4
		c3.5-0.1,6.9-2.8,8.6-4.7c-0.2,0.8-0.4,1.6-0.4,2.3c0,2.2,1.1,3.8,3.3,4.5l0.4-0.2c-0.2-0.6-0.2-1.2-0.2-2c0.2-2.2,1-4.6,2.3-7.9
		c2.4-6.1,6-13.1,7.5-17.2l-3.7,0.7c-0.6,0.1-0.9,0.6-1.1,1c-1.8,3.8-3.6,7.8-5.9,13.1C88.3,46.4,88.1,47,87.8,47.6 M84.3,39.5
		c0.6,0,0.8,0.4,0.8,0.9c0,2.4-2.9,5.4-6.7,7.6C79.3,44.3,82,39.5,84.3,39.5"/>
	<path class="st0" d="M147.6,53.7c0,1.7,1.1,2.7,3.1,2.7c2.1,0,4.3-1.3,6.1-3c0.3,1.8,1.6,3.1,4.3,3.1c2.8-0.1,5.4-1.8,7.3-3.9
		c0,0.2,0,0.4,0,0.6c0,1.9,1,3.2,3.1,3.2c2.3,0,5-1.7,7-4.7l0.1,0c-0.2,0.7-0.4,1.9-0.4,2.7c-0.1,2.2,1.3,3.5,3.2,3.9l0.4-0.2
		c-0.7-1.6,0.3-5.7,0.7-7c1.4-4.4,3.6-9.5,4.8-12.2c-0.6-0.5-1.9-0.8-3.4-0.9c-4.8-0.2-9.6,1.8-13.1,8c-0.6,1.1-1.3,2.3-1.7,3.7
		c-0.5,0.6-1,1.2-1.2,1.4c-1.3,1.2-3.1,2.8-4.9,2.8c-1,0-1.6-0.7-1.6-2c0-5,4.4-12.5,7.4-12.6c0.8,0,1.2,0.4,1.2,1.1
		c0,0.8-0.6,2-1.4,2.7l0.3,0.3c2-0.8,3.9-2.2,3.9-3.6c0-1.7-1.9-2-3.7-2c-2.3,0-5.2,1.2-7.5,3.7c-2.9,3.2-4.4,7-4.7,9.7
		c-1.3,1.6-2.8,2.6-3.8,2.6c-0.6,0-0.9-0.3-1-0.9c0-0.5,0.3-1.6,0.8-2.9c1.3-3.2,3.1-7.2,5.4-11.9c0,0-3.5,0.6-4,0.7
		c-0.5,0.1-0.9,0.5-1.2,1c-1.5,3.1-3.2,6.8-4.3,9.5C148,51.1,147.6,52.7,147.6,53.7 M180.2,40.1c1.1-0.5,2.1-0.6,2.8-0.4
		c-0.3,0.6-1.6,3.3-2.7,5.7c-1.6,3.8-4.1,7.6-6.4,8.2c-0.8,0.2-1.3-0.1-1.3-0.9C172.7,49.3,176.4,41.8,180.2,40.1"/>
	<path class="st0" d="M98.6,41.5C96,44.3,94,48.3,94,51.9c0,2.5,1.3,4.5,4.6,4.4c3.6-0.1,6.8-2.2,9.6-5.1c-0.7,1.9-1.3,3.5-1.7,4.4
		c-1,2.6-1.8,4.7-3.4,5.9l0.2,0.3c4.7,0.3,6.4-3,8.4-8.4c1.9-5.4,3.6-10.1,4.8-13.3c2,0,5,0.1,6.6-0.3c-4.3,1.9-7.9,8.7-7.4,13.2
		c0.2,2,1.3,3.3,3.9,3.3c4.9,0,9-5.8,10.6-9.6c0.9-2.2,1.5-4.1,1.6-5.9c1.1-0.2,2.3-0.4,2.8-0.5c1.1-0.2,0.9,1,0.5,1.9
		c-2,5.6-5.5,13.7-5.5,13.8l3.8,0c1.6-3.4,2.7-5.6,4-8c1.6-2.8,5.1-7.3,6.5-7.3c0.5,0,0.6,0.3,0.5,0.8c-0.3,1.9-4.8,9-4.8,12.6
		c0,2.3,1.3,3.7,3.4,4.2l0.4-0.2c-0.3-0.5-0.3-1.1-0.3-1.9c0-2.4,1.9-6.5,2.6-8.1c1.2-2.5,3.3-6.2,3.1-8.2c-0.1-1-0.8-1.9-2.5-1.9
		c-3.1,0-6.2,3-8.8,7.1l-0.1,0c1-2.3,1.9-4.5,1.8-5.6c0-1-0.6-1.4-1.7-1.4c-0.8,0-1.9,0.3-3,0.6c-1.5,0.4-3.2,0.8-4.9,1.2
		c-1.1,0.2-1.5,0.3-1.4,0.7c0.2,6.2-4,13.5-6.8,13.5c-1.2,0-1.5-0.9-1.5-2.1c0-4.3,3.5-11.5,7-12.6c0.3-0.1,0.6-0.2,0.8-0.2l0.4-1.2
		c-0.7,0.1-2.5,0.2-3.4,0.2c-0.9,0-7.6,0-7.6,0c2-4.8,4.8-7.8,8.9-8c2.6-0.1,4.3,0.9,4.4,2.3c0.1,1.2-0.2,2.2-1.2,3.3l0.3,0.3
		c2.2-1.1,3.8-2.9,3.8-4.1c0-1.9-2.3-3.1-5.9-3.1c-4.6,0-10.4,1.1-14.4,9.4c-1.2,0.2-2.3,0.7-3.2,1.6l0.2,0.4
		c0.6-0.2,1.4-0.3,2.3-0.3c-0.6,1.4-1.7,4.3-2.8,7.4c-3.4,4.5-6.8,6.6-9.2,6.6c-1.4,0-1.9-0.7-1.9-2c0-0.8,0.2-2,0.4-2.6
		c2.7-1.3,5.3-2.8,7.7-5.3c1.3-1.4,2.3-2.9,2.3-4.3c0-1.4-0.9-2.1-2.6-2.2C103.6,37.6,100.6,39.4,98.6,41.5 M105,39.5
		c0.6,0,0.8,0.4,0.8,0.9c0,2.4-2.9,5.4-6.7,7.6C100,44.3,102.7,39.5,105,39.5"/>
	<path id="XMLID_44_" class="st0" d="M158.2,35.2c1.1,0,2.1-1,2.4-2.2c0.3-1.2-0.4-2.1-1.5-2.1c-1.1,0-2.1,1-2.4,2.2
		C156.5,34.3,157.2,35.3,158.2,35.2"/>
	<path id="XMLID_43_" class="st0" d="M120,69.3c-38.7,0-77.9,0.5-77.9,1c0,0.6,39.3,1,77.9,1c38.7,0,77.9-0.5,77.9-1
		C197.9,69.7,158.7,69.3,120,69.3"/>
	<path id="XMLID_42_" class="st0" d="M57.6,41.7l0.2-0.2c-0.4-0.6-0.5-1.6-0.5-2.2c0.1-5,5.4-7.9,13.8-7.9h4.6
		C73,33,70.8,35,69.1,38.9c-0.7,1.7-4.3,10.7-5.7,14.7c-1.8,4.8-2.9,7-4.3,7.8l0.2,0.4c4,0.2,6.4-1.8,7.9-5.6
		c1.5-3.6,3.4-9.2,4.3-11.7c3.1-8.1,4.4-11.5,6.8-13.2c3.4,0,6.7,0,6.7,0c3.7-0.1,5.2-1,6.3-2.4l-0.2-0.3c-0.9,0.5-2.9,0.6-4.6,0.6
		H70c-9.3,0-15,3-15.9,7.6C53.7,39,54.9,41.4,57.6,41.7"/>
</g>
</svg>
