<?xml version="1.0" encoding="utf-8"?>
<!-- Generator: Adobe Illustrator 19.0.0, SVG Export Plug-In . SVG Version: 6.00 Build 0)  -->
<svg version="1.1" id="Layer_1" xmlns="http://www.w3.org/2000/svg" xmlns:xlink="http://www.w3.org/1999/xlink" x="0px" y="0px"
	 viewBox="-275 257 240 100" style="enable-background:new -275 257 240 100;" xml:space="preserve">
<style type="text/css">
	.st0{fill:#2D031A;}
	.st1{fill:#FFFFFF;}
</style>
<g>
	<path class="st0" d="M-155,269.4c2.6,0.1,3-3.9,5.3-3.5c2.3,0.4,1.2,4.3,3.8,5.1c2.4,1,4.1-2.6,6.1-1.5c2,1.1-0.3,4.4,1.8,6l0,0
		c1.9,1.8,4.8-1,6.3,0.7c1.5,1.8-1.8,4.1-0.4,6.3h0c1.2,2.3,4.8,0.7,5.6,2.8c0.8,2.2-3.1,3.2-2.5,5.8c0.3,2.6,4.3,2.3,4.3,4.6
		c0,2.3-4,2-4.3,4.6c-0.6,2.6,3.3,3.6,2.5,5.8c-0.8,2.1-4.4,0.5-5.6,2.8c-1.4,2.2,1.8,4.5,0.4,6.3c-1.5,1.8-4.3-1.1-6.3,0.7l0,0
		c-2.1,1.6,0.2,4.9-1.8,6c-2,1.1-3.7-2.5-6.1-1.5h0c-2.5,0.8-1.5,4.7-3.8,5.1c-2.3,0.4-2.6-3.6-5.3-3.5l0,0c-2.6-0.1-3,3.9-5.3,3.5
		c-2.3-0.4-1.2-4.3-3.8-5.1c-2.4-1-4.1,2.6-6.1,1.5c-2-1.1,0.3-4.4-1.8-6c-1.9-1.8-4.8,1-6.3-0.7c-1.5-1.8,1.8-4.1,0.4-6.3
		c-1.2-2.3-4.8-0.7-5.6-2.8c-0.8-2.1,3.1-3.2,2.5-5.8c-0.3-2.6-4.3-2.3-4.3-4.6c0-2.3,4-2,4.3-4.6c0.6-2.6-3.3-3.6-2.5-5.8
		c0.8-2.1,4.4-0.5,5.6-2.8c1.4-2.2-1.8-4.5-0.4-6.3c1.5-1.8,4.3,1.1,6.3-0.7c2.1-1.6-0.2-4.9,1.8-6c2-1.1,3.7,2.5,6.1,1.5
		c2.5-0.8,1.5-4.7,3.8-5.1C-158,265.5-157.6,269.5-155,269.4"/>
	<path class="st1" d="M-155,272.9c2.3,0.1,2.6-3.3,4.5-3c1.9,0.3,1.1,3.7,3.2,4.4c2.1,0.9,3.6-2.2,5.3-1.3c1.7,1-0.3,3.8,1.6,5.2
		l0,0c1.7,1.5,4.1-0.9,5.4,0.6c1.3,1.5-1.6,3.5-0.3,5.4h0c1,2,4.2,0.6,4.9,2.4c0.7,1.9-2.7,2.8-2.2,5c0.3,2.3,3.7,2,3.7,3.9
		c0,2-3.5,1.7-3.7,4c-0.5,2.2,2.8,3.1,2.2,5c-0.7,1.9-3.8,0.4-4.9,2.4c-1.2,1.9,1.6,3.9,0.3,5.4c-1.3,1.5-3.7-0.9-5.4,0.6l0,0
		c-1.8,1.4,0.2,4.2-1.5,5.2c-1.7,1-3.2-2.1-5.3-1.3h0c-2.2,0.7-1.3,4-3.2,4.4c-1.9,0.3-2.3-3.1-4.5-3h0c-2.3-0.1-2.6,3.3-4.5,3
		c-1.9-0.3-1.1-3.7-3.2-4.4c-2.1-0.9-3.6,2.2-5.3,1.3c-1.7-1,0.3-3.8-1.6-5.2c-1.7-1.5-4.1,0.9-5.4-0.6c-1.3-1.5,1.6-3.5,0.3-5.4
		c-1-2-4.2-0.6-4.9-2.4c-0.7-1.9,2.7-2.8,2.2-5c-0.3-2.3-3.7-2-3.7-4c0-2,3.5-1.7,3.7-4c0.5-2.2-2.8-3.1-2.2-5
		c0.7-1.9,3.8-0.4,4.9-2.4c1.2-1.9-1.6-3.9-0.3-5.4c1.3-1.5,3.7,0.9,5.4-0.6c1.8-1.4-0.2-4.2,1.6-5.2c1.7-1,3.2,2.1,5.3,1.3
		c2.2-0.7,1.3-4,3.2-4.4C-157.6,269.6-157.2,273-155,272.9"/>
	<path class="st0" d="M-155,276.2c2,0.1,2.2-2.9,3.9-2.6c1.7,0.3,0.9,3.2,2.8,3.8c1.8,0.8,3.1-1.9,4.5-1.1c1.5,0.8-0.2,3.3,1.3,4.5
		h0c1.4,1.3,3.5-0.8,4.6,0.5c1.1,1.3-1.3,3-0.3,4.7l0,0c0.9,1.7,3.6,0.5,4.2,2.1c0.6,1.6-2.3,2.4-1.9,4.3c0.2,1.9,3.2,1.7,3.2,3.4
		c0,1.7-3,1.5-3.2,3.4c-0.4,1.9,2.4,2.7,1.9,4.3c-0.6,1.6-3.3,0.4-4.2,2.1c-1.1,1.6,1.4,3.4,0.3,4.7c-1.1,1.3-3.2-0.8-4.6,0.5l0,0
		c-1.6,1.2,0.1,3.6-1.3,4.5c-1.5,0.8-2.7-1.8-4.5-1.1l0,0c-1.9,0.6-1.1,3.5-2.8,3.8c-1.7,0.3-2-2.7-3.9-2.6h0
		c-2-0.1-2.2,2.9-3.9,2.6c-1.7-0.3-0.9-3.2-2.8-3.8c-1.8-0.8-3.1,1.9-4.5,1.1c-1.5-0.8,0.2-3.3-1.3-4.5c-1.4-1.3-3.6,0.8-4.6-0.5
		c-1.1-1.3,1.3-3,0.3-4.7c-0.9-1.7-3.6-0.5-4.2-2.1c-0.6-1.6,2.3-2.4,1.9-4.3c-0.2-1.9-3.2-1.7-3.2-3.4c0-1.7,3-1.5,3.2-3.4
		c0.4-1.9-2.4-2.7-1.9-4.3c0.6-1.6,3.3-0.4,4.2-2.1c1.1-1.6-1.4-3.4-0.3-4.7c1.1-1.3,3.2,0.8,4.6-0.5c1.6-1.2-0.1-3.6,1.3-4.5
		c1.5-0.8,2.7,1.8,4.5,1.1c1.9-0.6,1.1-3.5,2.8-3.8C-157.2,273.3-157,276.3-155,276.2"/>
	<g>
		<g>
			<path class="st1" d="M-157.5,285.2l-1.3-4.3l-0.4,0.6l1.4,3.7"/>
			<path class="st1" d="M-155.9,285l-0.2-4.8l-0.7-0.7l-0.6,0.7l0.9,4.8"/>
		</g>
		<g>
			<path class="st1" d="M-161,286.7l-2.7-3.5l-0.2,0.7l2.6,3"/>
			<path class="st1" d="M-159.5,286l-1.9-4.5l-0.9-0.4l-0.3,0.9l2.5,4.2"/>
		</g>
		<g>
			<path class="st1" d="M-163.7,289.3l-3.8-2.4l0.1,0.7l3.5,1.9"/>
			<path class="st1" d="M-162.6,288.1l-3.3-3.6l-1,0l0,0.9l3.7,3.1"/>
		</g>
		<g>
			<path class="st1" d="M-165.4,292.7l-4.4-1l0.3,0.6l3.9,0.6"/>
			<path class="st1" d="M-164.7,291.1l-4.3-2.2l-1,0.3l0.3,0.9l4.6,1.6"/>
		</g>
		<g>
			<path class="st1" d="M-165.8,296.4l-4.4,0.6l0.5,0.5l3.9-0.7"/>
			<path class="st1" d="M-165.7,294.7l-4.8-0.6l-0.8,0.6l0.6,0.7l4.9,0"/>
		</g>
		<g>
			<path class="st1" d="M-165,300.1l-4,2.1l0.6,0.3l3.4-2"/>
			<path class="st1" d="M-165.4,298.5l-4.7,1.1l-0.5,0.9l0.8,0.5l4.5-1.7"/>
		</g>
		<g>
			<path class="st1" d="M-162.9,303.2l-3,3.3l0.7,0.1l2.5-3.1"/>
			<path class="st1" d="M-163.8,301.9l-4.1,2.6l-0.2,1l0.9,0.1l3.7-3.1"/>
		</g>
		<g>
			<path class="st1" d="M-159.8,305.5l-1.7,4.1l0.7-0.2l1.3-3.8"/>
			<path class="st1" d="M-161.2,304.5l-3,3.9l0.1,1l0.9-0.2l2.4-4.2"/>
		</g>
		<g>
			<path class="st1" d="M-156.2,306.5l-0.2,4.5l0.6-0.4l-0.1-4"/>
			<path class="st1" d="M-157.8,306.1l-1.5,4.6l0.5,0.9l0.8-0.5l0.8-4.8"/>
		</g>
		<g>
			<path class="st1" d="M-152.5,306.3l1.3,4.3l0.4-0.6l-1.4-3.7"/>
			<path class="st1" d="M-154.1,306.5l0.2,4.9l0.7,0.7l0.6-0.7l-0.9-4.8"/>
		</g>
		<g>
			<path class="st1" d="M-149,304.8l2.7,3.5l0.2-0.7l-2.6-3"/>
			<path class="st1" d="M-150.5,305.5l1.9,4.5l0.9,0.4l0.3-0.9l-2.5-4.2"/>
		</g>
		<g>
			<path class="st1" d="M-146.3,302.2l3.8,2.4l-0.1-0.7l-3.5-1.9"/>
			<path class="st1" d="M-147.4,303.4l3.3,3.6l1,0l0-0.9l-3.7-3.1"/>
		</g>
		<g>
			<path class="st1" d="M-144.6,298.8l4.4,1l-0.3-0.6l-3.9-0.6"/>
			<path class="st1" d="M-145.3,300.3l4.3,2.2l1-0.3l-0.3-0.9l-4.6-1.6"/>
		</g>
		<g>
			<path class="st1" d="M-144.2,295.1l4.4-0.6l-0.5-0.5l-3.9,0.7"/>
			<path class="st1" d="M-144.3,296.7l4.8,0.6l0.8-0.6l-0.6-0.7l-4.9,0"/>
		</g>
		<g>
			<path class="st1" d="M-145,291.4l4-2.1l-0.6-0.3l-3.4,2"/>
			<path class="st1" d="M-144.6,293l4.7-1.1l0.5-0.9l-0.8-0.5l-4.5,1.7"/>
		</g>
		<g>
			<path class="st1" d="M-147.1,288.3l3-3.3l-0.7-0.1l-2.5,3.1"/>
			<path class="st1" d="M-146.2,289.6l4.1-2.6l0.2-1l-0.9-0.1l-3.7,3.1"/>
		</g>
		<g>
			<path class="st1" d="M-150.2,286l1.7-4.1l-0.7,0.2l-1.3,3.8"/>
			<path class="st1" d="M-148.8,286.9l3-3.9l-0.1-1l-0.9,0.2l-2.4,4.2"/>
		</g>
		<g>
			<path class="st1" d="M-153.8,284.9l0.2-4.5l-0.6,0.4l0.1,4"/>
			<path class="st1" d="M-152.2,285.4l1.5-4.6l-0.5-0.9l-0.8,0.5l-0.8,4.8"/>
		</g>
	</g>
	<circle class="st1" cx="-153.9" cy="290.9" r="2.3"/>
	<circle class="st1" cx="-149" cy="295.1" r="1.3"/>
	<g>
		<g>
			<path class="st0" d="M-177,339.8l-1.5-12.3h2.8l0.7,8.6h0.2l0.6-8.6h2.7l-1.5,12.3H-177z"/>
			<path class="st0" d="M-170.8,339.8v-12.3h2.6v12.3H-170.8z"/>
			<path class="st0" d="M-167,339.8v-12.3h3.6c0.6,0,1,0.1,1.4,0.2c0.4,0.1,0.7,0.3,0.9,0.6c0.2,0.3,0.4,0.6,0.5,1
				c0.1,0.4,0.1,0.9,0.1,1.5c0,0.4,0,0.8,0,1.1c0,0.3-0.1,0.5-0.1,0.7c-0.1,0.2-0.2,0.3-0.3,0.5c-0.1,0.1-0.2,0.2-0.4,0.3v0.1
				c0.2,0.1,0.3,0.2,0.4,0.3c0.1,0.1,0.2,0.2,0.3,0.4c0.1,0.2,0.2,0.5,0.2,0.8c0,0.4,0.1,0.8,0.1,1.5c0,0.6,0,1.1-0.1,1.5
				c-0.1,0.4-0.2,0.8-0.4,1c-0.2,0.3-0.5,0.5-0.9,0.6c-0.4,0.1-0.8,0.2-1.4,0.2H-167z M-163.7,332.5c0.2,0,0.4-0.1,0.5-0.3
				c0.1-0.2,0.1-0.6,0.1-1.1c0-0.5-0.1-0.8-0.2-1c-0.1-0.2-0.3-0.2-0.5-0.2h-0.7v2.6H-163.7z M-163.7,337.3c0.2,0,0.4-0.1,0.5-0.2
				c0.1-0.2,0.2-0.5,0.2-0.9c0-0.6,0-1-0.1-1.2c-0.1-0.2-0.3-0.4-0.5-0.4h-0.9v2.7H-163.7z"/>
			<path class="st0" d="M-155.5,339.8c0-0.1-0.1-0.2-0.1-0.3c0-0.1-0.1-0.3-0.1-0.5c0-0.2-0.1-0.6-0.1-1c-0.1-0.4-0.1-1-0.2-1.7
				c0-0.3-0.1-0.5-0.1-0.7c0-0.2-0.1-0.3-0.1-0.4c0-0.1-0.1-0.2-0.2-0.2c-0.1,0-0.1,0-0.2,0h-0.4v4.8h-2.5v-12.3h3.7
				c0.6,0,1,0.1,1.4,0.2c0.4,0.1,0.6,0.3,0.9,0.6c0.2,0.3,0.4,0.6,0.4,1c0.1,0.4,0.1,0.9,0.1,1.5c0,0.6,0,1.1-0.1,1.5
				c0,0.4-0.1,0.6-0.2,0.9c-0.1,0.2-0.2,0.4-0.3,0.5c-0.1,0.1-0.3,0.2-0.5,0.3v0.1c0.1,0.1,0.1,0.1,0.2,0.2c0.1,0.1,0.1,0.2,0.2,0.3
				c0.1,0.2,0.2,0.5,0.3,0.9c0.1,0.4,0.2,0.9,0.3,1.7c0.1,0.5,0.1,0.9,0.1,1.2c0,0.3,0.1,0.5,0.1,0.7c0,0.2,0,0.3,0.1,0.4
				c0,0.1,0,0.2,0.1,0.3v0.1H-155.5z M-156.3,332.7c0.2,0,0.4-0.1,0.5-0.3c0.1-0.2,0.1-0.6,0.1-1.2c0-0.5-0.1-0.8-0.2-1
				c-0.1-0.2-0.3-0.2-0.5-0.2h-0.6v2.7H-156.3z"/>
			<path class="st0" d="M-148.2,339.8l-0.2-2.8h-1.2l-0.2,2.8h-2.6l1.3-12.3h4.3l1.2,12.3H-148.2z M-149,330.1h-0.2l-0.4,4.4h1
				L-149,330.1z"/>
			<path class="st0" d="M-144,339.8v-9.7h-1.9v-2.6h6.4v2.6h-1.9v9.7H-144z"/>
			<path class="st0" d="M-133.1,339c-0.1,0.2-0.2,0.4-0.4,0.5c-0.1,0.1-0.3,0.2-0.5,0.3c-0.2,0.1-0.5,0.1-0.8,0.2c-0.3,0-0.6,0-1,0
				c-0.8,0-1.4-0.1-1.8-0.2c-0.4-0.1-0.7-0.4-0.9-0.8c-0.1-0.2-0.2-0.4-0.3-0.6c-0.1-0.2-0.1-0.5-0.2-0.9c0-0.4-0.1-0.9-0.1-1.5
				c0-0.6,0-1.4,0-2.4c0-1,0-1.7,0-2.3c0-0.6,0.1-1.1,0.1-1.5c0-0.4,0.1-0.7,0.2-0.9c0.1-0.2,0.2-0.4,0.3-0.6
				c0.1-0.2,0.2-0.3,0.4-0.5c0.1-0.1,0.3-0.2,0.5-0.3c0.2-0.1,0.5-0.1,0.8-0.2c0.3,0,0.6,0,1,0c0.8,0,1.4,0.1,1.8,0.2
				c0.4,0.2,0.7,0.4,0.9,0.8c0.1,0.2,0.2,0.4,0.3,0.6c0.1,0.2,0.1,0.5,0.2,0.9c0,0.4,0.1,0.9,0.1,1.5c0,0.6,0,1.4,0,2.3
				c0,1,0,1.7,0,2.4c0,0.6-0.1,1.1-0.1,1.5c0,0.4-0.1,0.7-0.2,0.9C-132.9,338.6-133,338.8-133.1,339z M-135.2,336.9
				c0-0.1,0-0.2,0.1-0.3c0-0.1,0-0.3,0-0.5c0-0.2,0-0.6,0-1c0-0.4,0-0.9,0-1.6c0-0.7,0-1.2,0-1.6c0-0.4,0-0.7,0-1c0-0.2,0-0.4,0-0.5
				c0-0.1,0-0.2-0.1-0.3c0-0.1-0.1-0.2-0.2-0.2c-0.1,0-0.2-0.1-0.4-0.1c-0.2,0-0.4,0-0.4,0.1c-0.1,0-0.2,0.1-0.2,0.2
				c0,0.1-0.1,0.2-0.1,0.3c0,0.1,0,0.3-0.1,0.5c0,0.2,0,0.6,0,1c0,0.4,0,1,0,1.6c0,0.7,0,1.2,0,1.6c0,0.4,0,0.7,0,1
				c0,0.2,0,0.4,0.1,0.5c0,0.1,0,0.2,0.1,0.3c0,0.1,0.1,0.2,0.2,0.2c0.1,0,0.2,0.1,0.4,0.1c0.2,0,0.4,0,0.4-0.1
				C-135.3,337.1-135.2,337.1-135.2,336.9z"/>
		</g>
		<g>
			<path class="st0" d="M-164.3,343.3c0-0.1,0-0.1,0-0.1c0,0,0-0.1,0-0.2c0-0.2,0-0.4-0.1-0.4c-0.1-0.1-0.2-0.1-0.3-0.1
				c-0.2,0-0.3,0-0.3,0.1c0,0.1-0.1,0.2-0.1,0.4c0,0.2,0,0.3,0.1,0.4c0.1,0.1,0.1,0.2,0.3,0.2c0.1,0.1,0.3,0.1,0.4,0.2
				c0.1,0.1,0.2,0.1,0.3,0.2c0.1,0,0.2,0.1,0.3,0.1c0.1,0,0.2,0.1,0.3,0.2c0.1,0.1,0.2,0.1,0.3,0.2c0.1,0.1,0.1,0.2,0.2,0.3
				c0,0.1,0.1,0.3,0.1,0.5c0,0.2,0,0.4,0,0.7c0,0.4,0,0.8-0.1,1c-0.1,0.3-0.2,0.5-0.3,0.7c-0.1,0.2-0.3,0.3-0.6,0.3
				c-0.2,0.1-0.5,0.1-0.9,0.1c-0.6,0-1-0.1-1.3-0.3c-0.3-0.2-0.4-0.6-0.4-1.1c0-0.2,0-0.4,0-0.5c0-0.2,0-0.3,0.1-0.4h1.2
				c0,0,0,0.1,0,0.1c0,0,0,0.1,0,0.1c0,0.3,0,0.4,0.1,0.5c0.1,0.1,0.2,0.2,0.4,0.2c0.2,0,0.3,0,0.4-0.1c0.1-0.1,0.1-0.3,0.1-0.6
				c0-0.2,0-0.3-0.1-0.4c-0.1-0.1-0.1-0.2-0.3-0.3c-0.1-0.1-0.2-0.1-0.4-0.2c-0.1-0.1-0.2-0.1-0.4-0.2c-0.1-0.1-0.2-0.1-0.4-0.2
				c-0.1-0.1-0.2-0.1-0.3-0.2c-0.2-0.2-0.3-0.4-0.3-0.7c0-0.3-0.1-0.7-0.1-1.1c0-0.3,0-0.6,0.1-0.8c0.1-0.2,0.1-0.4,0.3-0.5
				c0.1-0.1,0.3-0.2,0.5-0.3c0.2-0.1,0.5-0.1,0.8-0.1c0.3,0,0.6,0,0.8,0.1c0.2,0,0.4,0.1,0.5,0.2c0.1,0.1,0.2,0.3,0.3,0.5
				c0.1,0.2,0.1,0.4,0.1,0.7c0,0.2,0,0.3,0,0.4c0,0.1,0,0.2-0.1,0.3H-164.3z"/>
			<path class="st0" d="M-161.7,348v-5.4h-1.1v-1.5h3.6v1.5h-1.1v5.4H-161.7z"/>
			<path class="st0" d="M-156.5,341.1h1.4v4.8c0,0.3,0,0.5,0,0.7c0,0.2,0,0.3-0.1,0.5c0,0.1-0.1,0.2-0.1,0.3c0,0.1-0.1,0.2-0.1,0.2
				c-0.1,0.1-0.1,0.2-0.2,0.2c-0.1,0.1-0.2,0.1-0.3,0.2c-0.1,0-0.3,0.1-0.4,0.1c-0.2,0-0.4,0-0.6,0c-0.4,0-0.8,0-1-0.1
				c-0.2-0.1-0.4-0.2-0.5-0.4c0-0.1-0.1-0.2-0.1-0.2c0-0.1-0.1-0.2-0.1-0.3c0-0.1-0.1-0.3-0.1-0.5c0-0.2,0-0.4,0-0.7v-4.8h1.5v4.8
				c0,0.2,0,0.3,0,0.4c0,0.1,0,0.2,0.1,0.2c0,0,0.1,0.1,0.1,0.1c0.1,0,0.1,0,0.2,0c0.1,0,0.2,0,0.2,0c0.1,0,0.1,0,0.1-0.1
				c0,0,0.1-0.1,0.1-0.2c0-0.1,0-0.2,0-0.4V341.1z"/>
			<path class="st0" d="M-154.6,348v-6.9h1.9c0.4,0,0.8,0,1,0.1c0.2,0.1,0.4,0.2,0.5,0.4c0.1,0.1,0.1,0.2,0.1,0.3
				c0,0.1,0.1,0.3,0.1,0.5c0,0.2,0,0.5,0.1,0.8c0,0.3,0,0.8,0,1.3c0,0.5,0,0.9,0,1.3c0,0.3,0,0.6-0.1,0.8c0,0.2-0.1,0.4-0.1,0.5
				c0,0.1-0.1,0.2-0.1,0.3c-0.1,0.1-0.1,0.2-0.2,0.3c-0.1,0.1-0.2,0.1-0.3,0.2c-0.1,0-0.3,0.1-0.4,0.1c-0.2,0-0.4,0-0.6,0H-154.6z
				 M-152.7,346.5c0.1,0,0.2,0,0.2,0c0,0,0.1-0.1,0.1-0.1c0,0,0-0.1,0-0.1c0-0.1,0-0.2,0-0.3c0-0.1,0-0.3,0-0.5c0-0.2,0-0.5,0-0.9
				c0-0.4,0-0.6,0-0.9c0-0.2,0-0.4,0-0.5c0-0.1,0-0.2,0-0.3c0-0.1,0-0.1,0-0.2c0,0-0.1-0.1-0.1-0.1c0,0-0.1,0-0.2,0h-0.5v3.9H-152.7
				z"/>
			<path class="st0" d="M-150.3,348v-6.9h1.5v6.9H-150.3z"/>
			<path class="st0" d="M-144.9,347.5c-0.1,0.1-0.1,0.2-0.2,0.3c-0.1,0.1-0.2,0.1-0.3,0.2c-0.1,0-0.3,0.1-0.4,0.1
				c-0.2,0-0.4,0-0.6,0c-0.4,0-0.8,0-1-0.1c-0.2-0.1-0.4-0.2-0.5-0.4c-0.1-0.1-0.1-0.2-0.2-0.3c0-0.1-0.1-0.3-0.1-0.5
				c0-0.2,0-0.5-0.1-0.8c0-0.3,0-0.8,0-1.3c0-0.5,0-1,0-1.3c0-0.3,0-0.6,0.1-0.8c0-0.2,0.1-0.4,0.1-0.5c0-0.1,0.1-0.2,0.2-0.3
				c0.1-0.1,0.1-0.2,0.2-0.3c0.1-0.1,0.2-0.1,0.3-0.2c0.1,0,0.3-0.1,0.4-0.1c0.2,0,0.4,0,0.6,0c0.4,0,0.8,0,1,0.1
				c0.2,0.1,0.4,0.2,0.5,0.4c0.1,0.1,0.1,0.2,0.2,0.3c0,0.1,0.1,0.3,0.1,0.5c0,0.2,0,0.5,0.1,0.8c0,0.3,0,0.8,0,1.3c0,0.5,0,1,0,1.3
				c0,0.3,0,0.6-0.1,0.8c0,0.2-0.1,0.4-0.1,0.5C-144.8,347.3-144.8,347.4-144.9,347.5z M-146,346.4c0,0,0-0.1,0-0.2
				c0-0.1,0-0.2,0-0.3c0-0.1,0-0.3,0-0.5c0-0.2,0-0.5,0-0.9c0-0.4,0-0.7,0-0.9c0-0.2,0-0.4,0-0.5c0-0.1,0-0.2,0-0.3
				c0-0.1,0-0.1,0-0.2c0-0.1-0.1-0.1-0.1-0.1c0,0-0.1,0-0.2,0c-0.1,0-0.2,0-0.3,0c-0.1,0-0.1,0.1-0.1,0.1c0,0,0,0.1,0,0.2
				c0,0.1,0,0.2,0,0.3c0,0.1,0,0.3,0,0.5c0,0.2,0,0.5,0,0.9c0,0.4,0,0.7,0,0.9c0,0.2,0,0.4,0,0.5c0,0.1,0,0.2,0,0.3
				c0,0.1,0,0.1,0,0.2c0,0.1,0.1,0.1,0.1,0.1c0.1,0,0.1,0,0.3,0c0.1,0,0.2,0,0.2,0C-146.1,346.5-146.1,346.5-146,346.4z"/>
		</g>
	</g>
</g>
</svg>
