<?xml version="1.0" encoding="utf-8"?>
<!-- Generator: Adobe Illustrator 19.0.0, SVG Export Plug-In . SVG Version: 6.00 Build 0)  -->
<svg version="1.1" id="Layer_2" xmlns="http://www.w3.org/2000/svg" xmlns:xlink="http://www.w3.org/1999/xlink" x="0px" y="0px"
	 viewBox="0 0 40 40" style="enable-background:new 0 0 40 40;" xml:space="preserve">
<style type="text/css">
	.st0{fill:#E9644A;}
	.st1{fill:#FFFFFF;}
</style>
<path id="XMLID_19_" class="st0" d="M20,40c11,0,20-9,20-20C40,9,31,0,20,0C9,0,0,9,0,20C0,31,9,40,20,40"/>
<path id="XMLID_26_" class="st1" d="M24.1,13.2v3.8c-0.1,0.1-0.2,0.2-0.3,0.3c-0.1,0.1-0.2,0.1-0.3,0.1c-0.1,0-0.2,0-0.2-0.1
	c-0.1-0.1-0.1-0.1-0.1-0.3v-3.9h-1v4.2c0,0.3,0.1,0.5,0.2,0.7c0.1,0.2,0.3,0.2,0.5,0.2c0.2,0,0.4-0.1,0.6-0.2
	c0.2-0.1,0.4-0.3,0.6-0.5v0.6h1v-5H24.1z M21,13.5c-0.3-0.3-0.6-0.4-1-0.4c-0.5,0-0.8,0.1-1.1,0.4c-0.3,0.2-0.4,0.5-0.4,0.9V17
	c0,0.4,0.1,0.8,0.4,1c0.3,0.3,0.6,0.4,1.1,0.4c0.5,0,0.8-0.1,1.1-0.4c0.3-0.2,0.4-0.6,0.4-1v-2.6C21.4,14,21.2,13.7,21,13.5z
	 M20.3,17.1c0,0.1,0,0.2-0.1,0.3c-0.1,0.1-0.2,0.1-0.3,0.1c-0.1,0-0.2,0-0.3-0.1c-0.1-0.1-0.1-0.2-0.1-0.3v-2.7c0-0.1,0-0.2,0.1-0.3
	c0.1-0.1,0.2-0.1,0.3-0.1c0.1,0,0.2,0,0.3,0.1c0.1,0.1,0.1,0.2,0.1,0.3V17.1z M17.1,11.5l-0.7,2.7h-0.1l-0.7-2.7h-1.2l1.4,4.1v2.7
	H17v-2.8l1.3-4H17.1z M25.1,23.4c0.1,0.1,0.1,0.2,0.1,0.4v0.5h-0.8v-0.5c0-0.2,0-0.3,0.1-0.4c0.1-0.1,0.2-0.1,0.3-0.1
	C25,23.3,25.1,23.4,25.1,23.4z M22,23.4c-0.1-0.1-0.2-0.1-0.3-0.1c-0.1,0-0.1,0-0.2,0c-0.1,0-0.1,0.1-0.2,0.1v2.8
	c0.1,0.1,0.2,0.1,0.2,0.2c0.1,0,0.1,0.1,0.2,0.1c0.1,0,0.2,0,0.3-0.1c0.1-0.1,0.1-0.2,0.1-0.3v-2.4C22.1,23.6,22,23.5,22,23.4z
	 M22,23.4c-0.1-0.1-0.2-0.1-0.3-0.1c-0.1,0-0.1,0-0.2,0c-0.1,0-0.1,0.1-0.2,0.1v2.8c0.1,0.1,0.2,0.1,0.2,0.2c0.1,0,0.1,0.1,0.2,0.1
	c0.1,0,0.2,0,0.3-0.1c0.1-0.1,0.1-0.2,0.1-0.3v-2.4C22.1,23.6,22,23.5,22,23.4z M27.1,19.9H12.9c-1.6,0-2.9,1.3-2.9,2.9v2.9
	c0,1.6,1.3,2.9,2.9,2.9h14.3c1.6,0,2.9-1.3,2.9-2.9v-2.9C30,21.2,28.7,19.9,27.1,19.9z M16.7,21.9h-1.1v5.3h-1v-5.3h-1.1V21h3.2
	V21.9z M19.7,27.2h-0.9v-0.5c-0.2,0.2-0.3,0.3-0.5,0.4c-0.2,0.1-0.4,0.2-0.5,0.2c-0.2,0-0.4-0.1-0.5-0.2c-0.1-0.1-0.2-0.3-0.2-0.6
	v-3.8H18v3.5c0,0.1,0,0.2,0.1,0.2c0,0.1,0.1,0.1,0.2,0.1c0.1,0,0.2,0,0.3-0.1c0.1-0.1,0.2-0.1,0.3-0.2v-3.5h0.9V27.2z M23,26.2
	c0,0.3-0.1,0.6-0.2,0.7c-0.1,0.2-0.4,0.3-0.6,0.3c-0.2,0-0.3,0-0.5-0.1c-0.1-0.1-0.3-0.2-0.4-0.3v0.4h-0.9V21h0.9v2
	c0.1-0.1,0.3-0.2,0.4-0.3c0.1-0.1,0.3-0.1,0.4-0.1c0.3,0,0.5,0.1,0.7,0.3c0.2,0.2,0.2,0.5,0.2,0.8V26.2z M26.2,25h-1.7v0.9
	c0,0.2,0,0.4,0.1,0.5c0.1,0.1,0.2,0.1,0.3,0.1c0.2,0,0.3,0,0.3-0.1c0.1-0.1,0.1-0.3,0.1-0.5v-0.2h0.9v0.2c0,0.5-0.1,0.8-0.4,1.1
	c-0.2,0.2-0.6,0.4-1,0.4c-0.4,0-0.7-0.1-1-0.4c-0.2-0.3-0.4-0.6-0.4-1v-2c0-0.4,0.1-0.7,0.4-1c0.3-0.2,0.6-0.4,1-0.4
	c0.4,0,0.7,0.1,1,0.4c0.2,0.2,0.3,0.6,0.3,1V25z M21.7,23.3c-0.1,0-0.1,0-0.2,0c-0.1,0-0.1,0.1-0.2,0.1v2.8c0.1,0.1,0.2,0.1,0.2,0.2
	c0.1,0,0.1,0.1,0.2,0.1c0.1,0,0.2,0,0.3-0.1c0.1-0.1,0.1-0.2,0.1-0.3v-2.4c0-0.2,0-0.3-0.1-0.3C21.9,23.3,21.8,23.3,21.7,23.3z
	 M22,23.4c-0.1-0.1-0.2-0.1-0.3-0.1c-0.1,0-0.1,0-0.2,0c-0.1,0-0.1,0.1-0.2,0.1v2.8c0.1,0.1,0.2,0.1,0.2,0.2c0.1,0,0.1,0.1,0.2,0.1
	c0.1,0,0.2,0,0.3-0.1c0.1-0.1,0.1-0.2,0.1-0.3v-2.4C22.1,23.6,22,23.5,22,23.4z M22,23.4c-0.1-0.1-0.2-0.1-0.3-0.1
	c-0.1,0-0.1,0-0.2,0c-0.1,0-0.1,0.1-0.2,0.1v2.8c0.1,0.1,0.2,0.1,0.2,0.2c0.1,0,0.1,0.1,0.2,0.1c0.1,0,0.2,0,0.3-0.1
	c0.1-0.1,0.1-0.2,0.1-0.3v-2.4C22.1,23.6,22,23.5,22,23.4z"/>
</svg>
